# Blender v2.80 (sub 51) OBJ File: ''
# www.blender.org
mtllib window3_2x3.mtl
o window3_2x3
v -1.500000 2.000000 0.062500
v -1.500000 0.000000 -0.062500
v -1.500000 -0.000000 0.062500
v -1.500000 2.000000 -0.062500
v 1.500000 -0.000000 0.062500
v 1.500000 0.000000 -0.062500
v 1.500000 2.000000 0.062500
v 1.500000 2.000000 -0.062500
v -1.375000 0.125000 0.062500
v -1.500000 2.000000 0.062500
v -1.500000 -0.000000 0.062500
v -1.375000 1.875000 0.062500
v 1.375000 0.125000 0.062500
v 1.375000 1.875000 0.062500
v 1.500000 -0.000000 0.062500
v 1.500000 2.000000 0.062500
v -1.500000 0.000000 -0.062500
v -1.500000 2.000000 -0.062500
v -1.375000 0.125000 -0.062500
v -1.375000 1.875000 -0.062500
v 1.375000 0.125000 -0.062500
v 1.375000 1.875000 -0.062500
v 1.500000 0.000000 -0.062500
v 1.500000 2.000000 -0.062500
v -1.500000 0.000000 -0.062500
v 1.500000 -0.000000 0.062500
v -1.500000 -0.000000 0.062500
v 1.500000 0.000000 -0.062500
v -1.500000 2.000000 0.062500
v 1.500000 2.000000 0.062500
v -1.500000 2.000000 -0.062500
v 1.500000 2.000000 -0.062500
vt 0.126953 0.500000
vt 0.126953 0.500000
vt 0.126953 0.500000
vt 0.126953 0.500000
vt 0.126953 0.500000
vt 0.126953 0.500000
vt 0.126953 0.500000
vt 0.126953 0.500000
vt 0.126953 0.500000
vt 0.126953 0.500000
vt 0.126953 0.500000
vt 0.126953 0.500000
vt 0.126953 0.500000
vt 0.970703 0.500000
vt 0.970703 0.500000
vt 0.970703 0.500000
vt 0.126953 0.500000
vt 0.970703 0.500000
vt 0.126953 0.500000
vt 0.126953 0.500000
vt 0.126953 0.500000
vt 0.126953 0.500000
vt 0.126953 0.500000
vt 0.126953 0.500000
vt 0.126953 0.500000
vt 0.970703 0.500000
vt 0.970703 0.500000
vt 0.970703 0.500000
vt 0.126953 0.500000
vt 0.970703 0.500000
vt 0.126953 0.500000
vt 0.126953 0.500000
vt 0.126953 0.500000
vt 0.126953 0.500000
vt 0.126953 0.500000
vt 0.126953 0.500000
vt 0.126953 0.500000
vt 0.126953 0.500000
vt 0.126953 0.500000
vt 0.126953 0.500000
vn -1.0000 0.0000 0.0000
vn 1.0000 0.0000 0.0000
vn -0.0000 -0.0000 1.0000
vn -0.0000 0.0000 -1.0000
vn 0.0000 -1.0000 -0.0000
vn 0.0000 1.0000 0.0000
usemtl palette
s 1
f 1/1/1 2/2/1 3/3/1
f 4/4/1 2/2/1 1/1/1
f 5/5/2 6/6/2 7/7/2
f 7/7/2 6/6/2 8/8/2
f 9/9/3 10/10/3 11/11/3
f 12/12/3 10/10/3 9/9/3
f 13/13/3 9/9/3 11/11/3
f 13/14/3 12/15/3 9/16/3
f 14/17/3 10/10/3 12/12/3
f 14/18/3 12/15/3 13/14/3
f 15/19/3 13/13/3 11/11/3
f 15/19/3 14/17/3 13/13/3
f 16/20/3 10/10/3 14/17/3
f 16/20/3 14/17/3 15/19/3
f 17/21/4 18/22/4 19/23/4
f 19/23/4 18/22/4 20/24/4
f 17/21/4 19/23/4 21/25/4
f 19/26/4 20/27/4 21/28/4
f 20/24/4 18/22/4 22/29/4
f 21/28/4 20/27/4 22/30/4
f 17/21/4 21/25/4 23/31/4
f 21/25/4 22/29/4 23/31/4
f 22/29/4 18/22/4 24/32/4
f 23/31/4 22/29/4 24/32/4
f 25/33/5 26/34/5 27/35/5
f 28/36/5 26/34/5 25/33/5
f 29/37/6 30/38/6 31/39/6
f 31/39/6 30/38/6 32/40/6
