# Blender v2.80 (sub 51) OBJ File: ''
# www.blender.org
mtllib window1_2x2.mtl
o window1_2x2
v -1.000000 2.000000 0.125000
v -1.000000 0.000000 -0.125000
v -1.000000 -0.000000 0.125000
v -1.000000 2.000000 -0.125000
v -0.125000 1.875000 0.125000
v -0.125000 0.125000 0.000000
v -0.125000 0.125000 0.125000
v -0.125000 1.875000 0.000000
v 0.875000 1.875000 0.125000
v 0.875000 0.125000 0.000000
v 0.875000 0.125000 0.125000
v 0.875000 1.875000 0.000000
v -0.875000 0.125000 0.125000
v -0.875000 0.125000 0.000000
v -0.875000 1.875000 0.125000
v -0.875000 1.875000 0.000000
v 0.125000 0.125000 0.125000
v 0.125000 0.125000 0.000000
v 0.125000 1.875000 0.125000
v 0.125000 1.875000 0.000000
v 1.000000 -0.000000 0.125000
v 1.000000 0.000000 -0.125000
v 1.000000 2.000000 0.125000
v 1.000000 2.000000 -0.125000
v -0.875000 0.125000 0.125000
v -1.000000 2.000000 0.125000
v -1.000000 -0.000000 0.125000
v -0.875000 1.875000 0.125000
v -0.125000 0.125000 0.125000
v -0.125000 1.875000 0.125000
v 0.125000 0.125000 0.125000
v 0.125000 1.875000 0.125000
v 0.875000 0.125000 0.125000
v 0.875000 1.875000 0.125000
v 1.000000 -0.000000 0.125000
v 1.000000 2.000000 0.125000
v -0.125000 0.125000 0.000000
v -0.875000 1.875000 0.000000
v -0.875000 0.125000 0.000000
v -0.125000 1.875000 0.000000
v 0.875000 0.125000 0.000000
v 0.125000 1.875000 0.000000
v 0.125000 0.125000 0.000000
v 0.875000 1.875000 0.000000
v -1.000000 0.000000 -0.125000
v -1.000000 2.000000 -0.125000
v -0.875000 0.125000 -0.125000
v -0.875000 1.875000 -0.125000
v -0.125000 0.125000 -0.125000
v -0.125000 1.875000 -0.125000
v 0.125000 0.125000 -0.125000
v 0.125000 1.875000 -0.125000
v 0.875000 0.125000 -0.125000
v 0.875000 1.875000 -0.125000
v 1.000000 0.000000 -0.125000
v 1.000000 2.000000 -0.125000
v -1.000000 0.000000 -0.125000
v 1.000000 -0.000000 0.125000
v -1.000000 -0.000000 0.125000
v 1.000000 0.000000 -0.125000
v -0.875000 1.875000 0.000000
v -0.125000 1.875000 0.125000
v -0.875000 1.875000 0.125000
v -0.125000 1.875000 0.000000
v 0.125000 1.875000 0.000000
v 0.875000 1.875000 0.125000
v 0.125000 1.875000 0.125000
v 0.875000 1.875000 0.000000
v -0.875000 0.125000 0.125000
v -0.125000 0.125000 0.125000
v -0.875000 0.125000 0.000000
v -0.125000 0.125000 0.000000
v 0.125000 0.125000 0.125000
v 0.875000 0.125000 0.125000
v 0.125000 0.125000 0.000000
v 0.875000 0.125000 0.000000
v -1.000000 2.000000 0.125000
v 1.000000 2.000000 0.125000
v -1.000000 2.000000 -0.125000
v 1.000000 2.000000 -0.125000
vt 0.716797 0.500000
vt 0.716797 0.500000
vt 0.716797 0.500000
vt 0.716797 0.500000
vt 0.716797 0.500000
vt 0.716797 0.500000
vt 0.716797 0.500000
vt 0.716797 0.500000
vt 0.716797 0.500000
vt 0.716797 0.500000
vt 0.716797 0.500000
vt 0.716797 0.500000
vt 0.716797 0.500000
vt 0.716797 0.500000
vt 0.716797 0.500000
vt 0.716797 0.500000
vt 0.716797 0.500000
vt 0.716797 0.500000
vt 0.716797 0.500000
vt 0.716797 0.500000
vt 0.716797 0.500000
vt 0.716797 0.500000
vt 0.716797 0.500000
vt 0.716797 0.500000
vt 0.716797 0.500000
vt 0.716797 0.500000
vt 0.716797 0.500000
vt 0.716797 0.500000
vt 0.716797 0.500000
vt 0.716797 0.500000
vt 0.716797 0.500000
vt 0.716797 0.500000
vt 0.716797 0.500000
vt 0.716797 0.500000
vt 0.716797 0.500000
vt 0.716797 0.500000
vt 0.970703 0.500000
vt 0.970703 0.500000
vt 0.970703 0.500000
vt 0.970703 0.500000
vt 0.970703 0.500000
vt 0.970703 0.500000
vt 0.970703 0.500000
vt 0.970703 0.500000
vt 0.716797 0.500000
vt 0.716797 0.500000
vt 0.716797 0.500000
vt 0.716797 0.500000
vt 0.716797 0.500000
vt 0.970703 0.500000
vt 0.970703 0.500000
vt 0.970703 0.500000
vt 0.716797 0.500000
vt 0.970703 0.500000
vt 0.716797 0.500000
vt 0.716797 0.500000
vt 0.716797 0.500000
vt 0.970703 0.500000
vt 0.970703 0.500000
vt 0.970703 0.500000
vt 0.716797 0.500000
vt 0.970703 0.500000
vt 0.716797 0.500000
vt 0.716797 0.500000
vt 0.716797 0.500000
vt 0.716797 0.500000
vt 0.716797 0.500000
vt 0.716797 0.500000
vt 0.716797 0.500000
vt 0.716797 0.500000
vt 0.716797 0.500000
vt 0.716797 0.500000
vt 0.716797 0.500000
vt 0.716797 0.500000
vt 0.716797 0.500000
vt 0.716797 0.500000
vt 0.716797 0.500000
vt 0.716797 0.500000
vt 0.716797 0.500000
vt 0.716797 0.500000
vt 0.716797 0.500000
vt 0.716797 0.500000
vt 0.716797 0.500000
vt 0.716797 0.500000
vt 0.716797 0.500000
vt 0.716797 0.500000
vt 0.716797 0.500000
vt 0.716797 0.500000
vn -1.0000 0.0000 0.0000
vn 1.0000 0.0000 0.0000
vn 0.0000 -0.0000 1.0000
vn 0.0000 0.0000 -1.0000
vn 0.0000 -1.0000 -0.0000
vn 0.0000 1.0000 0.0000
usemtl palette
s 1
f 1/1/1 2/2/1 3/3/1
f 4/4/1 2/2/1 1/1/1
f 5/5/1 6/6/1 7/7/1
f 8/8/1 6/6/1 5/5/1
f 9/9/1 10/10/1 11/11/1
f 12/12/1 10/10/1 9/9/1
f 13/13/2 14/14/2 15/15/2
f 15/15/2 14/14/2 16/16/2
f 17/17/2 18/18/2 19/19/2
f 19/19/2 18/18/2 20/20/2
f 21/21/2 22/22/2 23/23/2
f 23/23/2 22/22/2 24/24/2
f 25/25/3 26/26/3 27/27/3
f 28/28/3 26/26/3 25/25/3
f 29/29/3 25/25/3 27/27/3
f 30/30/3 26/26/3 28/28/3
f 31/31/3 29/29/3 27/27/3
f 31/31/3 30/30/3 29/29/3
f 32/32/3 26/26/3 30/30/3
f 32/32/3 30/30/3 31/31/3
f 33/33/3 31/31/3 27/27/3
f 34/34/3 26/26/3 32/32/3
f 35/35/3 33/33/3 27/27/3
f 35/35/3 34/34/3 33/33/3
f 36/36/3 26/26/3 34/34/3
f 36/36/3 34/34/3 35/35/3
f 37/37/3 38/38/3 39/39/3
f 40/40/3 38/38/3 37/37/3
f 41/41/3 42/42/3 43/43/3
f 44/44/3 42/42/3 41/41/3
f 45/45/4 46/46/4 47/47/4
f 47/47/4 46/46/4 48/48/4
f 45/45/4 47/47/4 49/49/4
f 47/50/4 48/51/4 49/52/4
f 48/48/4 46/46/4 50/53/4
f 49/52/4 48/51/4 50/54/4
f 45/45/4 49/49/4 51/55/4
f 49/49/4 50/53/4 51/55/4
f 50/53/4 46/46/4 52/56/4
f 51/55/4 50/53/4 52/56/4
f 45/45/4 51/55/4 53/57/4
f 51/58/4 52/59/4 53/60/4
f 52/56/4 46/46/4 54/61/4
f 53/60/4 52/59/4 54/62/4
f 45/45/4 53/57/4 55/63/4
f 53/57/4 54/61/4 55/63/4
f 54/61/4 46/46/4 56/64/4
f 55/63/4 54/61/4 56/64/4
f 57/65/5 58/66/5 59/67/5
f 60/68/5 58/66/5 57/65/5
f 61/69/5 62/70/5 63/71/5
f 64/72/5 62/70/5 61/69/5
f 65/73/5 66/74/5 67/75/5
f 68/76/5 66/74/5 65/73/5
f 69/77/6 70/78/6 71/79/6
f 71/79/6 70/78/6 72/80/6
f 73/81/6 74/82/6 75/83/6
f 75/83/6 74/82/6 76/84/6
f 77/85/6 78/86/6 79/87/6
f 79/87/6 78/86/6 80/88/6
