# MagicaVoxel @ Ephtracy

# group
g road7

# material
mtllib road7.mtl
usemtl palette

# normals
vn -1 0 0
vn 1 0 0
vn 0 0 1
vn 0 0 -1
vn 0 -1 0
vn 0 1 0

# texcoords
vt 0.900391 0.5
vt 0.904297 0.5
vt 0.966797 0.5

# verts
v -10.5 0 1
v -10.5 0 -1
v -10.5 2 1
v -10.5 2 -1
v 9.5 1 1
v 9.5 1 -1
v 9.5 2 1
v 9.5 2 -1
v -9.5 1 1
v -9.5 1 -1
v -9.5 2 1
v -9.5 2 -1
v 10.5 0 1
v 10.5 0 -1
v 10.5 2 1
v 10.5 2 -1
v -10.5 0 1
v -10.5 2 1
v -9.5 0 1
v -9.5 1 1
v -9.5 2 1
v 9.5 0 1
v 9.5 1 1
v 9.5 2 1
v 10.5 0 1
v 10.5 2 1
v -10.5 0 -1
v -10.5 2 -1
v -9.5 0 -1
v -9.5 1 -1
v -9.5 2 -1
v -0.5 0 -1
v -0.5 1 -1
v 0.5 0 -1
v 0.5 1 -1
v 9.5 0 -1
v 9.5 1 -1
v 9.5 2 -1
v 10.5 0 -1
v 10.5 2 -1
v -10.5 0 1
v -9.5 0 1
v 9.5 0 1
v 10.5 0 1
v -0.5 0 -0
v 0.5 0 -0
v -10.5 0 -1
v -9.5 0 -1
v -0.5 0 -1
v 0.5 0 -1
v 9.5 0 -1
v 10.5 0 -1
v -9.5 1 1
v 9.5 1 1
v -0.5 1 -0
v 0.5 1 -0
v -9.5 1 -1
v -0.5 1 -1
v 0.5 1 -1
v 9.5 1 -1
v -10.5 2 1
v -9.5 2 1
v 9.5 2 1
v 10.5 2 1
v -10.5 2 -1
v -9.5 2 -1
v 9.5 2 -1
v 10.5 2 -1

# faces
f 3/1/1 2/1/1 1/1/1
f 4/1/1 2/1/1 3/1/1
f 7/1/1 6/1/1 5/1/1
f 8/1/1 6/1/1 7/1/1
f 9/1/2 10/1/2 11/1/2
f 11/1/2 10/1/2 12/1/2
f 13/1/2 14/1/2 15/1/2
f 15/1/2 14/1/2 16/1/2
f 19/1/3 18/1/3 17/1/3
f 20/1/3 18/1/3 19/1/3
f 21/1/3 18/1/3 20/1/3
f 22/3/3 20/3/3 19/3/3
f 23/3/3 20/3/3 22/3/3
f 25/1/3 23/1/3 22/1/3
f 25/1/3 24/1/3 23/1/3
f 26/1/3 24/1/3 25/1/3
f 27/1/4 28/1/4 29/1/4
f 29/1/4 28/1/4 30/1/4
f 30/1/4 28/1/4 31/1/4
f 29/3/4 30/3/4 32/3/4
f 32/3/4 30/3/4 33/3/4
f 32/2/4 33/2/4 34/2/4
f 34/2/4 33/2/4 35/2/4
f 34/3/4 35/3/4 36/3/4
f 36/3/4 35/3/4 37/3/4
f 36/1/4 37/1/4 39/1/4
f 37/1/4 38/1/4 39/1/4
f 39/1/4 38/1/4 40/1/4
f 45/3/5 43/3/5 42/3/5
f 46/3/5 43/3/5 45/3/5
f 47/1/5 42/1/5 41/1/5
f 48/3/5 45/3/5 42/3/5
f 48/1/5 42/1/5 47/1/5
f 49/2/5 46/2/5 45/2/5
f 49/3/5 45/3/5 48/3/5
f 50/3/5 43/3/5 46/3/5
f 50/2/5 46/2/5 49/2/5
f 51/1/5 44/1/5 43/1/5
f 51/3/5 43/3/5 50/3/5
f 52/1/5 44/1/5 51/1/5
f 53/3/6 54/3/6 55/3/6
f 55/3/6 54/3/6 56/3/6
f 53/3/6 55/3/6 57/3/6
f 55/2/6 56/2/6 58/2/6
f 57/3/6 55/3/6 58/3/6
f 56/3/6 54/3/6 59/3/6
f 58/2/6 56/2/6 59/2/6
f 59/3/6 54/3/6 60/3/6
f 61/1/6 62/1/6 65/1/6
f 65/1/6 62/1/6 66/1/6
f 63/1/6 64/1/6 67/1/6
f 67/1/6 64/1/6 68/1/6
