# MagicaVoxel @ Ephtracy

# group
g road6

# material
mtllib road6.mtl
usemtl palette

# normals
vn -1 0 0
vn 1 0 0
vn 0 0 1
vn 0 0 -1
vn 0 -1 0
vn 0 1 0

# texcoords
vt 0.900391 0.5
vt 0.904297 0.5
vt 0.962891 0.5
vt 0.966797 0.5

# verts
v -10.5 0 1.5
v -10.5 0 -1.5
v -10.5 2 1.5
v -10.5 2 -1.5
v 9.5 1 1.5
v 9.5 1 0.5
v 9.5 1 -1.5
v 9.5 2 1.5
v 9.5 2 -1.5
v -9.5 1 1.5
v -9.5 1 -1.5
v -9.5 2 1.5
v -9.5 2 -1.5
v 10.5 0 1.5
v 10.5 0 -1.5
v 10.5 2 1.5
v 10.5 2 -1.5
v -10.5 0 1.5
v -10.5 2 1.5
v -9.5 0 1.5
v -9.5 1 1.5
v -9.5 2 1.5
v -5.5 0 1.5
v -5.5 1 1.5
v -4.5 0 1.5
v -4.5 1 1.5
v -0.5 0 1.5
v -0.5 1 1.5
v 0.5 0 1.5
v 0.5 1 1.5
v 8.5 0 1.5
v 8.5 1 1.5
v 9.5 0 1.5
v 9.5 1 1.5
v 9.5 2 1.5
v 10.5 0 1.5
v 10.5 2 1.5
v -10.5 0 -1.5
v -10.5 2 -1.5
v -9.5 0 -1.5
v -9.5 1 -1.5
v -9.5 2 -1.5
v -4.5 0 -1.5
v -4.5 1 -1.5
v -3.5 0 -1.5
v -3.5 1 -1.5
v -0.5 0 -1.5
v -0.5 1 -1.5
v 0.5 0 -1.5
v 0.5 1 -1.5
v 9.5 0 -1.5
v 9.5 1 -1.5
v 9.5 2 -1.5
v 10.5 0 -1.5
v 10.5 2 -1.5
v -10.5 0 1.5
v -9.5 0 1.5
v -5.5 0 1.5
v -4.5 0 1.5
v -0.5 0 1.5
v 0.5 0 1.5
v 8.5 0 1.5
v 9.5 0 1.5
v 10.5 0 1.5
v -5.5 0 0.5
v -4.5 0 0.5
v -3.5 0 0.5
v -0.5 0 0.5
v 0.5 0 0.5
v 7.5 0 0.5
v 8.5 0 0.5
v 9.5 0 0.5
v -0.5 0 -0.5
v 0.5 0 -0.5
v 7.5 0 -0.5
v 8.5 0 -0.5
v -10.5 0 -1.5
v -9.5 0 -1.5
v -4.5 0 -1.5
v -3.5 0 -1.5
v -0.5 0 -1.5
v 0.5 0 -1.5
v 9.5 0 -1.5
v 10.5 0 -1.5
v -9.5 1 1.5
v -5.5 1 1.5
v -4.5 1 1.5
v -0.5 1 1.5
v 0.5 1 1.5
v 8.5 1 1.5
v 9.5 1 1.5
v -5.5 1 0.5
v -4.5 1 0.5
v -3.5 1 0.5
v -0.5 1 0.5
v 0.5 1 0.5
v 7.5 1 0.5
v 8.5 1 0.5
v 9.5 1 0.5
v -0.5 1 -0.5
v 0.5 1 -0.5
v 7.5 1 -0.5
v 8.5 1 -0.5
v -9.5 1 -1.5
v -4.5 1 -1.5
v -3.5 1 -1.5
v -0.5 1 -1.5
v 0.5 1 -1.5
v 9.5 1 -1.5
v -10.5 2 1.5
v -9.5 2 1.5
v 9.5 2 1.5
v 10.5 2 1.5
v -10.5 2 -1.5
v -9.5 2 -1.5
v 9.5 2 -1.5
v 10.5 2 -1.5

# faces
f 3/1/1 2/1/1 1/1/1
f 4/1/1 2/1/1 3/1/1
f 8/1/1 6/1/1 5/1/1
f 8/1/1 7/1/1 6/1/1
f 9/1/1 7/1/1 8/1/1
f 10/1/2 11/1/2 12/1/2
f 12/1/2 11/1/2 13/1/2
f 14/1/2 15/1/2 16/1/2
f 16/1/2 15/1/2 17/1/2
f 20/1/3 19/1/3 18/1/3
f 21/1/3 19/1/3 20/1/3
f 22/1/3 19/1/3 21/1/3
f 23/4/3 21/4/3 20/4/3
f 24/4/3 21/4/3 23/4/3
f 25/3/3 24/3/3 23/3/3
f 26/3/3 24/3/3 25/3/3
f 27/4/3 26/4/3 25/4/3
f 28/4/3 26/4/3 27/4/3
f 29/2/3 28/2/3 27/2/3
f 30/2/3 28/2/3 29/2/3
f 31/4/3 30/4/3 29/4/3
f 32/4/3 30/4/3 31/4/3
f 33/3/3 32/3/3 31/3/3
f 34/3/3 32/3/3 33/3/3
f 36/1/3 34/1/3 33/1/3
f 36/1/3 35/1/3 34/1/3
f 37/1/3 35/1/3 36/1/3
f 38/1/4 39/1/4 40/1/4
f 40/1/4 39/1/4 41/1/4
f 41/1/4 39/1/4 42/1/4
f 40/4/4 41/4/4 43/4/4
f 43/4/4 41/4/4 44/4/4
f 43/3/4 44/3/4 45/3/4
f 45/3/4 44/3/4 46/3/4
f 45/4/4 46/4/4 47/4/4
f 47/4/4 46/4/4 48/4/4
f 47/2/4 48/2/4 49/2/4
f 49/2/4 48/2/4 50/2/4
f 49/4/4 50/4/4 51/4/4
f 51/4/4 50/4/4 52/4/4
f 51/1/4 52/1/4 54/1/4
f 52/1/4 53/1/4 54/1/4
f 54/1/4 53/1/4 55/1/4
f 65/4/5 58/4/5 57/4/5
f 65/3/5 59/3/5 58/3/5
f 66/4/5 60/4/5 59/4/5
f 66/3/5 59/3/5 65/3/5
f 67/4/5 60/4/5 66/4/5
f 68/2/5 61/2/5 60/2/5
f 68/4/5 60/4/5 67/4/5
f 69/4/5 62/4/5 61/4/5
f 69/2/5 61/2/5 68/2/5
f 70/4/5 62/4/5 69/4/5
f 71/3/5 63/3/5 62/3/5
f 71/4/5 62/4/5 70/4/5
f 72/1/5 64/1/5 63/1/5
f 72/3/5 63/3/5 71/3/5
f 73/4/5 70/4/5 69/4/5
f 73/4/5 68/4/5 67/4/5
f 73/4/5 69/4/5 68/4/5
f 74/4/5 70/4/5 73/4/5
f 75/3/5 71/3/5 70/3/5
f 75/4/5 70/4/5 74/4/5
f 76/4/5 72/4/5 71/4/5
f 76/3/5 71/3/5 75/3/5
f 77/1/5 57/1/5 56/1/5
f 78/4/5 65/4/5 57/4/5
f 78/1/5 57/1/5 77/1/5
f 78/4/5 66/4/5 65/4/5
f 79/3/5 67/3/5 66/3/5
f 79/4/5 66/4/5 78/4/5
f 80/4/5 73/4/5 67/4/5
f 80/3/5 67/3/5 79/3/5
f 81/2/5 74/2/5 73/2/5
f 81/4/5 73/4/5 80/4/5
f 82/4/5 75/4/5 74/4/5
f 82/2/5 74/2/5 81/2/5
f 82/4/5 76/4/5 75/4/5
f 83/4/5 72/4/5 76/4/5
f 83/4/5 76/4/5 82/4/5
f 83/1/5 64/1/5 72/1/5
f 84/1/5 64/1/5 83/1/5
f 85/4/6 86/4/6 92/4/6
f 86/3/6 87/3/6 92/3/6
f 87/4/6 88/4/6 93/4/6
f 92/3/6 87/3/6 93/3/6
f 93/4/6 88/4/6 94/4/6
f 88/2/6 89/2/6 95/2/6
f 94/4/6 88/4/6 95/4/6
f 89/4/6 90/4/6 96/4/6
f 95/2/6 89/2/6 96/2/6
f 96/4/6 90/4/6 97/4/6
f 90/3/6 91/3/6 98/3/6
f 97/4/6 90/4/6 98/4/6
f 98/3/6 91/3/6 99/3/6
f 96/4/6 97/4/6 100/4/6
f 94/4/6 95/4/6 100/4/6
f 95/4/6 96/4/6 100/4/6
f 100/4/6 97/4/6 101/4/6
f 97/3/6 98/3/6 102/3/6
f 101/4/6 97/4/6 102/4/6
f 98/4/6 99/4/6 103/4/6
f 102/3/6 98/3/6 103/3/6
f 85/4/6 92/4/6 104/4/6
f 92/4/6 93/4/6 104/4/6
f 93/3/6 94/3/6 105/3/6
f 104/4/6 93/4/6 105/4/6
f 94/4/6 100/4/6 106/4/6
f 105/3/6 94/3/6 106/3/6
f 100/2/6 101/2/6 107/2/6
f 106/4/6 100/4/6 107/4/6
f 101/4/6 102/4/6 108/4/6
f 107/2/6 101/2/6 108/2/6
f 102/4/6 103/4/6 108/4/6
f 103/4/6 99/4/6 109/4/6
f 108/4/6 103/4/6 109/4/6
f 110/1/6 111/1/6 114/1/6
f 114/1/6 111/1/6 115/1/6
f 112/1/6 113/1/6 116/1/6
f 116/1/6 113/1/6 117/1/6
