# MagicaVoxel @ Ephtracy

# group
g road1

# material
mtllib road1.mtl
usemtl palette

# normals
vn -1 0 0
vn 1 0 0
vn 0 0 1
vn 0 0 -1
vn 0 -1 0
vn 0 1 0

# texcoords
vt 0.900391 0.5
vt 0.904297 0.5
vt 0.962891 0.5
vt 0.966797 0.5

# verts
v -10.5 0 19.5
v -10.5 0 -19.5
v -10.5 2 19.5
v -10.5 2 -19.5
v 9.5 1 19.5
v 9.5 1 -19.5
v 9.5 2 19.5
v 9.5 2 -19.5
v -9.5 1 19.5
v -9.5 1 -19.5
v -9.5 2 19.5
v -9.5 2 -19.5
v 10.5 0 19.5
v 10.5 0 -19.5
v 10.5 2 19.5
v 10.5 2 -19.5
v -10.5 0 19.5
v -10.5 2 19.5
v -9.5 0 19.5
v -9.5 1 19.5
v -9.5 2 19.5
v -0.5 0 19.5
v -0.5 1 19.5
v 0.5 0 19.5
v 0.5 1 19.5
v 7.5 0 19.5
v 7.5 1 19.5
v 8.5 0 19.5
v 8.5 1 19.5
v 9.5 0 19.5
v 9.5 1 19.5
v 9.5 2 19.5
v 10.5 0 19.5
v 10.5 2 19.5
v -10.5 0 -19.5
v -10.5 2 -19.5
v -9.5 0 -19.5
v -9.5 1 -19.5
v -9.5 2 -19.5
v -0.5 0 -19.5
v -0.5 1 -19.5
v 0.5 0 -19.5
v 0.5 1 -19.5
v 4.5 0 -19.5
v 4.5 1 -19.5
v 5.5 0 -19.5
v 5.5 1 -19.5
v 7.5 0 -19.5
v 7.5 1 -19.5
v 8.5 0 -19.5
v 8.5 1 -19.5
v 9.5 0 -19.5
v 9.5 1 -19.5
v 9.5 2 -19.5
v 10.5 0 -19.5
v 10.5 2 -19.5
v -10.5 0 19.5
v -9.5 0 19.5
v -0.5 0 19.5
v 0.5 0 19.5
v 7.5 0 19.5
v 8.5 0 19.5
v 9.5 0 19.5
v 10.5 0 19.5
v -6.5 0 18.5
v -5.5 0 18.5
v -0.5 0 18.5
v 0.5 0 18.5
v -0.5 0 17.5
v 0.5 0 17.5
v 6.5 0 17.5
v 7.5 0 17.5
v 8.5 0 17.5
v -6.5 0 16.5
v -5.5 0 16.5
v -4.5 0 16.5
v 6.5 0 16.5
v 7.5 0 16.5
v -0.5 0 15.5
v 0.5 0 15.5
v -0.5 0 14.5
v 0.5 0 14.5
v -5.5 0 13.5
v -4.5 0 13.5
v -0.5 0 12.5
v 0.5 0 12.5
v -0.5 0 11.5
v 0.5 0 11.5
v -0.5 0 9.5
v 0.5 0 9.5
v -0.5 0 8.5
v 0.5 0 8.5
v -4.5 0 6.5
v -3.5 0 6.5
v -0.5 0 6.5
v 0.5 0 6.5
v -0.5 0 5.5
v 0.5 0 5.5
v -5.5 0 3.5
v -4.5 0 3.5
v -3.5 0 3.5
v -0.5 0 3.5
v 0.5 0 3.5
v 5.5 0 3.5
v 6.5 0 3.5
v -0.5 0 2.5
v 0.5 0 2.5
v 4.5 0 1.5
v 5.5 0 1.5
v 6.5 0 1.5
v -5.5 0 0.5
v -4.5 0 0.5
v -0.5 0 0.5
v 0.5 0 0.5
v -0.5 0 -0.5
v 0.5 0 -0.5
v 3.5 0 -0.5
v 4.5 0 -0.5
v 5.5 0 -0.5
v 3.5 0 -1.5
v 4.5 0 -1.5
v -0.5 0 -2.5
v 0.5 0 -2.5
v -0.5 0 -3.5
v 0.5 0 -3.5
v -0.5 0 -5.5
v 0.5 0 -5.5
v -0.5 0 -6.5
v 0.5 0 -6.5
v -0.5 0 -8.5
v 0.5 0 -8.5
v -0.5 0 -9.5
v 0.5 0 -9.5
v 3.5 0 -9.5
v 4.5 0 -9.5
v -8.5 0 -11.5
v -7.5 0 -11.5
v -0.5 0 -11.5
v 0.5 0 -11.5
v 3.5 0 -11.5
v 4.5 0 -11.5
v 5.5 0 -11.5
v -0.5 0 -12.5
v 0.5 0 -12.5
v -8.5 0 -13.5
v -7.5 0 -13.5
v -6.5 0 -13.5
v 4.5 0 -13.5
v 5.5 0 -13.5
v -0.5 0 -14.5
v 0.5 0 -14.5
v -0.5 0 -15.5
v 0.5 0 -15.5
v -7.5 0 -16.5
v -6.5 0 -16.5
v -0.5 0 -17.5
v 0.5 0 -17.5
v -0.5 0 -18.5
v 0.5 0 -18.5
v 4.5 0 -18.5
v 5.5 0 -18.5
v 7.5 0 -18.5
v 8.5 0 -18.5
v -10.5 0 -19.5
v -9.5 0 -19.5
v -0.5 0 -19.5
v 0.5 0 -19.5
v 4.5 0 -19.5
v 5.5 0 -19.5
v 7.5 0 -19.5
v 8.5 0 -19.5
v 9.5 0 -19.5
v 10.5 0 -19.5
v -9.5 1 19.5
v -0.5 1 19.5
v 0.5 1 19.5
v 7.5 1 19.5
v 8.5 1 19.5
v 9.5 1 19.5
v -6.5 1 18.5
v -5.5 1 18.5
v -0.5 1 18.5
v 0.5 1 18.5
v -0.5 1 17.5
v 0.5 1 17.5
v 6.5 1 17.5
v 7.5 1 17.5
v 8.5 1 17.5
v -6.5 1 16.5
v -5.5 1 16.5
v -4.5 1 16.5
v 6.5 1 16.5
v 7.5 1 16.5
v -0.5 1 15.5
v 0.5 1 15.5
v -0.5 1 14.5
v 0.5 1 14.5
v -5.5 1 13.5
v -4.5 1 13.5
v -0.5 1 12.5
v 0.5 1 12.5
v -0.5 1 11.5
v 0.5 1 11.5
v -0.5 1 9.5
v 0.5 1 9.5
v -0.5 1 8.5
v 0.5 1 8.5
v -4.5 1 6.5
v -3.5 1 6.5
v -0.5 1 6.5
v 0.5 1 6.5
v -0.5 1 5.5
v 0.5 1 5.5
v -5.5 1 3.5
v -4.5 1 3.5
v -3.5 1 3.5
v -0.5 1 3.5
v 0.5 1 3.5
v 5.5 1 3.5
v 6.5 1 3.5
v -0.5 1 2.5
v 0.5 1 2.5
v 4.5 1 1.5
v 5.5 1 1.5
v 6.5 1 1.5
v -5.5 1 0.5
v -4.5 1 0.5
v -0.5 1 0.5
v 0.5 1 0.5
v -0.5 1 -0.5
v 0.5 1 -0.5
v 3.5 1 -0.5
v 4.5 1 -0.5
v 5.5 1 -0.5
v 3.5 1 -1.5
v 4.5 1 -1.5
v -0.5 1 -2.5
v 0.5 1 -2.5
v -0.5 1 -3.5
v 0.5 1 -3.5
v -0.5 1 -5.5
v 0.5 1 -5.5
v -0.5 1 -6.5
v 0.5 1 -6.5
v -0.5 1 -8.5
v 0.5 1 -8.5
v -0.5 1 -9.5
v 0.5 1 -9.5
v 3.5 1 -9.5
v 4.5 1 -9.5
v -8.5 1 -11.5
v -7.5 1 -11.5
v -0.5 1 -11.5
v 0.5 1 -11.5
v 3.5 1 -11.5
v 4.5 1 -11.5
v 5.5 1 -11.5
v -0.5 1 -12.5
v 0.5 1 -12.5
v -8.5 1 -13.5
v -7.5 1 -13.5
v -6.5 1 -13.5
v 4.5 1 -13.5
v 5.5 1 -13.5
v -0.5 1 -14.5
v 0.5 1 -14.5
v -0.5 1 -15.5
v 0.5 1 -15.5
v -7.5 1 -16.5
v -6.5 1 -16.5
v -0.5 1 -17.5
v 0.5 1 -17.5
v -0.5 1 -18.5
v 0.5 1 -18.5
v 4.5 1 -18.5
v 5.5 1 -18.5
v 7.5 1 -18.5
v 8.5 1 -18.5
v -9.5 1 -19.5
v -0.5 1 -19.5
v 0.5 1 -19.5
v 4.5 1 -19.5
v 5.5 1 -19.5
v 7.5 1 -19.5
v 8.5 1 -19.5
v 9.5 1 -19.5
v -10.5 2 19.5
v -9.5 2 19.5
v 9.5 2 19.5
v 10.5 2 19.5
v -10.5 2 -19.5
v -9.5 2 -19.5
v 9.5 2 -19.5
v 10.5 2 -19.5

# faces
f 3/1/1 2/1/1 1/1/1
f 4/1/1 2/1/1 3/1/1
f 7/1/1 6/1/1 5/1/1
f 8/1/1 6/1/1 7/1/1
f 9/1/2 10/1/2 11/1/2
f 11/1/2 10/1/2 12/1/2
f 13/1/2 14/1/2 15/1/2
f 15/1/2 14/1/2 16/1/2
f 19/1/3 18/1/3 17/1/3
f 20/1/3 18/1/3 19/1/3
f 21/1/3 18/1/3 20/1/3
f 22/4/3 20/4/3 19/4/3
f 23/4/3 20/4/3 22/4/3
f 24/2/3 23/2/3 22/2/3
f 25/2/3 23/2/3 24/2/3
f 26/4/3 25/4/3 24/4/3
f 27/4/3 25/4/3 26/4/3
f 28/3/3 27/3/3 26/3/3
f 29/3/3 27/3/3 28/3/3
f 30/4/3 29/4/3 28/4/3
f 31/4/3 29/4/3 30/4/3
f 33/1/3 31/1/3 30/1/3
f 33/1/3 32/1/3 31/1/3
f 34/1/3 32/1/3 33/1/3
f 35/1/4 36/1/4 37/1/4
f 37/1/4 36/1/4 38/1/4
f 38/1/4 36/1/4 39/1/4
f 37/4/4 38/4/4 40/4/4
f 40/4/4 38/4/4 41/4/4
f 40/2/4 41/2/4 42/2/4
f 42/2/4 41/2/4 43/2/4
f 42/4/4 43/4/4 44/4/4
f 44/4/4 43/4/4 45/4/4
f 44/3/4 45/3/4 46/3/4
f 46/3/4 45/3/4 47/3/4
f 46/4/4 47/4/4 48/4/4
f 48/4/4 47/4/4 49/4/4
f 48/3/4 49/3/4 50/3/4
f 50/3/4 49/3/4 51/3/4
f 50/4/4 51/4/4 52/4/4
f 52/4/4 51/4/4 53/4/4
f 52/1/4 53/1/4 55/1/4
f 53/1/4 54/1/4 55/1/4
f 55/1/4 54/1/4 56/1/4
f 65/4/5 59/4/5 58/4/5
f 66/4/5 59/4/5 65/4/5
f 67/2/5 60/2/5 59/2/5
f 67/4/5 59/4/5 66/4/5
f 68/4/5 61/4/5 60/4/5
f 68/2/5 60/2/5 67/2/5
f 69/4/5 67/4/5 66/4/5
f 69/4/5 68/4/5 67/4/5
f 70/4/5 61/4/5 68/4/5
f 70/4/5 68/4/5 69/4/5
f 71/4/5 61/4/5 70/4/5
f 72/3/5 62/3/5 61/3/5
f 72/4/5 61/4/5 71/4/5
f 73/4/5 63/4/5 62/4/5
f 73/3/5 62/3/5 72/3/5
f 74/3/5 66/3/5 65/3/5
f 74/4/5 65/4/5 58/4/5
f 75/4/5 69/4/5 66/4/5
f 75/3/5 66/3/5 74/3/5
f 76/4/5 69/4/5 75/4/5
f 77/4/5 71/4/5 70/4/5
f 77/3/5 72/3/5 71/3/5
f 78/4/5 73/4/5 72/4/5
f 78/3/5 72/3/5 77/3/5
f 79/4/5 69/4/5 76/4/5
f 79/2/5 70/2/5 69/2/5
f 80/4/5 77/4/5 70/4/5
f 80/2/5 70/2/5 79/2/5
f 80/4/5 78/4/5 77/4/5
f 81/4/5 79/4/5 76/4/5
f 81/4/5 80/4/5 79/4/5
f 82/4/5 78/4/5 80/4/5
f 82/4/5 80/4/5 81/4/5
f 83/3/5 76/3/5 75/3/5
f 83/4/5 75/4/5 74/4/5
f 84/4/5 81/4/5 76/4/5
f 84/3/5 76/3/5 83/3/5
f 85/2/5 82/2/5 81/2/5
f 85/4/5 81/4/5 84/4/5
f 85/4/5 84/4/5 83/4/5
f 86/4/5 78/4/5 82/4/5
f 86/2/5 82/2/5 85/2/5
f 87/4/5 85/4/5 83/4/5
f 87/4/5 86/4/5 85/4/5
f 88/4/5 78/4/5 86/4/5
f 88/4/5 86/4/5 87/4/5
f 89/4/5 87/4/5 83/4/5
f 89/2/5 88/2/5 87/2/5
f 90/4/5 78/4/5 88/4/5
f 90/2/5 88/2/5 89/2/5
f 91/4/5 89/4/5 83/4/5
f 91/4/5 90/4/5 89/4/5
f 92/4/5 78/4/5 90/4/5
f 92/4/5 90/4/5 91/4/5
f 93/4/5 91/4/5 83/4/5
f 94/4/5 91/4/5 93/4/5
f 95/2/5 92/2/5 91/2/5
f 95/4/5 91/4/5 94/4/5
f 96/4/5 78/4/5 92/4/5
f 96/2/5 92/2/5 95/2/5
f 97/4/5 95/4/5 94/4/5
f 97/4/5 96/4/5 95/4/5
f 98/4/5 78/4/5 96/4/5
f 98/4/5 96/4/5 97/4/5
f 99/4/5 83/4/5 74/4/5
f 99/4/5 93/4/5 83/4/5
f 100/3/5 94/3/5 93/3/5
f 100/4/5 93/4/5 99/4/5
f 101/4/5 97/4/5 94/4/5
f 101/3/5 94/3/5 100/3/5
f 102/2/5 98/2/5 97/2/5
f 102/4/5 97/4/5 101/4/5
f 103/4/5 78/4/5 98/4/5
f 103/2/5 98/2/5 102/2/5
f 104/4/5 78/4/5 103/4/5
f 105/4/5 78/4/5 104/4/5
f 106/4/5 102/4/5 101/4/5
f 106/4/5 101/4/5 100/4/5
f 106/4/5 103/4/5 102/4/5
f 106/4/5 104/4/5 103/4/5
f 107/4/5 104/4/5 106/4/5
f 108/4/5 104/4/5 107/4/5
f 109/3/5 105/3/5 104/3/5
f 109/4/5 104/4/5 108/4/5
f 110/4/5 78/4/5 105/4/5
f 110/3/5 105/3/5 109/3/5
f 111/3/5 100/3/5 99/3/5
f 111/4/5 99/4/5 74/4/5
f 112/4/5 106/4/5 100/4/5
f 112/3/5 100/3/5 111/3/5
f 113/2/5 107/2/5 106/2/5
f 113/4/5 106/4/5 112/4/5
f 114/4/5 108/4/5 107/4/5
f 114/2/5 107/2/5 113/2/5
f 115/4/5 113/4/5 112/4/5
f 115/4/5 112/4/5 111/4/5
f 115/4/5 114/4/5 113/4/5
f 116/4/5 108/4/5 114/4/5
f 116/4/5 114/4/5 115/4/5
f 117/4/5 108/4/5 116/4/5
f 118/3/5 109/3/5 108/3/5
f 118/4/5 108/4/5 117/4/5
f 119/4/5 110/4/5 109/4/5
f 119/3/5 109/3/5 118/3/5
f 120/4/5 117/4/5 116/4/5
f 120/3/5 118/3/5 117/3/5
f 121/4/5 119/4/5 118/4/5
f 121/3/5 118/3/5 120/3/5
f 122/4/5 115/4/5 111/4/5
f 122/2/5 116/2/5 115/2/5
f 123/4/5 120/4/5 116/4/5
f 123/2/5 116/2/5 122/2/5
f 123/4/5 121/4/5 120/4/5
f 124/4/5 122/4/5 111/4/5
f 124/4/5 123/4/5 122/4/5
f 125/4/5 121/4/5 123/4/5
f 125/4/5 123/4/5 124/4/5
f 126/4/5 124/4/5 111/4/5
f 126/2/5 125/2/5 124/2/5
f 127/4/5 121/4/5 125/4/5
f 127/2/5 125/2/5 126/2/5
f 128/4/5 126/4/5 111/4/5
f 128/4/5 127/4/5 126/4/5
f 129/4/5 121/4/5 127/4/5
f 129/4/5 127/4/5 128/4/5
f 130/4/5 128/4/5 111/4/5
f 130/2/5 129/2/5 128/2/5
f 131/4/5 121/4/5 129/4/5
f 131/2/5 129/2/5 130/2/5
f 132/4/5 130/4/5 111/4/5
f 132/4/5 131/4/5 130/4/5
f 133/4/5 121/4/5 131/4/5
f 133/4/5 131/4/5 132/4/5
f 134/4/5 121/4/5 133/4/5
f 135/4/5 119/4/5 121/4/5
f 135/4/5 121/4/5 134/4/5
f 136/4/5 74/4/5 58/4/5
f 136/4/5 132/4/5 111/4/5
f 136/4/5 111/4/5 74/4/5
f 137/4/5 132/4/5 136/4/5
f 138/2/5 133/2/5 132/2/5
f 138/4/5 132/4/5 137/4/5
f 139/4/5 134/4/5 133/4/5
f 139/2/5 133/2/5 138/2/5
f 140/3/5 135/3/5 134/3/5
f 140/4/5 134/4/5 139/4/5
f 141/4/5 119/4/5 135/4/5
f 141/3/5 135/3/5 140/3/5
f 142/4/5 110/4/5 119/4/5
f 142/4/5 119/4/5 141/4/5
f 143/4/5 140/4/5 139/4/5
f 143/4/5 141/4/5 140/4/5
f 143/4/5 139/4/5 138/4/5
f 143/4/5 138/4/5 137/4/5
f 144/4/5 141/4/5 143/4/5
f 145/4/5 136/4/5 58/4/5
f 145/3/5 137/3/5 136/3/5
f 146/4/5 143/4/5 137/4/5
f 146/3/5 137/3/5 145/3/5
f 147/4/5 143/4/5 146/4/5
f 148/3/5 142/3/5 141/3/5
f 148/4/5 141/4/5 144/4/5
f 149/4/5 110/4/5 142/4/5
f 149/3/5 142/3/5 148/3/5
f 150/4/5 143/4/5 147/4/5
f 150/2/5 144/2/5 143/2/5
f 151/4/5 148/4/5 144/4/5
f 151/2/5 144/2/5 150/2/5
f 151/4/5 149/4/5 148/4/5
f 152/4/5 150/4/5 147/4/5
f 152/4/5 151/4/5 150/4/5
f 153/4/5 149/4/5 151/4/5
f 153/4/5 151/4/5 152/4/5
f 154/3/5 147/3/5 146/3/5
f 154/4/5 146/4/5 145/4/5
f 155/4/5 152/4/5 147/4/5
f 155/3/5 147/3/5 154/3/5
f 156/2/5 153/2/5 152/2/5
f 156/4/5 152/4/5 155/4/5
f 156/4/5 155/4/5 154/4/5
f 157/4/5 149/4/5 153/4/5
f 157/2/5 153/2/5 156/2/5
f 158/4/5 156/4/5 154/4/5
f 158/4/5 157/4/5 156/4/5
f 159/4/5 149/4/5 157/4/5
f 159/4/5 157/4/5 158/4/5
f 160/4/5 149/4/5 159/4/5
f 161/4/5 110/4/5 149/4/5
f 161/4/5 149/4/5 160/4/5
f 162/4/5 73/4/5 78/4/5
f 162/4/5 110/4/5 161/4/5
f 162/4/5 78/4/5 110/4/5
f 163/4/5 63/4/5 73/4/5
f 163/4/5 73/4/5 162/4/5
f 164/1/5 58/1/5 57/1/5
f 165/4/5 154/4/5 145/4/5
f 165/1/5 58/1/5 164/1/5
f 165/4/5 158/4/5 154/4/5
f 165/4/5 145/4/5 58/4/5
f 166/2/5 159/2/5 158/2/5
f 166/4/5 158/4/5 165/4/5
f 167/4/5 160/4/5 159/4/5
f 167/2/5 159/2/5 166/2/5
f 168/3/5 161/3/5 160/3/5
f 168/4/5 160/4/5 167/4/5
f 169/4/5 162/4/5 161/4/5
f 169/3/5 161/3/5 168/3/5
f 170/3/5 163/3/5 162/3/5
f 170/4/5 162/4/5 169/4/5
f 171/4/5 63/4/5 163/4/5
f 171/3/5 163/3/5 170/3/5
f 172/1/5 64/1/5 63/1/5
f 172/4/5 63/4/5 171/4/5
f 173/1/5 64/1/5 172/1/5
f 174/4/6 175/4/6 180/4/6
f 180/4/6 175/4/6 181/4/6
f 175/2/6 176/2/6 182/2/6
f 181/4/6 175/4/6 182/4/6
f 176/4/6 177/4/6 183/4/6
f 182/2/6 176/2/6 183/2/6
f 181/4/6 182/4/6 184/4/6
f 182/4/6 183/4/6 184/4/6
f 183/4/6 177/4/6 185/4/6
f 184/4/6 183/4/6 185/4/6
f 185/4/6 177/4/6 186/4/6
f 177/3/6 178/3/6 187/3/6
f 186/4/6 177/4/6 187/4/6
f 178/4/6 179/4/6 188/4/6
f 187/3/6 178/3/6 188/3/6
f 180/3/6 181/3/6 189/3/6
f 174/4/6 180/4/6 189/4/6
f 181/4/6 184/4/6 190/4/6
f 189/3/6 181/3/6 190/3/6
f 190/4/6 184/4/6 191/4/6
f 186/3/6 187/3/6 192/3/6
f 185/4/6 186/4/6 192/4/6
f 187/4/6 188/4/6 193/4/6
f 192/3/6 187/3/6 193/3/6
f 191/4/6 184/4/6 194/4/6
f 184/2/6 185/2/6 194/2/6
f 185/4/6 192/4/6 195/4/6
f 194/2/6 185/2/6 195/2/6
f 192/4/6 193/4/6 195/4/6
f 191/4/6 194/4/6 196/4/6
f 194/4/6 195/4/6 196/4/6
f 195/4/6 193/4/6 197/4/6
f 196/4/6 195/4/6 197/4/6
f 190/3/6 191/3/6 198/3/6
f 189/4/6 190/4/6 198/4/6
f 191/4/6 196/4/6 199/4/6
f 198/3/6 191/3/6 199/3/6
f 196/2/6 197/2/6 200/2/6
f 199/4/6 196/4/6 200/4/6
f 198/4/6 199/4/6 200/4/6
f 197/4/6 193/4/6 201/4/6
f 200/2/6 197/2/6 201/2/6
f 198/4/6 200/4/6 202/4/6
f 200/4/6 201/4/6 202/4/6
f 201/4/6 193/4/6 203/4/6
f 202/4/6 201/4/6 203/4/6
f 198/4/6 202/4/6 204/4/6
f 202/2/6 203/2/6 204/2/6
f 203/4/6 193/4/6 205/4/6
f 204/2/6 203/2/6 205/2/6
f 198/4/6 204/4/6 206/4/6
f 204/4/6 205/4/6 206/4/6
f 205/4/6 193/4/6 207/4/6
f 206/4/6 205/4/6 207/4/6
f 198/4/6 206/4/6 208/4/6
f 208/4/6 206/4/6 209/4/6
f 206/2/6 207/2/6 210/2/6
f 209/4/6 206/4/6 210/4/6
f 207/4/6 193/4/6 211/4/6
f 210/2/6 207/2/6 211/2/6
f 209/4/6 210/4/6 212/4/6
f 210/4/6 211/4/6 212/4/6
f 211/4/6 193/4/6 213/4/6
f 212/4/6 211/4/6 213/4/6
f 189/4/6 198/4/6 214/4/6
f 198/4/6 208/4/6 214/4/6
f 208/3/6 209/3/6 215/3/6
f 214/4/6 208/4/6 215/4/6
f 209/4/6 212/4/6 216/4/6
f 215/3/6 209/3/6 216/3/6
f 212/2/6 213/2/6 217/2/6
f 216/4/6 212/4/6 217/4/6
f 213/4/6 193/4/6 218/4/6
f 217/2/6 213/2/6 218/2/6
f 218/4/6 193/4/6 219/4/6
f 219/4/6 193/4/6 220/4/6
f 216/4/6 217/4/6 221/4/6
f 215/4/6 216/4/6 221/4/6
f 217/4/6 218/4/6 221/4/6
f 218/4/6 219/4/6 221/4/6
f 221/4/6 219/4/6 222/4/6
f 222/4/6 219/4/6 223/4/6
f 219/3/6 220/3/6 224/3/6
f 223/4/6 219/4/6 224/4/6
f 220/4/6 193/4/6 225/4/6
f 224/3/6 220/3/6 225/3/6
f 214/3/6 215/3/6 226/3/6
f 189/4/6 214/4/6 226/4/6
f 215/4/6 221/4/6 227/4/6
f 226/3/6 215/3/6 227/3/6
f 221/2/6 222/2/6 228/2/6
f 227/4/6 221/4/6 228/4/6
f 222/4/6 223/4/6 229/4/6
f 228/2/6 222/2/6 229/2/6
f 227/4/6 228/4/6 230/4/6
f 226/4/6 227/4/6 230/4/6
f 228/4/6 229/4/6 230/4/6
f 229/4/6 223/4/6 231/4/6
f 230/4/6 229/4/6 231/4/6
f 231/4/6 223/4/6 232/4/6
f 223/3/6 224/3/6 233/3/6
f 232/4/6 223/4/6 233/4/6
f 224/4/6 225/4/6 234/4/6
f 233/3/6 224/3/6 234/3/6
f 231/4/6 232/4/6 235/4/6
f 232/3/6 233/3/6 235/3/6
f 233/4/6 234/4/6 236/4/6
f 235/3/6 233/3/6 236/3/6
f 226/4/6 230/4/6 237/4/6
f 230/2/6 231/2/6 237/2/6
f 231/4/6 235/4/6 238/4/6
f 237/2/6 231/2/6 238/2/6
f 235/4/6 236/4/6 238/4/6
f 226/4/6 237/4/6 239/4/6
f 237/4/6 238/4/6 239/4/6
f 238/4/6 236/4/6 240/4/6
f 239/4/6 238/4/6 240/4/6
f 226/4/6 239/4/6 241/4/6
f 239/2/6 240/2/6 241/2/6
f 240/4/6 236/4/6 242/4/6
f 241/2/6 240/2/6 242/2/6
f 226/4/6 241/4/6 243/4/6
f 241/4/6 242/4/6 243/4/6
f 242/4/6 236/4/6 244/4/6
f 243/4/6 242/4/6 244/4/6
f 226/4/6 243/4/6 245/4/6
f 243/2/6 244/2/6 245/2/6
f 244/4/6 236/4/6 246/4/6
f 245/2/6 244/2/6 246/2/6
f 226/4/6 245/4/6 247/4/6
f 245/4/6 246/4/6 247/4/6
f 246/4/6 236/4/6 248/4/6
f 247/4/6 246/4/6 248/4/6
f 248/4/6 236/4/6 249/4/6
f 236/4/6 234/4/6 250/4/6
f 249/4/6 236/4/6 250/4/6
f 174/4/6 189/4/6 251/4/6
f 226/4/6 247/4/6 251/4/6
f 189/4/6 226/4/6 251/4/6
f 251/4/6 247/4/6 252/4/6
f 247/2/6 248/2/6 253/2/6
f 252/4/6 247/4/6 253/4/6
f 248/4/6 249/4/6 254/4/6
f 253/2/6 248/2/6 254/2/6
f 249/3/6 250/3/6 255/3/6
f 254/4/6 249/4/6 255/4/6
f 250/4/6 234/4/6 256/4/6
f 255/3/6 250/3/6 256/3/6
f 234/4/6 225/4/6 257/4/6
f 256/4/6 234/4/6 257/4/6
f 254/4/6 255/4/6 258/4/6
f 255/4/6 256/4/6 258/4/6
f 253/4/6 254/4/6 258/4/6
f 252/4/6 253/4/6 258/4/6
f 258/4/6 256/4/6 259/4/6
f 174/4/6 251/4/6 260/4/6
f 251/3/6 252/3/6 260/3/6
f 252/4/6 258/4/6 261/4/6
f 260/3/6 252/3/6 261/3/6
f 261/4/6 258/4/6 262/4/6
f 256/3/6 257/3/6 263/3/6
f 259/4/6 256/4/6 263/4/6
f 257/4/6 225/4/6 264/4/6
f 263/3/6 257/3/6 264/3/6
f 262/4/6 258/4/6 265/4/6
f 258/2/6 259/2/6 265/2/6
f 259/4/6 263/4/6 266/4/6
f 265/2/6 259/2/6 266/2/6
f 263/4/6 264/4/6 266/4/6
f 262/4/6 265/4/6 267/4/6
f 265/4/6 266/4/6 267/4/6
f 266/4/6 264/4/6 268/4/6
f 267/4/6 266/4/6 268/4/6
f 261/3/6 262/3/6 269/3/6
f 260/4/6 261/4/6 269/4/6
f 262/4/6 267/4/6 270/4/6
f 269/3/6 262/3/6 270/3/6
f 267/2/6 268/2/6 271/2/6
f 270/4/6 267/4/6 271/4/6
f 269/4/6 270/4/6 271/4/6
f 268/4/6 264/4/6 272/4/6
f 271/2/6 268/2/6 272/2/6
f 269/4/6 271/4/6 273/4/6
f 271/4/6 272/4/6 273/4/6
f 272/4/6 264/4/6 274/4/6
f 273/4/6 272/4/6 274/4/6
f 274/4/6 264/4/6 275/4/6
f 264/4/6 225/4/6 276/4/6
f 275/4/6 264/4/6 276/4/6
f 193/4/6 188/4/6 277/4/6
f 276/4/6 225/4/6 277/4/6
f 225/4/6 193/4/6 277/4/6
f 188/4/6 179/4/6 278/4/6
f 277/4/6 188/4/6 278/4/6
f 260/4/6 269/4/6 279/4/6
f 269/4/6 273/4/6 279/4/6
f 174/4/6 260/4/6 279/4/6
f 273/2/6 274/2/6 280/2/6
f 279/4/6 273/4/6 280/4/6
f 274/4/6 275/4/6 281/4/6
f 280/2/6 274/2/6 281/2/6
f 275/3/6 276/3/6 282/3/6
f 281/4/6 275/4/6 282/4/6
f 276/4/6 277/4/6 283/4/6
f 282/3/6 276/3/6 283/3/6
f 277/3/6 278/3/6 284/3/6
f 283/4/6 277/4/6 284/4/6
f 278/4/6 179/4/6 285/4/6
f 284/3/6 278/3/6 285/3/6
f 285/4/6 179/4/6 286/4/6
f 287/1/6 288/1/6 291/1/6
f 291/1/6 288/1/6 292/1/6
f 289/1/6 290/1/6 293/1/6
f 293/1/6 290/1/6 294/1/6
