# MagicaVoxel @ Ephtracy

# group
g road6bis

# material
mtllib road6bis.mtl
usemtl palette

# normals
vn -1 0 0
vn 1 0 0
vn 0 0 1
vn 0 0 -1
vn 0 -1 0
vn 0 1 0

# texcoords
vt 0.900391 0.5
vt 0.904297 0.5
vt 0.962891 0.5
vt 0.966797 0.5

# verts
v -10.5 0 1.5
v -10.5 0 -1.5
v -10.5 2 1.5
v -10.5 2 -1.5
v 9.5 1 1.5
v 9.5 1 -1.5
v 9.5 2 1.5
v 9.5 2 -1.5
v -9.5 1 1.5
v -9.5 1 -1.5
v -9.5 2 1.5
v -9.5 2 -1.5
v 10.5 0 1.5
v 10.5 0 -1.5
v 10.5 2 1.5
v 10.5 2 -1.5
v -10.5 0 1.5
v -10.5 2 1.5
v -9.5 0 1.5
v -9.5 1 1.5
v -9.5 2 1.5
v -8.5 0 1.5
v -8.5 1 1.5
v -7.5 0 1.5
v -7.5 1 1.5
v -0.5 0 1.5
v -0.5 1 1.5
v 0.5 0 1.5
v 0.5 1 1.5
v 4.5 0 1.5
v 4.5 1 1.5
v 5.5 0 1.5
v 5.5 1 1.5
v 9.5 0 1.5
v 9.5 1 1.5
v 9.5 2 1.5
v 10.5 0 1.5
v 10.5 2 1.5
v -10.5 0 -1.5
v -10.5 2 -1.5
v -9.5 0 -1.5
v -9.5 1 -1.5
v -9.5 2 -1.5
v -7.5 0 -1.5
v -7.5 1 -1.5
v -6.5 0 -1.5
v -6.5 1 -1.5
v -0.5 0 -1.5
v -0.5 1 -1.5
v 0.5 0 -1.5
v 0.5 1 -1.5
v 9.5 0 -1.5
v 9.5 1 -1.5
v 9.5 2 -1.5
v 10.5 0 -1.5
v 10.5 2 -1.5
v -10.5 0 1.5
v -9.5 0 1.5
v -8.5 0 1.5
v -7.5 0 1.5
v -0.5 0 1.5
v 0.5 0 1.5
v 4.5 0 1.5
v 5.5 0 1.5
v 9.5 0 1.5
v 10.5 0 1.5
v -0.5 0 0.5
v 0.5 0 0.5
v 4.5 0 0.5
v 5.5 0 0.5
v 6.5 0 0.5
v -8.5 0 -0.5
v -7.5 0 -0.5
v -6.5 0 -0.5
v -0.5 0 -0.5
v 0.5 0 -0.5
v 5.5 0 -0.5
v 6.5 0 -0.5
v -10.5 0 -1.5
v -9.5 0 -1.5
v -7.5 0 -1.5
v -6.5 0 -1.5
v -0.5 0 -1.5
v 0.5 0 -1.5
v 9.5 0 -1.5
v 10.5 0 -1.5
v -9.5 1 1.5
v -8.5 1 1.5
v -7.5 1 1.5
v -0.5 1 1.5
v 0.5 1 1.5
v 4.5 1 1.5
v 5.5 1 1.5
v 9.5 1 1.5
v -0.5 1 0.5
v 0.5 1 0.5
v 4.5 1 0.5
v 5.5 1 0.5
v 6.5 1 0.5
v -8.5 1 -0.5
v -7.5 1 -0.5
v -6.5 1 -0.5
v -0.5 1 -0.5
v 0.5 1 -0.5
v 5.5 1 -0.5
v 6.5 1 -0.5
v -9.5 1 -1.5
v -7.5 1 -1.5
v -6.5 1 -1.5
v -0.5 1 -1.5
v 0.5 1 -1.5
v 9.5 1 -1.5
v -10.5 2 1.5
v -9.5 2 1.5
v 9.5 2 1.5
v 10.5 2 1.5
v -10.5 2 -1.5
v -9.5 2 -1.5
v 9.5 2 -1.5
v 10.5 2 -1.5

# faces
f 3/1/1 2/1/1 1/1/1
f 4/1/1 2/1/1 3/1/1
f 7/1/1 6/1/1 5/1/1
f 8/1/1 6/1/1 7/1/1
f 9/1/2 10/1/2 11/1/2
f 11/1/2 10/1/2 12/1/2
f 13/1/2 14/1/2 15/1/2
f 15/1/2 14/1/2 16/1/2
f 19/1/3 18/1/3 17/1/3
f 20/1/3 18/1/3 19/1/3
f 21/1/3 18/1/3 20/1/3
f 22/4/3 20/4/3 19/4/3
f 23/4/3 20/4/3 22/4/3
f 24/3/3 23/3/3 22/3/3
f 25/3/3 23/3/3 24/3/3
f 26/4/3 25/4/3 24/4/3
f 27/4/3 25/4/3 26/4/3
f 28/2/3 27/2/3 26/2/3
f 29/2/3 27/2/3 28/2/3
f 30/4/3 29/4/3 28/4/3
f 31/4/3 29/4/3 30/4/3
f 32/3/3 31/3/3 30/3/3
f 33/3/3 31/3/3 32/3/3
f 34/4/3 33/4/3 32/4/3
f 35/4/3 33/4/3 34/4/3
f 37/1/3 35/1/3 34/1/3
f 37/1/3 36/1/3 35/1/3
f 38/1/3 36/1/3 37/1/3
f 39/1/4 40/1/4 41/1/4
f 41/1/4 40/1/4 42/1/4
f 42/1/4 40/1/4 43/1/4
f 41/4/4 42/4/4 44/4/4
f 44/4/4 42/4/4 45/4/4
f 44/3/4 45/3/4 46/3/4
f 46/3/4 45/3/4 47/3/4
f 46/4/4 47/4/4 48/4/4
f 48/4/4 47/4/4 49/4/4
f 48/2/4 49/2/4 50/2/4
f 50/2/4 49/2/4 51/2/4
f 50/4/4 51/4/4 52/4/4
f 52/4/4 51/4/4 53/4/4
f 52/1/4 53/1/4 55/1/4
f 53/1/4 54/1/4 55/1/4
f 55/1/4 54/1/4 56/1/4
f 67/4/5 61/4/5 60/4/5
f 67/2/5 62/2/5 61/2/5
f 68/4/5 63/4/5 62/4/5
f 68/2/5 62/2/5 67/2/5
f 69/3/5 64/3/5 63/3/5
f 69/4/5 63/4/5 68/4/5
f 70/4/5 65/4/5 64/4/5
f 70/3/5 64/3/5 69/3/5
f 71/4/5 65/4/5 70/4/5
f 72/4/5 59/4/5 58/4/5
f 72/3/5 60/3/5 59/3/5
f 73/4/5 69/4/5 68/4/5
f 73/3/5 60/3/5 72/3/5
f 73/4/5 67/4/5 60/4/5
f 73/4/5 70/4/5 69/4/5
f 73/4/5 68/4/5 67/4/5
f 74/4/5 70/4/5 73/4/5
f 75/4/5 70/4/5 74/4/5
f 76/4/5 70/4/5 75/4/5
f 77/3/5 71/3/5 70/3/5
f 77/4/5 70/4/5 76/4/5
f 78/4/5 65/4/5 71/4/5
f 78/3/5 71/3/5 77/3/5
f 79/1/5 58/1/5 57/1/5
f 80/4/5 72/4/5 58/4/5
f 80/1/5 58/1/5 79/1/5
f 80/4/5 73/4/5 72/4/5
f 81/3/5 74/3/5 73/3/5
f 81/4/5 73/4/5 80/4/5
f 82/4/5 75/4/5 74/4/5
f 82/3/5 74/3/5 81/3/5
f 83/2/5 76/2/5 75/2/5
f 83/4/5 75/4/5 82/4/5
f 84/4/5 77/4/5 76/4/5
f 84/2/5 76/2/5 83/2/5
f 84/4/5 78/4/5 77/4/5
f 85/4/5 65/4/5 78/4/5
f 85/4/5 78/4/5 84/4/5
f 85/1/5 66/1/5 65/1/5
f 86/1/5 66/1/5 85/1/5
f 89/4/6 90/4/6 95/4/6
f 90/2/6 91/2/6 95/2/6
f 91/4/6 92/4/6 96/4/6
f 95/2/6 91/2/6 96/2/6
f 92/3/6 93/3/6 97/3/6
f 96/4/6 92/4/6 97/4/6
f 93/4/6 94/4/6 98/4/6
f 97/3/6 93/3/6 98/3/6
f 98/4/6 94/4/6 99/4/6
f 87/4/6 88/4/6 100/4/6
f 88/3/6 89/3/6 100/3/6
f 96/4/6 97/4/6 101/4/6
f 100/3/6 89/3/6 101/3/6
f 95/4/6 96/4/6 101/4/6
f 97/4/6 98/4/6 101/4/6
f 89/4/6 95/4/6 101/4/6
f 101/4/6 98/4/6 102/4/6
f 102/4/6 98/4/6 103/4/6
f 103/4/6 98/4/6 104/4/6
f 98/3/6 99/3/6 105/3/6
f 104/4/6 98/4/6 105/4/6
f 99/4/6 94/4/6 106/4/6
f 105/3/6 99/3/6 106/3/6
f 87/4/6 100/4/6 107/4/6
f 100/4/6 101/4/6 107/4/6
f 101/3/6 102/3/6 108/3/6
f 107/4/6 101/4/6 108/4/6
f 102/4/6 103/4/6 109/4/6
f 108/3/6 102/3/6 109/3/6
f 103/2/6 104/2/6 110/2/6
f 109/4/6 103/4/6 110/4/6
f 104/4/6 105/4/6 111/4/6
f 110/2/6 104/2/6 111/2/6
f 105/4/6 106/4/6 111/4/6
f 106/4/6 94/4/6 112/4/6
f 111/4/6 106/4/6 112/4/6
f 113/1/6 114/1/6 117/1/6
f 117/1/6 114/1/6 118/1/6
f 115/1/6 116/1/6 119/1/6
f 119/1/6 116/1/6 120/1/6
