# MagicaVoxel @ Ephtracy

# group
g road5

# material
mtllib road5.mtl
usemtl palette

# normals
vn -1 0 0
vn 1 0 0
vn 0 0 1
vn 0 0 -1
vn 0 -1 0
vn 0 1 0

# texcoords
vt 0.900391 0.5
vt 0.904297 0.5
vt 0.962891 0.5
vt 0.966797 0.5

# verts
v -10.5 0 7.5
v -10.5 0 -7.5
v -10.5 1 2.5
v -10.5 1 -2.5
v -10.5 2 7.5
v -10.5 2 2.5
v -10.5 2 -2.5
v -10.5 2 -7.5
v 9.5 1 7.5
v 9.5 1 2.5
v 9.5 1 -2.5
v 9.5 1 -7.5
v 9.5 2 7.5
v 9.5 2 2.5
v 9.5 2 -2.5
v 9.5 2 -7.5
v -9.5 1 7.5
v -9.5 1 2.5
v -9.5 1 -2.5
v -9.5 1 -7.5
v -9.5 2 7.5
v -9.5 2 2.5
v -9.5 2 -2.5
v -9.5 2 -7.5
v 10.5 0 7.5
v 10.5 0 -7.5
v 10.5 1 2.5
v 10.5 1 -2.5
v 10.5 2 7.5
v 10.5 2 2.5
v 10.5 2 -2.5
v 10.5 2 -7.5
v -10.5 0 7.5
v -10.5 2 7.5
v -9.5 0 7.5
v -9.5 1 7.5
v -9.5 2 7.5
v -0.5 0 7.5
v -0.5 1 7.5
v 0.5 0 7.5
v 0.5 1 7.5
v 9.5 0 7.5
v 9.5 1 7.5
v 9.5 2 7.5
v 10.5 0 7.5
v 10.5 2 7.5
v -10.5 1 -2.5
v -10.5 2 -2.5
v -9.5 1 -2.5
v -9.5 2 -2.5
v 9.5 1 -2.5
v 9.5 2 -2.5
v 10.5 1 -2.5
v 10.5 2 -2.5
v -10.5 1 2.5
v -10.5 2 2.5
v -9.5 1 2.5
v -9.5 2 2.5
v 9.5 1 2.5
v 9.5 2 2.5
v 10.5 1 2.5
v 10.5 2 2.5
v -10.5 0 -7.5
v -10.5 2 -7.5
v -9.5 0 -7.5
v -9.5 1 -7.5
v -9.5 2 -7.5
v -7.5 0 -7.5
v -7.5 1 -7.5
v -6.5 0 -7.5
v -6.5 1 -7.5
v -0.5 0 -7.5
v -0.5 1 -7.5
v 0.5 0 -7.5
v 0.5 1 -7.5
v 9.5 0 -7.5
v 9.5 1 -7.5
v 9.5 2 -7.5
v 10.5 0 -7.5
v 10.5 2 -7.5
v -10.5 0 7.5
v -9.5 0 7.5
v -0.5 0 7.5
v 0.5 0 7.5
v 9.5 0 7.5
v 10.5 0 7.5
v -4.5 0 6.5
v -3.5 0 6.5
v -0.5 0 6.5
v 0.5 0 6.5
v -0.5 0 5.5
v 0.5 0 5.5
v -5.5 0 3.5
v -4.5 0 3.5
v -3.5 0 3.5
v -0.5 0 3.5
v 0.5 0 3.5
v 5.5 0 3.5
v 6.5 0 3.5
v -9.5 0 2.5
v -7.5 0 2.5
v -5.5 0 2.5
v -4.5 0 2.5
v -3.5 0 2.5
v -1.5 0 2.5
v 0.5 0 2.5
v 2.5 0 2.5
v 4.5 0 2.5
v 6.5 0 2.5
v 8.5 0 2.5
v 4.5 0 1.5
v 5.5 0 1.5
v 6.5 0 1.5
v 4.5 0 -0.5
v 5.5 0 -0.5
v -9.5 0 -2.5
v -7.5 0 -2.5
v -5.5 0 -2.5
v -3.5 0 -2.5
v -1.5 0 -2.5
v 0.5 0 -2.5
v 2.5 0 -2.5
v 4.5 0 -2.5
v 6.5 0 -2.5
v 7.5 0 -2.5
v 8.5 0 -2.5
v -0.5 0 -3.5
v 0.5 0 -3.5
v 6.5 0 -3.5
v 7.5 0 -3.5
v 8.5 0 -3.5
v -8.5 0 -4.5
v -7.5 0 -4.5
v -0.5 0 -5.5
v 0.5 0 -5.5
v 7.5 0 -5.5
v 8.5 0 -5.5
v -8.5 0 -6.5
v -7.5 0 -6.5
v -6.5 0 -6.5
v -0.5 0 -6.5
v 0.5 0 -6.5
v -10.5 0 -7.5
v -9.5 0 -7.5
v -7.5 0 -7.5
v -6.5 0 -7.5
v -0.5 0 -7.5
v 0.5 0 -7.5
v 9.5 0 -7.5
v 10.5 0 -7.5
v -9.5 1 7.5
v -0.5 1 7.5
v 0.5 1 7.5
v 9.5 1 7.5
v -4.5 1 6.5
v -3.5 1 6.5
v -0.5 1 6.5
v 0.5 1 6.5
v -0.5 1 5.5
v 0.5 1 5.5
v -5.5 1 3.5
v -4.5 1 3.5
v -3.5 1 3.5
v -0.5 1 3.5
v 0.5 1 3.5
v 5.5 1 3.5
v 6.5 1 3.5
v -10.5 1 2.5
v -9.5 1 2.5
v -7.5 1 2.5
v -5.5 1 2.5
v -4.5 1 2.5
v -3.5 1 2.5
v -1.5 1 2.5
v 0.5 1 2.5
v 2.5 1 2.5
v 4.5 1 2.5
v 6.5 1 2.5
v 8.5 1 2.5
v 9.5 1 2.5
v 10.5 1 2.5
v 4.5 1 1.5
v 5.5 1 1.5
v 6.5 1 1.5
v 4.5 1 -0.5
v 5.5 1 -0.5
v -10.5 1 -2.5
v -9.5 1 -2.5
v -7.5 1 -2.5
v -5.5 1 -2.5
v -3.5 1 -2.5
v -1.5 1 -2.5
v 0.5 1 -2.5
v 2.5 1 -2.5
v 4.5 1 -2.5
v 6.5 1 -2.5
v 7.5 1 -2.5
v 8.5 1 -2.5
v 9.5 1 -2.5
v 10.5 1 -2.5
v -0.5 1 -3.5
v 0.5 1 -3.5
v 6.5 1 -3.5
v 7.5 1 -3.5
v 8.5 1 -3.5
v -8.5 1 -4.5
v -7.5 1 -4.5
v -0.5 1 -5.5
v 0.5 1 -5.5
v 7.5 1 -5.5
v 8.5 1 -5.5
v -8.5 1 -6.5
v -7.5 1 -6.5
v -6.5 1 -6.5
v -0.5 1 -6.5
v 0.5 1 -6.5
v -9.5 1 -7.5
v -7.5 1 -7.5
v -6.5 1 -7.5
v -0.5 1 -7.5
v 0.5 1 -7.5
v 9.5 1 -7.5
v -10.5 2 7.5
v -9.5 2 7.5
v 9.5 2 7.5
v 10.5 2 7.5
v -10.5 2 2.5
v -9.5 2 2.5
v 9.5 2 2.5
v 10.5 2 2.5
v -10.5 2 -2.5
v -9.5 2 -2.5
v 9.5 2 -2.5
v 10.5 2 -2.5
v -10.5 2 -7.5
v -9.5 2 -7.5
v 9.5 2 -7.5
v 10.5 2 -7.5

# faces
f 3/1/1 2/1/1 1/1/1
f 4/1/1 2/1/1 3/1/1
f 5/1/1 3/1/1 1/1/1
f 6/1/1 3/1/1 5/1/1
f 7/1/1 2/1/1 4/1/1
f 8/1/1 2/1/1 7/1/1
f 13/1/1 10/1/1 9/1/1
f 14/1/1 10/1/1 13/1/1
f 15/1/1 12/1/1 11/1/1
f 16/1/1 12/1/1 15/1/1
f 17/1/2 18/1/2 21/1/2
f 21/1/2 18/1/2 22/1/2
f 19/1/2 20/1/2 23/1/2
f 23/1/2 20/1/2 24/1/2
f 25/1/2 26/1/2 27/1/2
f 27/1/2 26/1/2 28/1/2
f 25/1/2 27/1/2 29/1/2
f 29/1/2 27/1/2 30/1/2
f 28/1/2 26/1/2 31/1/2
f 31/1/2 26/1/2 32/1/2
f 35/1/3 34/1/3 33/1/3
f 36/1/3 34/1/3 35/1/3
f 37/1/3 34/1/3 36/1/3
f 38/4/3 36/4/3 35/4/3
f 39/4/3 36/4/3 38/4/3
f 40/2/3 39/2/3 38/2/3
f 41/2/3 39/2/3 40/2/3
f 42/4/3 41/4/3 40/4/3
f 43/4/3 41/4/3 42/4/3
f 45/1/3 43/1/3 42/1/3
f 45/1/3 44/1/3 43/1/3
f 46/1/3 44/1/3 45/1/3
f 49/1/3 48/1/3 47/1/3
f 50/1/3 48/1/3 49/1/3
f 53/1/3 52/1/3 51/1/3
f 54/1/3 52/1/3 53/1/3
f 55/1/4 56/1/4 57/1/4
f 57/1/4 56/1/4 58/1/4
f 59/1/4 60/1/4 61/1/4
f 61/1/4 60/1/4 62/1/4
f 63/1/4 64/1/4 65/1/4
f 65/1/4 64/1/4 66/1/4
f 66/1/4 64/1/4 67/1/4
f 65/4/4 66/4/4 68/4/4
f 68/4/4 66/4/4 69/4/4
f 68/3/4 69/3/4 70/3/4
f 70/3/4 69/3/4 71/3/4
f 70/4/4 71/4/4 72/4/4
f 72/4/4 71/4/4 73/4/4
f 72/2/4 73/2/4 74/2/4
f 74/2/4 73/2/4 75/2/4
f 74/4/4 75/4/4 76/4/4
f 76/4/4 75/4/4 77/4/4
f 76/1/4 77/1/4 79/1/4
f 77/1/4 78/1/4 79/1/4
f 79/1/4 78/1/4 80/1/4
f 87/4/5 83/4/5 82/4/5
f 88/4/5 83/4/5 87/4/5
f 89/2/5 84/2/5 83/2/5
f 89/4/5 83/4/5 88/4/5
f 90/4/5 85/4/5 84/4/5
f 90/2/5 84/2/5 89/2/5
f 91/4/5 89/4/5 88/4/5
f 91/4/5 90/4/5 89/4/5
f 92/4/5 85/4/5 90/4/5
f 92/4/5 90/4/5 91/4/5
f 93/4/5 87/4/5 82/4/5
f 94/3/5 88/3/5 87/3/5
f 94/4/5 87/4/5 93/4/5
f 95/4/5 91/4/5 88/4/5
f 95/3/5 88/3/5 94/3/5
f 96/2/5 92/2/5 91/2/5
f 96/4/5 91/4/5 95/4/5
f 97/4/5 85/4/5 92/4/5
f 97/2/5 92/2/5 96/2/5
f 98/4/5 85/4/5 97/4/5
f 99/4/5 85/4/5 98/4/5
f 100/1/5 82/1/5 81/1/5
f 100/4/5 93/4/5 82/4/5
f 101/4/5 93/4/5 100/4/5
f 102/3/5 94/3/5 93/3/5
f 102/4/5 93/4/5 101/4/5
f 103/4/5 96/4/5 95/4/5
f 103/3/5 94/3/5 102/3/5
f 103/4/5 95/4/5 94/4/5
f 103/4/5 97/4/5 96/4/5
f 103/4/5 98/4/5 97/4/5
f 104/4/5 98/4/5 103/4/5
f 105/4/5 98/4/5 104/4/5
f 106/4/5 98/4/5 105/4/5
f 107/4/5 98/4/5 106/4/5
f 108/4/5 98/4/5 107/4/5
f 109/4/5 85/4/5 99/4/5
f 109/3/5 99/3/5 98/3/5
f 110/4/5 85/4/5 109/4/5
f 111/4/5 98/4/5 108/4/5
f 111/2/5 108/2/5 107/2/5
f 112/3/5 109/3/5 98/3/5
f 112/4/5 98/4/5 111/4/5
f 113/2/5 110/2/5 109/2/5
f 113/3/5 109/3/5 112/3/5
f 114/3/5 112/3/5 111/3/5
f 114/2/5 111/2/5 107/2/5
f 115/4/5 113/4/5 112/4/5
f 115/3/5 112/3/5 114/3/5
f 116/2/5 101/2/5 100/2/5
f 116/1/5 100/1/5 81/1/5
f 117/4/5 102/4/5 101/4/5
f 117/2/5 101/2/5 116/2/5
f 118/2/5 103/2/5 102/2/5
f 118/4/5 102/4/5 117/4/5
f 118/2/5 104/2/5 103/2/5
f 119/4/5 105/4/5 104/4/5
f 119/2/5 104/2/5 118/2/5
f 120/2/5 106/2/5 105/2/5
f 120/4/5 105/4/5 119/4/5
f 121/4/5 107/4/5 106/4/5
f 121/2/5 106/2/5 120/2/5
f 122/2/5 114/2/5 107/2/5
f 122/4/5 107/4/5 121/4/5
f 123/4/5 115/4/5 114/4/5
f 123/2/5 114/2/5 122/2/5
f 124/2/5 110/2/5 113/2/5
f 124/4/5 115/4/5 123/4/5
f 124/4/5 113/4/5 115/4/5
f 125/2/5 110/2/5 124/2/5
f 126/4/5 85/4/5 110/4/5
f 126/2/5 110/2/5 125/2/5
f 127/4/5 123/4/5 122/4/5
f 127/4/5 120/4/5 119/4/5
f 127/4/5 122/4/5 121/4/5
f 127/4/5 124/4/5 123/4/5
f 127/4/5 119/4/5 118/4/5
f 127/4/5 118/4/5 117/4/5
f 127/4/5 121/4/5 120/4/5
f 127/4/5 117/4/5 116/4/5
f 128/4/5 124/4/5 127/4/5
f 129/3/5 125/3/5 124/3/5
f 129/4/5 124/4/5 128/4/5
f 130/4/5 126/4/5 125/4/5
f 130/3/5 125/3/5 129/3/5
f 131/4/5 85/4/5 126/4/5
f 131/4/5 126/4/5 130/4/5
f 132/4/5 127/4/5 116/4/5
f 133/4/5 127/4/5 132/4/5
f 134/2/5 128/2/5 127/2/5
f 134/4/5 127/4/5 133/4/5
f 135/4/5 130/4/5 129/4/5
f 135/2/5 128/2/5 134/2/5
f 135/4/5 129/4/5 128/4/5
f 136/3/5 131/3/5 130/3/5
f 136/4/5 130/4/5 135/4/5
f 137/4/5 85/4/5 131/4/5
f 137/3/5 131/3/5 136/3/5
f 138/3/5 133/3/5 132/3/5
f 138/4/5 132/4/5 116/4/5
f 139/4/5 134/4/5 133/4/5
f 139/3/5 133/3/5 138/3/5
f 139/4/5 137/4/5 136/4/5
f 139/4/5 135/4/5 134/4/5
f 139/4/5 136/4/5 135/4/5
f 140/4/5 137/4/5 139/4/5
f 141/4/5 137/4/5 140/4/5
f 142/4/5 137/4/5 141/4/5
f 143/1/5 116/1/5 81/1/5
f 144/4/5 138/4/5 116/4/5
f 144/1/5 116/1/5 143/1/5
f 144/4/5 139/4/5 138/4/5
f 145/3/5 140/3/5 139/3/5
f 145/4/5 139/4/5 144/4/5
f 146/4/5 141/4/5 140/4/5
f 146/3/5 140/3/5 145/3/5
f 147/2/5 142/2/5 141/2/5
f 147/4/5 141/4/5 146/4/5
f 148/4/5 137/4/5 142/4/5
f 148/2/5 142/2/5 147/2/5
f 149/4/5 85/4/5 137/4/5
f 149/4/5 137/4/5 148/4/5
f 149/1/5 86/1/5 85/1/5
f 150/1/5 86/1/5 149/1/5
f 151/4/6 152/4/6 155/4/6
f 155/4/6 152/4/6 156/4/6
f 152/2/6 153/2/6 157/2/6
f 156/4/6 152/4/6 157/4/6
f 153/4/6 154/4/6 158/4/6
f 157/2/6 153/2/6 158/2/6
f 156/4/6 157/4/6 159/4/6
f 157/4/6 158/4/6 159/4/6
f 158/4/6 154/4/6 160/4/6
f 159/4/6 158/4/6 160/4/6
f 151/4/6 155/4/6 161/4/6
f 155/3/6 156/3/6 162/3/6
f 161/4/6 155/4/6 162/4/6
f 156/4/6 159/4/6 163/4/6
f 162/3/6 156/3/6 163/3/6
f 159/2/6 160/2/6 164/2/6
f 163/4/6 159/4/6 164/4/6
f 160/4/6 154/4/6 165/4/6
f 164/2/6 160/2/6 165/2/6
f 165/4/6 154/4/6 166/4/6
f 166/4/6 154/4/6 167/4/6
f 151/4/6 161/4/6 169/4/6
f 169/4/6 161/4/6 170/4/6
f 161/3/6 162/3/6 171/3/6
f 170/4/6 161/4/6 171/4/6
f 163/4/6 164/4/6 172/4/6
f 171/3/6 162/3/6 172/3/6
f 162/4/6 163/4/6 172/4/6
f 164/4/6 165/4/6 172/4/6
f 165/4/6 166/4/6 172/4/6
f 172/4/6 166/4/6 173/4/6
f 173/4/6 166/4/6 174/4/6
f 174/4/6 166/4/6 175/4/6
f 175/4/6 166/4/6 176/4/6
f 176/4/6 166/4/6 177/4/6
f 167/4/6 154/4/6 178/4/6
f 166/3/6 167/3/6 178/3/6
f 178/4/6 154/4/6 179/4/6
f 179/4/6 154/4/6 180/4/6
f 177/4/6 166/4/6 182/4/6
f 176/2/6 177/2/6 182/2/6
f 166/3/6 178/3/6 183/3/6
f 182/4/6 166/4/6 183/4/6
f 178/2/6 179/2/6 184/2/6
f 183/3/6 178/3/6 184/3/6
f 176/2/6 182/2/6 185/2/6
f 182/3/6 183/3/6 185/3/6
f 183/4/6 184/4/6 186/4/6
f 185/3/6 183/3/6 186/3/6
f 168/1/6 169/1/6 187/1/6
f 169/2/6 170/2/6 188/2/6
f 187/1/6 169/1/6 188/1/6
f 170/4/6 171/4/6 189/4/6
f 188/2/6 170/2/6 189/2/6
f 171/2/6 172/2/6 190/2/6
f 189/4/6 171/4/6 190/4/6
f 172/2/6 173/2/6 190/2/6
f 173/4/6 174/4/6 191/4/6
f 190/2/6 173/2/6 191/2/6
f 174/2/6 175/2/6 192/2/6
f 191/4/6 174/4/6 192/4/6
f 175/4/6 176/4/6 193/4/6
f 192/2/6 175/2/6 193/2/6
f 176/2/6 185/2/6 194/2/6
f 193/4/6 176/4/6 194/4/6
f 185/4/6 186/4/6 195/4/6
f 194/2/6 185/2/6 195/2/6
f 186/4/6 184/4/6 196/4/6
f 195/4/6 186/4/6 196/4/6
f 184/2/6 179/2/6 196/2/6
f 196/2/6 179/2/6 197/2/6
f 179/4/6 180/4/6 198/4/6
f 197/2/6 179/2/6 198/2/6
f 180/1/6 181/1/6 199/1/6
f 198/4/6 180/4/6 199/4/6
f 199/1/6 181/1/6 200/1/6
f 194/4/6 195/4/6 201/4/6
f 188/4/6 189/4/6 201/4/6
f 195/4/6 196/4/6 201/4/6
f 192/4/6 193/4/6 201/4/6
f 191/4/6 192/4/6 201/4/6
f 190/4/6 191/4/6 201/4/6
f 189/4/6 190/4/6 201/4/6
f 193/4/6 194/4/6 201/4/6
f 201/4/6 196/4/6 202/4/6
f 196/3/6 197/3/6 203/3/6
f 202/4/6 196/4/6 203/4/6
f 197/4/6 198/4/6 204/4/6
f 203/3/6 197/3/6 204/3/6
f 198/4/6 199/4/6 204/4/6
f 204/4/6 199/4/6 205/4/6
f 188/4/6 201/4/6 206/4/6
f 206/4/6 201/4/6 207/4/6
f 201/2/6 202/2/6 208/2/6
f 207/4/6 201/4/6 208/4/6
f 202/4/6 203/4/6 209/4/6
f 208/2/6 202/2/6 209/2/6
f 203/4/6 204/4/6 209/4/6
f 204/3/6 205/3/6 210/3/6
f 209/4/6 204/4/6 210/4/6
f 205/4/6 199/4/6 211/4/6
f 210/3/6 205/3/6 211/3/6
f 206/3/6 207/3/6 212/3/6
f 188/4/6 206/4/6 212/4/6
f 207/4/6 208/4/6 213/4/6
f 212/3/6 207/3/6 213/3/6
f 209/4/6 210/4/6 213/4/6
f 208/4/6 209/4/6 213/4/6
f 210/4/6 211/4/6 213/4/6
f 213/4/6 211/4/6 214/4/6
f 214/4/6 211/4/6 215/4/6
f 215/4/6 211/4/6 216/4/6
f 188/4/6 212/4/6 217/4/6
f 212/4/6 213/4/6 217/4/6
f 213/3/6 214/3/6 218/3/6
f 217/4/6 213/4/6 218/4/6
f 214/4/6 215/4/6 219/4/6
f 218/3/6 214/3/6 219/3/6
f 215/2/6 216/2/6 220/2/6
f 219/4/6 215/4/6 220/4/6
f 216/4/6 211/4/6 221/4/6
f 220/2/6 216/2/6 221/2/6
f 211/4/6 199/4/6 222/4/6
f 221/4/6 211/4/6 222/4/6
f 223/1/6 224/1/6 227/1/6
f 227/1/6 224/1/6 228/1/6
f 225/1/6 226/1/6 229/1/6
f 229/1/6 226/1/6 230/1/6
f 231/1/6 232/1/6 235/1/6
f 235/1/6 232/1/6 236/1/6
f 233/1/6 234/1/6 237/1/6
f 237/1/6 234/1/6 238/1/6
