# MagicaVoxel @ Ephtracy

# group
g road2

# material
mtllib road2.mtl
usemtl palette

# normals
vn -1 0 0
vn 1 0 0
vn 0 0 1
vn 0 0 -1
vn 0 -1 0
vn 0 1 0

# texcoords
vt 0.900391 0.5
vt 0.904297 0.5
vt 0.962891 0.5
vt 0.966797 0.5

# verts
v -13 0 24
v -13 0 -8
v -13 2 24
v -13 2 -8
v -12 0 -8
v -12 0 -10
v -12 2 -8
v -12 2 -10
v -11 0 -10
v -11 0 -11
v -11 2 -10
v -11 2 -11
v -10 0 -11
v -10 0 -12
v -10 2 -11
v -10 2 -12
v -8 0 -12
v -8 0 -13
v -8 2 -12
v -8 2 -13
v 7 1 24
v 7 1 10
v 7 2 24
v 7 2 10
v 8 1 10
v 8 1 9
v 8 2 10
v 8 2 9
v 9 1 9
v 9 1 8
v 9 2 9
v 9 2 8
v 10 1 8
v 10 1 7
v 10 2 8
v 10 2 7
v -12 1 24
v -12 1 -6
v -12 1 -7
v -12 2 24
v -12 2 -7
v -11 1 -7
v -11 1 -9
v -11 2 -7
v -11 2 -9
v -10 1 -9
v -10 1 -10
v -10 2 -9
v -10 2 -10
v -9 1 -10
v -9 1 -11
v -9 2 -10
v -9 2 -11
v -7 1 -11
v -7 1 -12
v -7 2 -11
v -7 2 -12
v 8 0 24
v 8 0 11
v 8 2 24
v 8 2 11
v 9 0 11
v 9 0 10
v 9 2 11
v 9 2 10
v 10 0 10
v 10 0 9
v 10 2 10
v 10 2 9
v 11 0 9
v 11 0 8
v 11 2 9
v 11 2 8
v 24 0 8
v 24 0 7
v 24 0 -2
v 24 0 -3
v 24 0 -12
v 24 0 -13
v 24 1 7
v 24 1 -2
v 24 1 -3
v 24 1 -12
v 24 2 8
v 24 2 7
v 24 2 -12
v 24 2 -13
v -13 0 24
v -13 2 24
v -12 0 24
v -12 1 24
v -12 2 24
v -9 0 24
v -9 1 24
v -8 0 24
v -8 1 24
v -3 0 24
v -3 1 24
v -2 0 24
v -2 1 24
v 7 0 24
v 7 1 24
v 7 2 24
v 8 0 24
v 8 2 24
v 8 0 11
v 8 2 11
v 9 0 11
v 9 2 11
v 9 0 10
v 9 2 10
v 10 0 10
v 10 2 10
v 10 0 9
v 10 2 9
v 11 0 9
v 11 2 9
v 11 0 8
v 11 2 8
v 24 0 8
v 24 2 8
v -12 1 -7
v -12 2 -7
v -11 1 -7
v -11 2 -7
v -11 1 -9
v -11 2 -9
v -10 1 -9
v -10 2 -9
v -10 1 -10
v -10 2 -10
v -9 1 -10
v -9 2 -10
v -9 1 -11
v -9 2 -11
v -7 1 -11
v -7 2 -11
v -7 1 -12
v -7 2 -12
v 24 1 -12
v 24 2 -12
v 7 1 10
v 7 2 10
v 8 1 10
v 8 2 10
v 8 1 9
v 8 2 9
v 9 1 9
v 9 2 9
v 9 1 8
v 9 2 8
v 10 1 8
v 10 2 8
v 10 1 7
v 10 2 7
v 24 1 7
v 24 2 7
v -13 0 -8
v -13 2 -8
v -12 0 -8
v -12 2 -8
v -12 0 -10
v -12 2 -10
v -11 0 -10
v -11 2 -10
v -11 0 -11
v -11 2 -11
v -10 0 -11
v -10 2 -11
v -10 0 -12
v -10 2 -12
v -8 0 -12
v -8 2 -12
v -8 0 -13
v -8 2 -13
v 24 0 -13
v 24 2 -13
v -13 0 24
v -12 0 24
v -9 0 24
v -8 0 24
v -3 0 24
v -2 0 24
v 7 0 24
v 8 0 24
v -3 0 23
v -2 0 23
v -9 0 22
v -8 0 22
v -7 0 22
v -3 0 22
v -2 0 22
v -8 0 20
v -7 0 20
v -3 0 20
v -2 0 20
v -3 0 19
v -2 0 19
v -3 0 17
v -2 0 17
v -3 0 16
v -2 0 16
v -3 0 14
v -2 0 14
v -5 0 13
v -4 0 13
v -3 0 13
v -2 0 13
v -6 0 11
v -5 0 11
v -4 0 11
v -3 0 11
v -2 0 11
v 8 0 11
v 9 0 11
v -6 0 10
v -5 0 10
v -3 0 10
v -2 0 10
v 7 0 10
v 8 0 10
v 9 0 10
v 10 0 10
v 8 0 9
v 9 0 9
v 10 0 9
v 11 0 9
v -3 0 8
v -2 0 8
v 4 0 8
v 5 0 8
v 9 0 8
v 10 0 8
v 11 0 8
v 24 0 8
v -3 0 7
v -2 0 7
v 4 0 7
v 5 0 7
v 6 0 7
v 10 0 7
v 24 0 7
v -3 0 5
v -2 0 5
v 5 0 5
v 6 0 5
v -3 0 4
v -2 0 4
v 13 0 3
v 17 0 3
v -3 0 2
v -2 0 2
v 13 0 2
v 17 0 2
v -2 0 1
v -1 0 1
v -7 0 -0
v -6 0 -0
v -2 0 -0
v -1 0 -0
v 0 0 -0
v -7 0 -1
v -6 0 -1
v -5 0 -1
v -1 0 -1
v 0 0 -1
v 1 0 -1
v 20 0 -1
v 22 0 -1
v -6 0 -2
v -5 0 -2
v 0 0 -2
v 1 0 -2
v 2 0 -2
v 4 0 -2
v 5 0 -2
v 7 0 -2
v 8 0 -2
v 10 0 -2
v 11 0 -2
v 13 0 -2
v 14 0 -2
v 16 0 -2
v 17 0 -2
v 19 0 -2
v 20 0 -2
v 22 0 -2
v 23 0 -2
v 24 0 -2
v 2 0 -3
v 4 0 -3
v 5 0 -3
v 7 0 -3
v 8 0 -3
v 10 0 -3
v 11 0 -3
v 13 0 -3
v 14 0 -3
v 16 0 -3
v 17 0 -3
v 18 0 -3
v 19 0 -3
v 20 0 -3
v 22 0 -3
v 23 0 -3
v 24 0 -3
v 18 0 -4
v 19 0 -4
v -12 0 -6
v -11 0 -6
v 11 0 -6
v 12 0 -6
v -12 0 -7
v -11 0 -7
v -10 0 -7
v 11 0 -7
v 12 0 -7
v 13 0 -7
v -13 0 -8
v -12 0 -8
v -11 0 -9
v -10 0 -9
v -9 0 -9
v 12 0 -9
v 13 0 -9
v -12 0 -10
v -11 0 -10
v -10 0 -10
v -9 0 -10
v -11 0 -11
v -10 0 -11
v -9 0 -11
v -7 0 -11
v -10 0 -12
v -8 0 -12
v -7 0 -12
v 24 0 -12
v -8 0 -13
v 24 0 -13
v -12 1 24
v -9 1 24
v -8 1 24
v -3 1 24
v -2 1 24
v 7 1 24
v -3 1 23
v -2 1 23
v -9 1 22
v -8 1 22
v -7 1 22
v -3 1 22
v -2 1 22
v -8 1 20
v -7 1 20
v -3 1 20
v -2 1 20
v -3 1 19
v -2 1 19
v -3 1 17
v -2 1 17
v -3 1 16
v -2 1 16
v -3 1 14
v -2 1 14
v -5 1 13
v -4 1 13
v -3 1 13
v -2 1 13
v -6 1 11
v -5 1 11
v -4 1 11
v -3 1 11
v -2 1 11
v -6 1 10
v -5 1 10
v -3 1 10
v -2 1 10
v 7 1 10
v 8 1 10
v 8 1 9
v 9 1 9
v -3 1 8
v -2 1 8
v 4 1 8
v 5 1 8
v 9 1 8
v 10 1 8
v -3 1 7
v -2 1 7
v 4 1 7
v 5 1 7
v 6 1 7
v 10 1 7
v 24 1 7
v -3 1 5
v -2 1 5
v 5 1 5
v 6 1 5
v -3 1 4
v -2 1 4
v 13 1 3
v 17 1 3
v -3 1 2
v -2 1 2
v 13 1 2
v 17 1 2
v -2 1 1
v -1 1 1
v -7 1 -0
v -6 1 -0
v -2 1 -0
v -1 1 -0
v 0 1 -0
v -7 1 -1
v -6 1 -1
v -5 1 -1
v -1 1 -1
v 0 1 -1
v 1 1 -1
v 20 1 -1
v 22 1 -1
v -6 1 -2
v -5 1 -2
v 0 1 -2
v 1 1 -2
v 2 1 -2
v 4 1 -2
v 5 1 -2
v 7 1 -2
v 8 1 -2
v 10 1 -2
v 11 1 -2
v 13 1 -2
v 14 1 -2
v 16 1 -2
v 17 1 -2
v 19 1 -2
v 20 1 -2
v 22 1 -2
v 23 1 -2
v 24 1 -2
v 2 1 -3
v 4 1 -3
v 5 1 -3
v 7 1 -3
v 8 1 -3
v 10 1 -3
v 11 1 -3
v 13 1 -3
v 14 1 -3
v 16 1 -3
v 17 1 -3
v 18 1 -3
v 19 1 -3
v 20 1 -3
v 22 1 -3
v 23 1 -3
v 24 1 -3
v 18 1 -4
v 19 1 -4
v -12 1 -6
v -11 1 -6
v 11 1 -6
v 12 1 -6
v -12 1 -7
v -11 1 -7
v -10 1 -7
v 11 1 -7
v 12 1 -7
v 13 1 -7
v -11 1 -9
v -10 1 -9
v -9 1 -9
v 12 1 -9
v 13 1 -9
v -10 1 -10
v -9 1 -10
v -9 1 -11
v -7 1 -11
v -7 1 -12
v 24 1 -12
v -13 2 24
v -12 2 24
v 7 2 24
v 8 2 24
v 8 2 11
v 9 2 11
v 7 2 10
v 8 2 10
v 9 2 10
v 10 2 10
v 8 2 9
v 9 2 9
v 10 2 9
v 11 2 9
v 9 2 8
v 10 2 8
v 11 2 8
v 24 2 8
v 10 2 7
v 24 2 7
v -12 2 -7
v -11 2 -7
v -13 2 -8
v -12 2 -8
v -11 2 -9
v -10 2 -9
v -12 2 -10
v -11 2 -10
v -10 2 -10
v -9 2 -10
v -11 2 -11
v -10 2 -11
v -9 2 -11
v -7 2 -11
v -10 2 -12
v -8 2 -12
v -7 2 -12
v 24 2 -12
v -8 2 -13
v 24 2 -13

# faces
f 3/1/1 2/1/1 1/1/1
f 4/1/1 2/1/1 3/1/1
f 7/1/1 6/1/1 5/1/1
f 8/1/1 6/1/1 7/1/1
f 11/1/1 10/1/1 9/1/1
f 12/1/1 10/1/1 11/1/1
f 15/1/1 14/1/1 13/1/1
f 16/1/1 14/1/1 15/1/1
f 19/1/1 18/1/1 17/1/1
f 20/1/1 18/1/1 19/1/1
f 23/1/1 22/1/1 21/1/1
f 24/1/1 22/1/1 23/1/1
f 27/1/1 26/1/1 25/1/1
f 28/1/1 26/1/1 27/1/1
f 31/1/1 30/1/1 29/1/1
f 32/1/1 30/1/1 31/1/1
f 35/1/1 34/1/1 33/1/1
f 36/1/1 34/1/1 35/1/1
f 37/1/2 38/1/2 40/1/2
f 38/1/2 39/1/2 40/1/2
f 40/1/2 39/1/2 41/1/2
f 42/1/2 43/1/2 44/1/2
f 44/1/2 43/1/2 45/1/2
f 46/1/2 47/1/2 48/1/2
f 48/1/2 47/1/2 49/1/2
f 50/1/2 51/1/2 52/1/2
f 52/1/2 51/1/2 53/1/2
f 54/1/2 55/1/2 56/1/2
f 56/1/2 55/1/2 57/1/2
f 58/1/2 59/1/2 60/1/2
f 60/1/2 59/1/2 61/1/2
f 62/1/2 63/1/2 64/1/2
f 64/1/2 63/1/2 65/1/2
f 66/1/2 67/1/2 68/1/2
f 68/1/2 67/1/2 69/1/2
f 70/1/2 71/1/2 72/1/2
f 72/1/2 71/1/2 73/1/2
f 74/1/2 75/1/2 80/1/2
f 75/4/2 76/4/2 80/4/2
f 76/2/2 77/2/2 81/2/2
f 80/4/2 76/4/2 81/4/2
f 77/4/2 78/4/2 82/4/2
f 81/2/2 77/2/2 82/2/2
f 78/1/2 79/1/2 83/1/2
f 82/4/2 78/4/2 83/4/2
f 74/1/2 80/1/2 84/1/2
f 84/1/2 80/1/2 85/1/2
f 83/1/2 79/1/2 86/1/2
f 86/1/2 79/1/2 87/1/2
f 90/1/3 89/1/3 88/1/3
f 91/1/3 89/1/3 90/1/3
f 92/1/3 89/1/3 91/1/3
f 93/4/3 91/4/3 90/4/3
f 94/4/3 91/4/3 93/4/3
f 95/3/3 94/3/3 93/3/3
f 96/3/3 94/3/3 95/3/3
f 97/4/3 96/4/3 95/4/3
f 98/4/3 96/4/3 97/4/3
f 99/2/3 98/2/3 97/2/3
f 100/2/3 98/2/3 99/2/3
f 101/4/3 100/4/3 99/4/3
f 102/4/3 100/4/3 101/4/3
f 104/1/3 102/1/3 101/1/3
f 104/1/3 103/1/3 102/1/3
f 105/1/3 103/1/3 104/1/3
f 108/1/3 107/1/3 106/1/3
f 109/1/3 107/1/3 108/1/3
f 112/1/3 111/1/3 110/1/3
f 113/1/3 111/1/3 112/1/3
f 116/1/3 115/1/3 114/1/3
f 117/1/3 115/1/3 116/1/3
f 120/1/3 119/1/3 118/1/3
f 121/1/3 119/1/3 120/1/3
f 124/1/3 123/1/3 122/1/3
f 125/1/3 123/1/3 124/1/3
f 128/1/3 127/1/3 126/1/3
f 129/1/3 127/1/3 128/1/3
f 132/1/3 131/1/3 130/1/3
f 133/1/3 131/1/3 132/1/3
f 136/1/3 135/1/3 134/1/3
f 137/1/3 135/1/3 136/1/3
f 140/1/3 139/1/3 138/1/3
f 141/1/3 139/1/3 140/1/3
f 142/1/4 143/1/4 144/1/4
f 144/1/4 143/1/4 145/1/4
f 146/1/4 147/1/4 148/1/4
f 148/1/4 147/1/4 149/1/4
f 150/1/4 151/1/4 152/1/4
f 152/1/4 151/1/4 153/1/4
f 154/1/4 155/1/4 156/1/4
f 156/1/4 155/1/4 157/1/4
f 158/1/4 159/1/4 160/1/4
f 160/1/4 159/1/4 161/1/4
f 162/1/4 163/1/4 164/1/4
f 164/1/4 163/1/4 165/1/4
f 166/1/4 167/1/4 168/1/4
f 168/1/4 167/1/4 169/1/4
f 170/1/4 171/1/4 172/1/4
f 172/1/4 171/1/4 173/1/4
f 174/1/4 175/1/4 176/1/4
f 176/1/4 175/1/4 177/1/4
f 186/4/5 182/4/5 181/4/5
f 186/2/5 183/2/5 182/2/5
f 187/4/5 184/4/5 183/4/5
f 187/2/5 183/2/5 186/2/5
f 188/4/5 180/4/5 179/4/5
f 188/3/5 181/3/5 180/3/5
f 189/4/5 187/4/5 186/4/5
f 189/3/5 181/3/5 188/3/5
f 189/4/5 186/4/5 181/4/5
f 190/4/5 187/4/5 189/4/5
f 191/4/5 187/4/5 190/4/5
f 192/4/5 184/4/5 187/4/5
f 192/4/5 187/4/5 191/4/5
f 193/4/5 189/4/5 188/4/5
f 193/3/5 190/3/5 189/3/5
f 194/4/5 191/4/5 190/4/5
f 194/3/5 190/3/5 193/3/5
f 195/2/5 192/2/5 191/2/5
f 195/4/5 191/4/5 194/4/5
f 196/4/5 184/4/5 192/4/5
f 196/2/5 192/2/5 195/2/5
f 197/4/5 195/4/5 194/4/5
f 197/4/5 194/4/5 193/4/5
f 197/4/5 196/4/5 195/4/5
f 198/4/5 184/4/5 196/4/5
f 198/4/5 196/4/5 197/4/5
f 199/4/5 197/4/5 193/4/5
f 199/2/5 198/2/5 197/2/5
f 200/4/5 184/4/5 198/4/5
f 200/2/5 198/2/5 199/2/5
f 201/4/5 199/4/5 193/4/5
f 201/4/5 200/4/5 199/4/5
f 202/4/5 184/4/5 200/4/5
f 202/4/5 200/4/5 201/4/5
f 203/4/5 201/4/5 193/4/5
f 203/2/5 202/2/5 201/2/5
f 204/4/5 184/4/5 202/4/5
f 204/2/5 202/2/5 203/2/5
f 205/4/5 203/4/5 193/4/5
f 205/4/5 204/4/5 203/4/5
f 206/4/5 204/4/5 205/4/5
f 207/4/5 204/4/5 206/4/5
f 208/4/5 184/4/5 204/4/5
f 208/4/5 204/4/5 207/4/5
f 209/4/5 205/4/5 193/4/5
f 210/3/5 206/3/5 205/3/5
f 210/4/5 205/4/5 209/4/5
f 211/4/5 207/4/5 206/4/5
f 211/3/5 206/3/5 210/3/5
f 212/2/5 208/2/5 207/2/5
f 212/4/5 207/4/5 211/4/5
f 213/4/5 184/4/5 208/4/5
f 213/2/5 208/2/5 212/2/5
f 214/1/5 185/1/5 184/1/5
f 216/3/5 210/3/5 209/3/5
f 216/4/5 209/4/5 193/4/5
f 217/4/5 212/4/5 211/4/5
f 217/3/5 210/3/5 216/3/5
f 217/4/5 211/4/5 210/4/5
f 217/4/5 213/4/5 212/4/5
f 218/4/5 213/4/5 217/4/5
f 219/4/5 184/4/5 213/4/5
f 219/4/5 213/4/5 218/4/5
f 220/1/5 215/1/5 214/1/5
f 220/4/5 184/4/5 219/4/5
f 220/1/5 214/1/5 184/1/5
f 221/1/5 215/1/5 220/1/5
f 222/1/5 215/1/5 221/1/5
f 224/4/5 220/4/5 219/4/5
f 224/1/5 223/1/5 222/1/5
f 224/1/5 222/1/5 221/1/5
f 224/4/5 221/4/5 220/4/5
f 225/1/5 223/1/5 224/1/5
f 226/1/5 223/1/5 225/1/5
f 228/4/5 218/4/5 217/4/5
f 228/2/5 219/2/5 218/2/5
f 228/4/5 217/4/5 216/4/5
f 229/4/5 225/4/5 224/4/5
f 229/2/5 219/2/5 228/2/5
f 229/4/5 224/4/5 219/4/5
f 230/4/5 225/4/5 229/4/5
f 231/4/5 225/4/5 230/4/5
f 232/1/5 227/1/5 226/1/5
f 232/4/5 225/4/5 231/4/5
f 232/1/5 226/1/5 225/1/5
f 233/1/5 227/1/5 232/1/5
f 234/1/5 227/1/5 233/1/5
f 236/4/5 230/4/5 229/4/5
f 236/4/5 228/4/5 216/4/5
f 236/4/5 229/4/5 228/4/5
f 237/4/5 230/4/5 236/4/5
f 238/3/5 231/3/5 230/3/5
f 238/4/5 230/4/5 237/4/5
f 239/4/5 233/4/5 232/4/5
f 239/3/5 231/3/5 238/3/5
f 239/4/5 232/4/5 231/4/5
f 240/4/5 233/4/5 239/4/5
f 241/1/5 235/1/5 234/1/5
f 241/4/5 233/4/5 240/4/5
f 241/1/5 234/1/5 233/1/5
f 242/1/5 235/1/5 241/1/5
f 243/2/5 237/2/5 236/2/5
f 243/4/5 236/4/5 216/4/5
f 244/4/5 239/4/5 238/4/5
f 244/2/5 237/2/5 243/2/5
f 244/4/5 238/4/5 237/4/5
f 245/3/5 240/3/5 239/3/5
f 245/4/5 239/4/5 244/4/5
f 246/4/5 241/4/5 240/4/5
f 246/3/5 240/3/5 245/3/5
f 246/4/5 242/4/5 241/4/5
f 247/4/5 244/4/5 243/4/5
f 247/4/5 243/4/5 216/4/5
f 247/4/5 246/4/5 245/4/5
f 247/4/5 245/4/5 244/4/5
f 248/4/5 246/4/5 247/4/5
f 249/4/5 242/4/5 246/4/5
f 249/4/5 246/4/5 248/4/5
f 250/4/5 242/4/5 249/4/5
f 251/2/5 248/2/5 247/2/5
f 251/4/5 247/4/5 216/4/5
f 252/4/5 249/4/5 248/4/5
f 252/2/5 248/2/5 251/2/5
f 253/3/5 250/3/5 249/3/5
f 253/4/5 249/4/5 252/4/5
f 254/4/5 242/4/5 250/4/5
f 254/3/5 250/3/5 253/3/5
f 255/4/5 253/4/5 252/4/5
f 255/4/5 252/4/5 251/4/5
f 255/4/5 254/4/5 253/4/5
f 256/4/5 254/4/5 255/4/5
f 257/4/5 216/4/5 193/4/5
f 257/4/5 251/4/5 216/4/5
f 257/4/5 255/4/5 251/4/5
f 258/4/5 255/4/5 257/4/5
f 259/2/5 256/2/5 255/2/5
f 259/4/5 255/4/5 258/4/5
f 260/4/5 254/4/5 256/4/5
f 260/2/5 256/2/5 259/2/5
f 261/4/5 254/4/5 260/4/5
f 262/3/5 258/3/5 257/3/5
f 262/4/5 257/4/5 193/4/5
f 263/4/5 259/4/5 258/4/5
f 263/3/5 258/3/5 262/3/5
f 263/4/5 260/4/5 259/4/5
f 264/4/5 260/4/5 263/4/5
f 265/2/5 261/2/5 260/2/5
f 265/4/5 260/4/5 264/4/5
f 266/4/5 254/4/5 261/4/5
f 266/2/5 261/2/5 265/2/5
f 267/4/5 254/4/5 266/4/5
f 268/4/5 242/4/5 254/4/5
f 268/4/5 254/4/5 267/4/5
f 269/4/5 242/4/5 268/4/5
f 270/3/5 264/3/5 263/3/5
f 270/4/5 263/4/5 262/4/5
f 271/4/5 265/4/5 264/4/5
f 271/3/5 264/3/5 270/3/5
f 271/4/5 266/4/5 265/4/5
f 272/2/5 267/2/5 266/2/5
f 272/4/5 266/4/5 271/4/5
f 273/4/5 268/4/5 267/4/5
f 273/2/5 267/2/5 272/2/5
f 274/4/5 268/4/5 273/4/5
f 275/4/5 268/4/5 274/4/5
f 276/4/5 268/4/5 275/4/5
f 277/4/5 268/4/5 276/4/5
f 278/4/5 268/4/5 277/4/5
f 279/4/5 268/4/5 278/4/5
f 280/4/5 268/4/5 279/4/5
f 281/4/5 268/4/5 280/4/5
f 282/4/5 268/4/5 281/4/5
f 283/4/5 268/4/5 282/4/5
f 284/4/5 268/4/5 283/4/5
f 285/4/5 268/4/5 284/4/5
f 286/3/5 269/3/5 268/3/5
f 286/4/5 268/4/5 285/4/5
f 287/4/5 242/4/5 269/4/5
f 287/3/5 269/3/5 286/3/5
f 288/4/5 242/4/5 287/4/5
f 289/4/5 242/4/5 288/4/5
f 290/4/5 271/4/5 270/4/5
f 290/4/5 272/4/5 271/4/5
f 290/4/5 273/4/5 272/4/5
f 290/4/5 274/4/5 273/4/5
f 290/2/5 275/2/5 274/2/5
f 291/4/5 276/4/5 275/4/5
f 291/2/5 275/2/5 290/2/5
f 292/2/5 277/2/5 276/2/5
f 292/4/5 276/4/5 291/4/5
f 293/4/5 278/4/5 277/4/5
f 293/2/5 277/2/5 292/2/5
f 294/2/5 279/2/5 278/2/5
f 294/4/5 278/4/5 293/4/5
f 295/4/5 280/4/5 279/4/5
f 295/2/5 279/2/5 294/2/5
f 296/2/5 281/2/5 280/2/5
f 296/4/5 280/4/5 295/4/5
f 297/4/5 282/4/5 281/4/5
f 297/2/5 281/2/5 296/2/5
f 298/2/5 283/2/5 282/2/5
f 298/4/5 282/4/5 297/4/5
f 299/4/5 284/4/5 283/4/5
f 299/2/5 283/2/5 298/2/5
f 300/2/5 285/2/5 284/2/5
f 300/4/5 284/4/5 299/4/5
f 301/2/5 285/2/5 300/2/5
f 302/3/5 286/3/5 285/3/5
f 302/2/5 285/2/5 301/2/5
f 303/2/5 287/2/5 286/2/5
f 303/3/5 286/3/5 302/3/5
f 304/4/5 288/4/5 287/4/5
f 304/2/5 287/2/5 303/2/5
f 305/2/5 289/2/5 288/2/5
f 305/4/5 288/4/5 304/4/5
f 306/2/5 289/2/5 305/2/5
f 307/4/5 301/4/5 300/4/5
f 307/4/5 299/4/5 298/4/5
f 307/3/5 302/3/5 301/3/5
f 307/4/5 298/4/5 297/4/5
f 307/4/5 300/4/5 299/4/5
f 307/4/5 297/4/5 296/4/5
f 307/4/5 296/4/5 295/4/5
f 307/4/5 295/4/5 294/4/5
f 307/4/5 294/4/5 293/4/5
f 307/4/5 293/4/5 292/4/5
f 307/4/5 292/4/5 291/4/5
f 307/4/5 291/4/5 290/4/5
f 308/4/5 306/4/5 305/4/5
f 308/3/5 302/3/5 307/3/5
f 308/4/5 304/4/5 303/4/5
f 308/4/5 303/4/5 302/4/5
f 308/4/5 305/4/5 304/4/5
f 309/1/5 179/1/5 178/1/5
f 309/4/5 193/4/5 188/4/5
f 309/4/5 308/4/5 307/4/5
f 309/4/5 290/4/5 270/4/5
f 309/4/5 307/4/5 290/4/5
f 309/4/5 188/4/5 179/4/5
f 309/4/5 270/4/5 262/4/5
f 309/4/5 262/4/5 193/4/5
f 310/4/5 308/4/5 309/4/5
f 311/4/5 308/4/5 310/4/5
f 312/4/5 308/4/5 311/4/5
f 313/1/5 309/1/5 178/1/5
f 313/3/5 310/3/5 309/3/5
f 314/4/5 311/4/5 310/4/5
f 314/3/5 310/3/5 313/3/5
f 315/4/5 311/4/5 314/4/5
f 316/3/5 312/3/5 311/3/5
f 316/4/5 311/4/5 315/4/5
f 317/4/5 308/4/5 312/4/5
f 317/3/5 312/3/5 316/3/5
f 318/4/5 308/4/5 317/4/5
f 319/1/5 313/1/5 178/1/5
f 319/1/5 314/1/5 313/1/5
f 320/1/5 314/1/5 319/1/5
f 321/3/5 315/3/5 314/3/5
f 321/1/5 314/1/5 320/1/5
f 322/4/5 316/4/5 315/4/5
f 322/3/5 315/3/5 321/3/5
f 322/4/5 317/4/5 316/4/5
f 323/4/5 317/4/5 322/4/5
f 324/3/5 318/3/5 317/3/5
f 324/4/5 317/4/5 323/4/5
f 325/4/5 308/4/5 318/4/5
f 325/3/5 318/3/5 324/3/5
f 326/1/5 321/1/5 320/1/5
f 326/1/5 322/1/5 321/1/5
f 327/1/5 322/1/5 326/1/5
f 328/3/5 323/3/5 322/3/5
f 328/1/5 322/1/5 327/1/5
f 329/4/5 324/4/5 323/4/5
f 329/3/5 323/3/5 328/3/5
f 329/4/5 325/4/5 324/4/5
f 330/1/5 328/1/5 327/1/5
f 330/1/5 329/1/5 328/1/5
f 331/1/5 329/1/5 330/1/5
f 332/4/5 325/4/5 329/4/5
f 332/1/5 329/1/5 331/1/5
f 333/4/5 325/4/5 332/4/5
f 334/1/5 332/1/5 331/1/5
f 334/1/5 333/1/5 332/1/5
f 335/1/5 333/1/5 334/1/5
f 336/4/5 325/4/5 333/4/5
f 336/1/5 333/1/5 335/1/5
f 337/4/5 306/4/5 308/4/5
f 337/4/5 325/4/5 336/4/5
f 337/4/5 308/4/5 325/4/5
f 338/1/5 336/1/5 335/1/5
f 338/1/5 337/1/5 336/1/5
f 339/1/5 337/1/5 338/1/5
f 342/4/6 343/4/6 346/4/6
f 343/2/6 344/2/6 346/2/6
f 344/4/6 345/4/6 347/4/6
f 346/2/6 344/2/6 347/2/6
f 340/4/6 341/4/6 348/4/6
f 341/3/6 342/3/6 348/3/6
f 346/4/6 347/4/6 349/4/6
f 348/3/6 342/3/6 349/3/6
f 342/4/6 346/4/6 349/4/6
f 349/4/6 347/4/6 350/4/6
f 350/4/6 347/4/6 351/4/6
f 347/4/6 345/4/6 352/4/6
f 351/4/6 347/4/6 352/4/6
f 348/4/6 349/4/6 353/4/6
f 349/3/6 350/3/6 353/3/6
f 350/4/6 351/4/6 354/4/6
f 353/3/6 350/3/6 354/3/6
f 351/2/6 352/2/6 355/2/6
f 354/4/6 351/4/6 355/4/6
f 352/4/6 345/4/6 356/4/6
f 355/2/6 352/2/6 356/2/6
f 354/4/6 355/4/6 357/4/6
f 353/4/6 354/4/6 357/4/6
f 355/4/6 356/4/6 357/4/6
f 356/4/6 345/4/6 358/4/6
f 357/4/6 356/4/6 358/4/6
f 353/4/6 357/4/6 359/4/6
f 357/2/6 358/2/6 359/2/6
f 358/4/6 345/4/6 360/4/6
f 359/2/6 358/2/6 360/2/6
f 353/4/6 359/4/6 361/4/6
f 359/4/6 360/4/6 361/4/6
f 360/4/6 345/4/6 362/4/6
f 361/4/6 360/4/6 362/4/6
f 353/4/6 361/4/6 363/4/6
f 361/2/6 362/2/6 363/2/6
f 362/4/6 345/4/6 364/4/6
f 363/2/6 362/2/6 364/2/6
f 353/4/6 363/4/6 365/4/6
f 363/4/6 364/4/6 365/4/6
f 365/4/6 364/4/6 366/4/6
f 366/4/6 364/4/6 367/4/6
f 364/4/6 345/4/6 368/4/6
f 367/4/6 364/4/6 368/4/6
f 353/4/6 365/4/6 369/4/6
f 365/3/6 366/3/6 370/3/6
f 369/4/6 365/4/6 370/4/6
f 366/4/6 367/4/6 371/4/6
f 370/3/6 366/3/6 371/3/6
f 367/2/6 368/2/6 372/2/6
f 371/4/6 367/4/6 372/4/6
f 368/4/6 345/4/6 373/4/6
f 372/2/6 368/2/6 373/2/6
f 369/3/6 370/3/6 374/3/6
f 353/4/6 369/4/6 374/4/6
f 371/4/6 372/4/6 375/4/6
f 374/3/6 370/3/6 375/3/6
f 372/4/6 373/4/6 375/4/6
f 370/4/6 371/4/6 375/4/6
f 375/4/6 373/4/6 376/4/6
f 373/4/6 345/4/6 377/4/6
f 376/4/6 373/4/6 377/4/6
f 377/4/6 345/4/6 378/4/6
f 377/4/6 378/4/6 380/4/6
f 378/4/6 379/4/6 380/4/6
f 375/4/6 376/4/6 382/4/6
f 374/4/6 375/4/6 382/4/6
f 376/2/6 377/2/6 382/2/6
f 380/4/6 381/4/6 383/4/6
f 382/2/6 377/2/6 383/2/6
f 377/4/6 380/4/6 383/4/6
f 383/4/6 381/4/6 384/4/6
f 384/4/6 381/4/6 385/4/6
f 385/4/6 381/4/6 386/4/6
f 374/4/6 382/4/6 388/4/6
f 382/4/6 383/4/6 388/4/6
f 383/4/6 384/4/6 388/4/6
f 388/4/6 384/4/6 389/4/6
f 384/3/6 385/3/6 390/3/6
f 389/4/6 384/4/6 390/4/6
f 386/4/6 387/4/6 391/4/6
f 390/3/6 385/3/6 391/3/6
f 385/4/6 386/4/6 391/4/6
f 391/4/6 387/4/6 392/4/6
f 392/4/6 387/4/6 393/4/6
f 374/4/6 388/4/6 395/4/6
f 388/2/6 389/2/6 395/2/6
f 389/4/6 390/4/6 396/4/6
f 395/2/6 389/2/6 396/2/6
f 390/4/6 391/4/6 396/4/6
f 391/3/6 392/3/6 397/3/6
f 396/4/6 391/4/6 397/4/6
f 393/4/6 394/4/6 398/4/6
f 397/3/6 392/3/6 398/3/6
f 392/4/6 393/4/6 398/4/6
f 374/4/6 395/4/6 399/4/6
f 396/4/6 397/4/6 399/4/6
f 397/4/6 398/4/6 399/4/6
f 395/4/6 396/4/6 399/4/6
f 399/4/6 398/4/6 400/4/6
f 398/4/6 394/4/6 401/4/6
f 400/4/6 398/4/6 401/4/6
f 401/4/6 394/4/6 402/4/6
f 399/2/6 400/2/6 403/2/6
f 374/4/6 399/4/6 403/4/6
f 400/4/6 401/4/6 404/4/6
f 403/2/6 400/2/6 404/2/6
f 401/3/6 402/3/6 405/3/6
f 404/4/6 401/4/6 405/4/6
f 402/4/6 394/4/6 406/4/6
f 405/3/6 402/3/6 406/3/6
f 404/4/6 405/4/6 407/4/6
f 403/4/6 404/4/6 407/4/6
f 405/4/6 406/4/6 407/4/6
f 407/4/6 406/4/6 408/4/6
f 353/4/6 374/4/6 409/4/6
f 374/4/6 403/4/6 409/4/6
f 403/4/6 407/4/6 409/4/6
f 409/4/6 407/4/6 410/4/6
f 407/2/6 408/2/6 411/2/6
f 410/4/6 407/4/6 411/4/6
f 408/4/6 406/4/6 412/4/6
f 411/2/6 408/2/6 412/2/6
f 412/4/6 406/4/6 413/4/6
f 409/3/6 410/3/6 414/3/6
f 353/4/6 409/4/6 414/4/6
f 410/4/6 411/4/6 415/4/6
f 414/3/6 410/3/6 415/3/6
f 411/4/6 412/4/6 415/4/6
f 415/4/6 412/4/6 416/4/6
f 412/2/6 413/2/6 417/2/6
f 416/4/6 412/4/6 417/4/6
f 413/4/6 406/4/6 418/4/6
f 417/2/6 413/2/6 418/2/6
f 418/4/6 406/4/6 419/4/6
f 406/4/6 394/4/6 420/4/6
f 419/4/6 406/4/6 420/4/6
f 420/4/6 394/4/6 421/4/6
f 415/3/6 416/3/6 422/3/6
f 414/4/6 415/4/6 422/4/6
f 416/4/6 417/4/6 423/4/6
f 422/3/6 416/3/6 423/3/6
f 417/4/6 418/4/6 423/4/6
f 418/2/6 419/2/6 424/2/6
f 423/4/6 418/4/6 424/4/6
f 419/4/6 420/4/6 425/4/6
f 424/2/6 419/2/6 425/2/6
f 425/4/6 420/4/6 426/4/6
f 426/4/6 420/4/6 427/4/6
f 427/4/6 420/4/6 428/4/6
f 428/4/6 420/4/6 429/4/6
f 429/4/6 420/4/6 430/4/6
f 430/4/6 420/4/6 431/4/6
f 431/4/6 420/4/6 432/4/6
f 432/4/6 420/4/6 433/4/6
f 433/4/6 420/4/6 434/4/6
f 434/4/6 420/4/6 435/4/6
f 435/4/6 420/4/6 436/4/6
f 436/4/6 420/4/6 437/4/6
f 420/3/6 421/3/6 438/3/6
f 437/4/6 420/4/6 438/4/6
f 421/4/6 394/4/6 439/4/6
f 438/3/6 421/3/6 439/3/6
f 439/4/6 394/4/6 440/4/6
f 440/4/6 394/4/6 441/4/6
f 422/4/6 423/4/6 442/4/6
f 423/4/6 424/4/6 442/4/6
f 424/4/6 425/4/6 442/4/6
f 425/4/6 426/4/6 442/4/6
f 426/2/6 427/2/6 442/2/6
f 427/4/6 428/4/6 443/4/6
f 442/2/6 427/2/6 443/2/6
f 428/2/6 429/2/6 444/2/6
f 443/4/6 428/4/6 444/4/6
f 429/4/6 430/4/6 445/4/6
f 444/2/6 429/2/6 445/2/6
f 430/2/6 431/2/6 446/2/6
f 445/4/6 430/4/6 446/4/6
f 431/4/6 432/4/6 447/4/6
f 446/2/6 431/2/6 447/2/6
f 432/2/6 433/2/6 448/2/6
f 447/4/6 432/4/6 448/4/6
f 433/4/6 434/4/6 449/4/6
f 448/2/6 433/2/6 449/2/6
f 434/2/6 435/2/6 450/2/6
f 449/4/6 434/4/6 450/4/6
f 435/4/6 436/4/6 451/4/6
f 450/2/6 435/2/6 451/2/6
f 436/2/6 437/2/6 452/2/6
f 451/4/6 436/4/6 452/4/6
f 452/2/6 437/2/6 453/2/6
f 437/3/6 438/3/6 454/3/6
f 453/2/6 437/2/6 454/2/6
f 438/2/6 439/2/6 455/2/6
f 454/3/6 438/3/6 455/3/6
f 439/4/6 440/4/6 456/4/6
f 455/2/6 439/2/6 456/2/6
f 440/2/6 441/2/6 457/2/6
f 456/4/6 440/4/6 457/4/6
f 457/2/6 441/2/6 458/2/6
f 452/4/6 453/4/6 459/4/6
f 450/4/6 451/4/6 459/4/6
f 453/3/6 454/3/6 459/3/6
f 449/4/6 450/4/6 459/4/6
f 451/4/6 452/4/6 459/4/6
f 448/4/6 449/4/6 459/4/6
f 447/4/6 448/4/6 459/4/6
f 446/4/6 447/4/6 459/4/6
f 445/4/6 446/4/6 459/4/6
f 444/4/6 445/4/6 459/4/6
f 443/4/6 444/4/6 459/4/6
f 442/4/6 443/4/6 459/4/6
f 457/4/6 458/4/6 460/4/6
f 459/3/6 454/3/6 460/3/6
f 455/4/6 456/4/6 460/4/6
f 454/4/6 455/4/6 460/4/6
f 456/4/6 457/4/6 460/4/6
f 348/4/6 353/4/6 461/4/6
f 340/4/6 348/4/6 461/4/6
f 459/4/6 460/4/6 461/4/6
f 422/4/6 442/4/6 461/4/6
f 442/4/6 459/4/6 461/4/6
f 353/4/6 414/4/6 461/4/6
f 414/4/6 422/4/6 461/4/6
f 461/4/6 460/4/6 462/4/6
f 462/4/6 460/4/6 463/4/6
f 463/4/6 460/4/6 464/4/6
f 461/3/6 462/3/6 465/3/6
f 462/4/6 463/4/6 466/4/6
f 465/3/6 462/3/6 466/3/6
f 466/4/6 463/4/6 467/4/6
f 463/3/6 464/3/6 468/3/6
f 467/4/6 463/4/6 468/4/6
f 464/4/6 460/4/6 469/4/6
f 468/3/6 464/3/6 469/3/6
f 469/4/6 460/4/6 470/4/6
f 466/3/6 467/3/6 471/3/6
f 467/4/6 468/4/6 472/4/6
f 471/3/6 467/3/6 472/3/6
f 468/4/6 469/4/6 472/4/6
f 472/4/6 469/4/6 473/4/6
f 469/3/6 470/3/6 474/3/6
f 473/4/6 469/4/6 474/4/6
f 470/4/6 460/4/6 475/4/6
f 474/3/6 470/3/6 475/3/6
f 472/3/6 473/3/6 476/3/6
f 473/4/6 474/4/6 477/4/6
f 476/3/6 473/3/6 477/3/6
f 474/4/6 475/4/6 477/4/6
f 477/4/6 475/4/6 478/4/6
f 478/4/6 475/4/6 479/4/6
f 479/4/6 475/4/6 480/4/6
f 460/4/6 458/4/6 481/4/6
f 480/4/6 475/4/6 481/4/6
f 475/4/6 460/4/6 481/4/6
f 484/1/6 485/1/6 486/1/6
f 484/1/6 486/1/6 488/1/6
f 486/1/6 487/1/6 488/1/6
f 488/1/6 487/1/6 489/1/6
f 489/1/6 487/1/6 490/1/6
f 490/1/6 491/1/6 492/1/6
f 489/1/6 490/1/6 492/1/6
f 492/1/6 491/1/6 493/1/6
f 493/1/6 491/1/6 494/1/6
f 494/1/6 495/1/6 496/1/6
f 493/1/6 494/1/6 496/1/6
f 496/1/6 495/1/6 497/1/6
f 497/1/6 495/1/6 498/1/6
f 498/1/6 499/1/6 500/1/6
f 497/1/6 498/1/6 500/1/6
f 500/1/6 499/1/6 501/1/6
f 482/1/6 483/1/6 502/1/6
f 482/1/6 502/1/6 504/1/6
f 502/1/6 503/1/6 504/1/6
f 504/1/6 503/1/6 505/1/6
f 505/1/6 503/1/6 506/1/6
f 505/1/6 506/1/6 508/1/6
f 506/1/6 507/1/6 508/1/6
f 508/1/6 507/1/6 509/1/6
f 509/1/6 507/1/6 510/1/6
f 510/1/6 511/1/6 512/1/6
f 509/1/6 510/1/6 512/1/6
f 512/1/6 511/1/6 513/1/6
f 513/1/6 511/1/6 514/1/6
f 514/1/6 515/1/6 516/1/6
f 513/1/6 514/1/6 516/1/6
f 516/1/6 515/1/6 517/1/6
f 517/1/6 515/1/6 518/1/6
f 518/1/6 519/1/6 520/1/6
f 517/1/6 518/1/6 520/1/6
f 520/1/6 519/1/6 521/1/6
