# MagicaVoxel @ Ephtracy

# group
g building13

# material
mtllib building13.mtl
usemtl palette

# normals
vn -1 0 0
vn 1 0 0
vn 0 0 1
vn 0 0 -1
vn 0 -1 0
vn 0 1 0

# texcoords
vt 0.841797 0.5
vt 0.904297 0.5
vt 0.935547 0.5

# verts
v -16 0 8.5
v -16 0 -8.5
v -16 31 8.5
v -16 31 -8.5
v -11 10 8.5
v -11 10 7.5
v -11 13 8.5
v -11 13 7.5
v -11 15 8.5
v -11 15 7.5
v -11 18 8.5
v -11 18 7.5
v -11 20 8.5
v -11 20 7.5
v -11 23 8.5
v -11 23 7.5
v -11 25 8.5
v -11 25 7.5
v -11 28 8.5
v -11 28 7.5
v -7 10 8.5
v -7 10 7.5
v -7 13 8.5
v -7 13 7.5
v -7 15 8.5
v -7 15 7.5
v -7 18 8.5
v -7 18 7.5
v -7 20 8.5
v -7 20 7.5
v -7 23 8.5
v -7 23 7.5
v -7 25 8.5
v -7 25 7.5
v -7 28 8.5
v -7 28 7.5
v -3 10 8.5
v -3 10 7.5
v -3 13 8.5
v -3 13 7.5
v -3 15 8.5
v -3 15 7.5
v -3 18 8.5
v -3 18 7.5
v -3 20 8.5
v -3 20 7.5
v -3 23 8.5
v -3 23 7.5
v -3 25 8.5
v -3 25 7.5
v -3 28 8.5
v -3 28 7.5
v 1 10 8.5
v 1 10 7.5
v 1 13 8.5
v 1 13 7.5
v 1 15 8.5
v 1 15 7.5
v 1 18 8.5
v 1 18 7.5
v 1 20 8.5
v 1 20 7.5
v 1 23 8.5
v 1 23 7.5
v 1 25 8.5
v 1 25 7.5
v 1 28 8.5
v 1 28 7.5
v 3 2 8.5
v 3 2 7.5
v 3 6 8.5
v 3 6 7.5
v 5 10 8.5
v 5 10 7.5
v 5 13 8.5
v 5 13 7.5
v 5 15 8.5
v 5 15 7.5
v 5 18 8.5
v 5 18 7.5
v 5 20 8.5
v 5 20 7.5
v 5 23 8.5
v 5 23 7.5
v 5 25 8.5
v 5 25 7.5
v 5 28 8.5
v 5 28 7.5
v 9 10 8.5
v 9 10 7.5
v 9 13 8.5
v 9 13 7.5
v 9 15 8.5
v 9 15 7.5
v 9 18 8.5
v 9 18 7.5
v 9 20 8.5
v 9 20 7.5
v 9 23 8.5
v 9 23 7.5
v 9 25 8.5
v 9 25 7.5
v 9 28 8.5
v 9 28 7.5
v 13 10 8.5
v 13 10 7.5
v 13 13 8.5
v 13 13 7.5
v 13 15 8.5
v 13 15 7.5
v 13 18 8.5
v 13 18 7.5
v 13 20 8.5
v 13 20 7.5
v 13 23 8.5
v 13 23 7.5
v 13 25 8.5
v 13 25 7.5
v 13 28 8.5
v 13 28 7.5
v -13 10 8.5
v -13 10 7.5
v -13 13 8.5
v -13 13 7.5
v -13 15 8.5
v -13 15 7.5
v -13 18 8.5
v -13 18 7.5
v -13 20 8.5
v -13 20 7.5
v -13 23 8.5
v -13 23 7.5
v -13 25 8.5
v -13 25 7.5
v -13 28 8.5
v -13 28 7.5
v -9 10 8.5
v -9 10 7.5
v -9 13 8.5
v -9 13 7.5
v -9 15 8.5
v -9 15 7.5
v -9 18 8.5
v -9 18 7.5
v -9 20 8.5
v -9 20 7.5
v -9 23 8.5
v -9 23 7.5
v -9 25 8.5
v -9 25 7.5
v -9 28 8.5
v -9 28 7.5
v -5 10 8.5
v -5 10 7.5
v -5 13 8.5
v -5 13 7.5
v -5 15 8.5
v -5 15 7.5
v -5 18 8.5
v -5 18 7.5
v -5 20 8.5
v -5 20 7.5
v -5 23 8.5
v -5 23 7.5
v -5 25 8.5
v -5 25 7.5
v -5 28 8.5
v -5 28 7.5
v -2 2 8.5
v -2 2 7.5
v -2 6 8.5
v -2 6 7.5
v -1 10 8.5
v -1 10 7.5
v -1 13 8.5
v -1 13 7.5
v -1 15 8.5
v -1 15 7.5
v -1 18 8.5
v -1 18 7.5
v -1 20 8.5
v -1 20 7.5
v -1 23 8.5
v -1 23 7.5
v -1 25 8.5
v -1 25 7.5
v -1 28 8.5
v -1 28 7.5
v 3 10 8.5
v 3 10 7.5
v 3 13 8.5
v 3 13 7.5
v 3 15 8.5
v 3 15 7.5
v 3 18 8.5
v 3 18 7.5
v 3 20 8.5
v 3 20 7.5
v 3 23 8.5
v 3 23 7.5
v 3 25 8.5
v 3 25 7.5
v 3 28 8.5
v 3 28 7.5
v 7 10 8.5
v 7 10 7.5
v 7 13 8.5
v 7 13 7.5
v 7 15 8.5
v 7 15 7.5
v 7 18 8.5
v 7 18 7.5
v 7 20 8.5
v 7 20 7.5
v 7 23 8.5
v 7 23 7.5
v 7 25 8.5
v 7 25 7.5
v 7 28 8.5
v 7 28 7.5
v 11 10 8.5
v 11 10 7.5
v 11 13 8.5
v 11 13 7.5
v 11 15 8.5
v 11 15 7.5
v 11 18 8.5
v 11 18 7.5
v 11 20 8.5
v 11 20 7.5
v 11 23 8.5
v 11 23 7.5
v 11 25 8.5
v 11 25 7.5
v 11 28 8.5
v 11 28 7.5
v 16 0 8.5
v 16 0 -8.5
v 16 31 8.5
v 16 31 -8.5
v -16 0 8.5
v -16 31 8.5
v -13 10 8.5
v -13 13 8.5
v -13 15 8.5
v -13 18 8.5
v -13 20 8.5
v -13 23 8.5
v -13 25 8.5
v -13 28 8.5
v -11 10 8.5
v -11 13 8.5
v -11 15 8.5
v -11 18 8.5
v -11 20 8.5
v -11 23 8.5
v -11 25 8.5
v -11 28 8.5
v -9 10 8.5
v -9 13 8.5
v -9 15 8.5
v -9 18 8.5
v -9 20 8.5
v -9 23 8.5
v -9 25 8.5
v -9 28 8.5
v -7 10 8.5
v -7 13 8.5
v -7 15 8.5
v -7 18 8.5
v -7 20 8.5
v -7 23 8.5
v -7 25 8.5
v -7 28 8.5
v -5 10 8.5
v -5 13 8.5
v -5 15 8.5
v -5 18 8.5
v -5 20 8.5
v -5 23 8.5
v -5 25 8.5
v -5 28 8.5
v -3 10 8.5
v -3 13 8.5
v -3 15 8.5
v -3 18 8.5
v -3 20 8.5
v -3 23 8.5
v -3 25 8.5
v -3 28 8.5
v -2 1 8.5
v -2 2 8.5
v -2 6 8.5
v -1 10 8.5
v -1 13 8.5
v -1 15 8.5
v -1 18 8.5
v -1 20 8.5
v -1 23 8.5
v -1 25 8.5
v -1 28 8.5
v 1 10 8.5
v 1 13 8.5
v 1 15 8.5
v 1 18 8.5
v 1 20 8.5
v 1 23 8.5
v 1 25 8.5
v 1 28 8.5
v 3 1 8.5
v 3 2 8.5
v 3 6 8.5
v 3 10 8.5
v 3 13 8.5
v 3 15 8.5
v 3 18 8.5
v 3 20 8.5
v 3 23 8.5
v 3 25 8.5
v 3 28 8.5
v 5 10 8.5
v 5 13 8.5
v 5 15 8.5
v 5 18 8.5
v 5 20 8.5
v 5 23 8.5
v 5 25 8.5
v 5 28 8.5
v 7 10 8.5
v 7 13 8.5
v 7 15 8.5
v 7 18 8.5
v 7 20 8.5
v 7 23 8.5
v 7 25 8.5
v 7 28 8.5
v 9 10 8.5
v 9 13 8.5
v 9 15 8.5
v 9 18 8.5
v 9 20 8.5
v 9 23 8.5
v 9 25 8.5
v 9 28 8.5
v 11 10 8.5
v 11 13 8.5
v 11 15 8.5
v 11 18 8.5
v 11 20 8.5
v 11 23 8.5
v 11 25 8.5
v 11 28 8.5
v 13 10 8.5
v 13 13 8.5
v 13 15 8.5
v 13 18 8.5
v 13 20 8.5
v 13 23 8.5
v 13 25 8.5
v 13 28 8.5
v 16 0 8.5
v 16 31 8.5
v -13 10 7.5
v -13 13 7.5
v -13 15 7.5
v -13 18 7.5
v -13 20 7.5
v -13 23 7.5
v -13 25 7.5
v -13 28 7.5
v -11 10 7.5
v -11 13 7.5
v -11 15 7.5
v -11 18 7.5
v -11 20 7.5
v -11 23 7.5
v -11 25 7.5
v -11 28 7.5
v -9 10 7.5
v -9 13 7.5
v -9 15 7.5
v -9 18 7.5
v -9 20 7.5
v -9 23 7.5
v -9 25 7.5
v -9 28 7.5
v -7 10 7.5
v -7 13 7.5
v -7 15 7.5
v -7 18 7.5
v -7 20 7.5
v -7 23 7.5
v -7 25 7.5
v -7 28 7.5
v -5 10 7.5
v -5 13 7.5
v -5 15 7.5
v -5 18 7.5
v -5 20 7.5
v -5 23 7.5
v -5 25 7.5
v -5 28 7.5
v -3 10 7.5
v -3 13 7.5
v -3 15 7.5
v -3 18 7.5
v -3 20 7.5
v -3 23 7.5
v -3 25 7.5
v -3 28 7.5
v -2 2 7.5
v -2 6 7.5
v -1 10 7.5
v -1 13 7.5
v -1 15 7.5
v -1 18 7.5
v -1 20 7.5
v -1 23 7.5
v -1 25 7.5
v -1 28 7.5
v 1 10 7.5
v 1 13 7.5
v 1 15 7.5
v 1 18 7.5
v 1 20 7.5
v 1 23 7.5
v 1 25 7.5
v 1 28 7.5
v 3 2 7.5
v 3 6 7.5
v 3 10 7.5
v 3 13 7.5
v 3 15 7.5
v 3 18 7.5
v 3 20 7.5
v 3 23 7.5
v 3 25 7.5
v 3 28 7.5
v 5 10 7.5
v 5 13 7.5
v 5 15 7.5
v 5 18 7.5
v 5 20 7.5
v 5 23 7.5
v 5 25 7.5
v 5 28 7.5
v 7 10 7.5
v 7 13 7.5
v 7 15 7.5
v 7 18 7.5
v 7 20 7.5
v 7 23 7.5
v 7 25 7.5
v 7 28 7.5
v 9 10 7.5
v 9 13 7.5
v 9 15 7.5
v 9 18 7.5
v 9 20 7.5
v 9 23 7.5
v 9 25 7.5
v 9 28 7.5
v 11 10 7.5
v 11 13 7.5
v 11 15 7.5
v 11 18 7.5
v 11 20 7.5
v 11 23 7.5
v 11 25 7.5
v 11 28 7.5
v 13 10 7.5
v 13 13 7.5
v 13 15 7.5
v 13 18 7.5
v 13 20 7.5
v 13 23 7.5
v 13 25 7.5
v 13 28 7.5
v -16 0 -8.5
v -16 31 -8.5
v 16 0 -8.5
v 16 31 -8.5
v -16 0 8.5
v 16 0 8.5
v -16 0 -8.5
v 16 0 -8.5
v -2 6 8.5
v 3 6 8.5
v -2 6 7.5
v 3 6 7.5
v -13 13 8.5
v -11 13 8.5
v -9 13 8.5
v -7 13 8.5
v -5 13 8.5
v -3 13 8.5
v -1 13 8.5
v 1 13 8.5
v 3 13 8.5
v 5 13 8.5
v 7 13 8.5
v 9 13 8.5
v 11 13 8.5
v 13 13 8.5
v -13 13 7.5
v -11 13 7.5
v -9 13 7.5
v -7 13 7.5
v -5 13 7.5
v -3 13 7.5
v -1 13 7.5
v 1 13 7.5
v 3 13 7.5
v 5 13 7.5
v 7 13 7.5
v 9 13 7.5
v 11 13 7.5
v 13 13 7.5
v -13 18 8.5
v -11 18 8.5
v -9 18 8.5
v -7 18 8.5
v -5 18 8.5
v -3 18 8.5
v -1 18 8.5
v 1 18 8.5
v 3 18 8.5
v 5 18 8.5
v 7 18 8.5
v 9 18 8.5
v 11 18 8.5
v 13 18 8.5
v -13 18 7.5
v -11 18 7.5
v -9 18 7.5
v -7 18 7.5
v -5 18 7.5
v -3 18 7.5
v -1 18 7.5
v 1 18 7.5
v 3 18 7.5
v 5 18 7.5
v 7 18 7.5
v 9 18 7.5
v 11 18 7.5
v 13 18 7.5
v -13 23 8.5
v -11 23 8.5
v -9 23 8.5
v -7 23 8.5
v -5 23 8.5
v -3 23 8.5
v -1 23 8.5
v 1 23 8.5
v 3 23 8.5
v 5 23 8.5
v 7 23 8.5
v 9 23 8.5
v 11 23 8.5
v 13 23 8.5
v -13 23 7.5
v -11 23 7.5
v -9 23 7.5
v -7 23 7.5
v -5 23 7.5
v -3 23 7.5
v -1 23 7.5
v 1 23 7.5
v 3 23 7.5
v 5 23 7.5
v 7 23 7.5
v 9 23 7.5
v 11 23 7.5
v 13 23 7.5
v -13 28 8.5
v -11 28 8.5
v -9 28 8.5
v -7 28 8.5
v -5 28 8.5
v -3 28 8.5
v -1 28 8.5
v 1 28 8.5
v 3 28 8.5
v 5 28 8.5
v 7 28 8.5
v 9 28 8.5
v 11 28 8.5
v 13 28 8.5
v -13 28 7.5
v -11 28 7.5
v -9 28 7.5
v -7 28 7.5
v -5 28 7.5
v -3 28 7.5
v -1 28 7.5
v 1 28 7.5
v 3 28 7.5
v 5 28 7.5
v 7 28 7.5
v 9 28 7.5
v 11 28 7.5
v 13 28 7.5
v -2 2 8.5
v 3 2 8.5
v -2 2 7.5
v 3 2 7.5
v -13 10 8.5
v -11 10 8.5
v -9 10 8.5
v -7 10 8.5
v -5 10 8.5
v -3 10 8.5
v -1 10 8.5
v 1 10 8.5
v 3 10 8.5
v 5 10 8.5
v 7 10 8.5
v 9 10 8.5
v 11 10 8.5
v 13 10 8.5
v -13 10 7.5
v -11 10 7.5
v -9 10 7.5
v -7 10 7.5
v -5 10 7.5
v -3 10 7.5
v -1 10 7.5
v 1 10 7.5
v 3 10 7.5
v 5 10 7.5
v 7 10 7.5
v 9 10 7.5
v 11 10 7.5
v 13 10 7.5
v -13 15 8.5
v -11 15 8.5
v -9 15 8.5
v -7 15 8.5
v -5 15 8.5
v -3 15 8.5
v -1 15 8.5
v 1 15 8.5
v 3 15 8.5
v 5 15 8.5
v 7 15 8.5
v 9 15 8.5
v 11 15 8.5
v 13 15 8.5
v -13 15 7.5
v -11 15 7.5
v -9 15 7.5
v -7 15 7.5
v -5 15 7.5
v -3 15 7.5
v -1 15 7.5
v 1 15 7.5
v 3 15 7.5
v 5 15 7.5
v 7 15 7.5
v 9 15 7.5
v 11 15 7.5
v 13 15 7.5
v -13 20 8.5
v -11 20 8.5
v -9 20 8.5
v -7 20 8.5
v -5 20 8.5
v -3 20 8.5
v -1 20 8.5
v 1 20 8.5
v 3 20 8.5
v 5 20 8.5
v 7 20 8.5
v 9 20 8.5
v 11 20 8.5
v 13 20 8.5
v -13 20 7.5
v -11 20 7.5
v -9 20 7.5
v -7 20 7.5
v -5 20 7.5
v -3 20 7.5
v -1 20 7.5
v 1 20 7.5
v 3 20 7.5
v 5 20 7.5
v 7 20 7.5
v 9 20 7.5
v 11 20 7.5
v 13 20 7.5
v -13 25 8.5
v -11 25 8.5
v -9 25 8.5
v -7 25 8.5
v -5 25 8.5
v -3 25 8.5
v -1 25 8.5
v 1 25 8.5
v 3 25 8.5
v 5 25 8.5
v 7 25 8.5
v 9 25 8.5
v 11 25 8.5
v 13 25 8.5
v -13 25 7.5
v -11 25 7.5
v -9 25 7.5
v -7 25 7.5
v -5 25 7.5
v -3 25 7.5
v -1 25 7.5
v 1 25 7.5
v 3 25 7.5
v 5 25 7.5
v 7 25 7.5
v 9 25 7.5
v 11 25 7.5
v 13 25 7.5
v -16 31 8.5
v 16 31 8.5
v -16 31 -8.5
v 16 31 -8.5

# faces
f 3/1/1 2/1/1 1/1/1
f 4/1/1 2/1/1 3/1/1
f 7/1/1 6/1/1 5/1/1
f 8/1/1 6/1/1 7/1/1
f 11/1/1 10/1/1 9/1/1
f 12/1/1 10/1/1 11/1/1
f 15/1/1 14/1/1 13/1/1
f 16/1/1 14/1/1 15/1/1
f 19/1/1 18/1/1 17/1/1
f 20/1/1 18/1/1 19/1/1
f 23/1/1 22/1/1 21/1/1
f 24/1/1 22/1/1 23/1/1
f 27/1/1 26/1/1 25/1/1
f 28/1/1 26/1/1 27/1/1
f 31/1/1 30/1/1 29/1/1
f 32/1/1 30/1/1 31/1/1
f 35/1/1 34/1/1 33/1/1
f 36/1/1 34/1/1 35/1/1
f 39/1/1 38/1/1 37/1/1
f 40/1/1 38/1/1 39/1/1
f 43/1/1 42/1/1 41/1/1
f 44/1/1 42/1/1 43/1/1
f 47/1/1 46/1/1 45/1/1
f 48/1/1 46/1/1 47/1/1
f 51/1/1 50/1/1 49/1/1
f 52/1/1 50/1/1 51/1/1
f 55/1/1 54/1/1 53/1/1
f 56/1/1 54/1/1 55/1/1
f 59/1/1 58/1/1 57/1/1
f 60/1/1 58/1/1 59/1/1
f 63/1/1 62/1/1 61/1/1
f 64/1/1 62/1/1 63/1/1
f 67/1/1 66/1/1 65/1/1
f 68/1/1 66/1/1 67/1/1
f 71/1/1 70/1/1 69/1/1
f 72/1/1 70/1/1 71/1/1
f 75/1/1 74/1/1 73/1/1
f 76/1/1 74/1/1 75/1/1
f 79/1/1 78/1/1 77/1/1
f 80/1/1 78/1/1 79/1/1
f 83/1/1 82/1/1 81/1/1
f 84/1/1 82/1/1 83/1/1
f 87/1/1 86/1/1 85/1/1
f 88/1/1 86/1/1 87/1/1
f 91/1/1 90/1/1 89/1/1
f 92/1/1 90/1/1 91/1/1
f 95/1/1 94/1/1 93/1/1
f 96/1/1 94/1/1 95/1/1
f 99/1/1 98/1/1 97/1/1
f 100/1/1 98/1/1 99/1/1
f 103/1/1 102/1/1 101/1/1
f 104/1/1 102/1/1 103/1/1
f 107/1/1 106/1/1 105/1/1
f 108/1/1 106/1/1 107/1/1
f 111/1/1 110/1/1 109/1/1
f 112/1/1 110/1/1 111/1/1
f 115/1/1 114/1/1 113/1/1
f 116/1/1 114/1/1 115/1/1
f 119/1/1 118/1/1 117/1/1
f 120/1/1 118/1/1 119/1/1
f 121/1/2 122/1/2 123/1/2
f 123/1/2 122/1/2 124/1/2
f 125/1/2 126/1/2 127/1/2
f 127/1/2 126/1/2 128/1/2
f 129/1/2 130/1/2 131/1/2
f 131/1/2 130/1/2 132/1/2
f 133/1/2 134/1/2 135/1/2
f 135/1/2 134/1/2 136/1/2
f 137/1/2 138/1/2 139/1/2
f 139/1/2 138/1/2 140/1/2
f 141/1/2 142/1/2 143/1/2
f 143/1/2 142/1/2 144/1/2
f 145/1/2 146/1/2 147/1/2
f 147/1/2 146/1/2 148/1/2
f 149/1/2 150/1/2 151/1/2
f 151/1/2 150/1/2 152/1/2
f 153/1/2 154/1/2 155/1/2
f 155/1/2 154/1/2 156/1/2
f 157/1/2 158/1/2 159/1/2
f 159/1/2 158/1/2 160/1/2
f 161/1/2 162/1/2 163/1/2
f 163/1/2 162/1/2 164/1/2
f 165/1/2 166/1/2 167/1/2
f 167/1/2 166/1/2 168/1/2
f 169/1/2 170/1/2 171/1/2
f 171/1/2 170/1/2 172/1/2
f 173/1/2 174/1/2 175/1/2
f 175/1/2 174/1/2 176/1/2
f 177/1/2 178/1/2 179/1/2
f 179/1/2 178/1/2 180/1/2
f 181/1/2 182/1/2 183/1/2
f 183/1/2 182/1/2 184/1/2
f 185/1/2 186/1/2 187/1/2
f 187/1/2 186/1/2 188/1/2
f 189/1/2 190/1/2 191/1/2
f 191/1/2 190/1/2 192/1/2
f 193/1/2 194/1/2 195/1/2
f 195/1/2 194/1/2 196/1/2
f 197/1/2 198/1/2 199/1/2
f 199/1/2 198/1/2 200/1/2
f 201/1/2 202/1/2 203/1/2
f 203/1/2 202/1/2 204/1/2
f 205/1/2 206/1/2 207/1/2
f 207/1/2 206/1/2 208/1/2
f 209/1/2 210/1/2 211/1/2
f 211/1/2 210/1/2 212/1/2
f 213/1/2 214/1/2 215/1/2
f 215/1/2 214/1/2 216/1/2
f 217/1/2 218/1/2 219/1/2
f 219/1/2 218/1/2 220/1/2
f 221/1/2 222/1/2 223/1/2
f 223/1/2 222/1/2 224/1/2
f 225/1/2 226/1/2 227/1/2
f 227/1/2 226/1/2 228/1/2
f 229/1/2 230/1/2 231/1/2
f 231/1/2 230/1/2 232/1/2
f 233/1/2 234/1/2 235/1/2
f 235/1/2 234/1/2 236/1/2
f 237/1/2 238/1/2 239/1/2
f 239/1/2 238/1/2 240/1/2
f 243/1/3 242/1/3 241/1/3
f 244/1/3 242/1/3 243/1/3
f 245/1/3 242/1/3 244/1/3
f 246/1/3 242/1/3 245/1/3
f 247/1/3 242/1/3 246/1/3
f 248/1/3 242/1/3 247/1/3
f 249/1/3 242/1/3 248/1/3
f 250/1/3 242/1/3 249/1/3
f 251/1/3 243/1/3 241/1/3
f 252/1/3 245/1/3 244/1/3
f 253/1/3 245/1/3 252/1/3
f 254/1/3 247/1/3 246/1/3
f 255/1/3 247/1/3 254/1/3
f 256/1/3 249/1/3 248/1/3
f 257/1/3 249/1/3 256/1/3
f 258/1/3 242/1/3 250/1/3
f 259/1/3 257/1/3 256/1/3
f 259/1/3 258/1/3 257/1/3
f 259/1/3 255/1/3 254/1/3
f 259/1/3 251/1/3 241/1/3
f 259/1/3 256/1/3 255/1/3
f 259/1/3 253/1/3 252/1/3
f 259/1/3 254/1/3 253/1/3
f 259/1/3 252/1/3 251/1/3
f 260/1/3 258/1/3 259/1/3
f 261/1/3 258/1/3 260/1/3
f 262/1/3 258/1/3 261/1/3
f 263/1/3 258/1/3 262/1/3
f 264/1/3 258/1/3 263/1/3
f 265/1/3 258/1/3 264/1/3
f 266/1/3 242/1/3 258/1/3
f 266/1/3 258/1/3 265/1/3
f 267/1/3 259/1/3 241/1/3
f 268/1/3 261/1/3 260/1/3
f 269/1/3 261/1/3 268/1/3
f 270/1/3 263/1/3 262/1/3
f 271/1/3 263/1/3 270/1/3
f 272/1/3 265/1/3 264/1/3
f 273/1/3 265/1/3 272/1/3
f 274/1/3 242/1/3 266/1/3
f 275/1/3 271/1/3 270/1/3
f 275/1/3 274/1/3 273/1/3
f 275/1/3 273/1/3 272/1/3
f 275/1/3 269/1/3 268/1/3
f 275/1/3 272/1/3 271/1/3
f 275/1/3 267/1/3 241/1/3
f 275/1/3 270/1/3 269/1/3
f 275/1/3 268/1/3 267/1/3
f 276/1/3 274/1/3 275/1/3
f 277/1/3 274/1/3 276/1/3
f 278/1/3 274/1/3 277/1/3
f 279/1/3 274/1/3 278/1/3
f 280/1/3 274/1/3 279/1/3
f 281/1/3 274/1/3 280/1/3
f 282/1/3 242/1/3 274/1/3
f 282/1/3 274/1/3 281/1/3
f 283/1/3 275/1/3 241/1/3
f 284/1/3 277/1/3 276/1/3
f 285/1/3 277/1/3 284/1/3
f 286/1/3 279/1/3 278/1/3
f 287/1/3 279/1/3 286/1/3
f 288/1/3 281/1/3 280/1/3
f 289/1/3 281/1/3 288/1/3
f 290/1/3 242/1/3 282/1/3
f 291/1/3 287/1/3 286/1/3
f 291/1/3 290/1/3 289/1/3
f 291/1/3 289/1/3 288/1/3
f 291/1/3 285/1/3 284/1/3
f 291/1/3 288/1/3 287/1/3
f 291/1/3 283/1/3 241/1/3
f 291/1/3 286/1/3 285/1/3
f 291/1/3 284/1/3 283/1/3
f 292/1/3 290/1/3 291/1/3
f 293/1/3 290/1/3 292/1/3
f 294/1/3 290/1/3 293/1/3
f 295/1/3 290/1/3 294/1/3
f 296/1/3 290/1/3 295/1/3
f 297/1/3 290/1/3 296/1/3
f 298/1/3 290/1/3 297/1/3
f 299/1/3 290/1/3 298/1/3
f 300/1/3 290/1/3 299/1/3
f 301/1/3 242/1/3 290/1/3
f 301/1/3 290/1/3 300/1/3
f 302/1/3 294/1/3 293/1/3
f 303/1/3 296/1/3 295/1/3
f 304/1/3 296/1/3 303/1/3
f 305/1/3 298/1/3 297/1/3
f 306/1/3 298/1/3 305/1/3
f 307/1/3 300/1/3 299/1/3
f 308/1/3 300/1/3 307/1/3
f 309/1/3 242/1/3 301/1/3
f 310/1/3 291/1/3 241/1/3
f 310/2/3 292/2/3 291/2/3
f 311/2/3 292/2/3 310/2/3
f 312/1/3 306/1/3 305/1/3
f 312/1/3 309/1/3 308/1/3
f 312/1/3 308/1/3 307/1/3
f 312/1/3 304/1/3 303/1/3
f 312/1/3 307/1/3 306/1/3
f 312/1/3 302/1/3 293/1/3
f 312/1/3 305/1/3 304/1/3
f 312/1/3 303/1/3 302/1/3
f 313/1/3 309/1/3 312/1/3
f 314/1/3 309/1/3 313/1/3
f 315/1/3 309/1/3 314/1/3
f 316/1/3 309/1/3 315/1/3
f 317/1/3 309/1/3 316/1/3
f 318/1/3 309/1/3 317/1/3
f 319/1/3 309/1/3 318/1/3
f 320/1/3 242/1/3 309/1/3
f 320/1/3 309/1/3 319/1/3
f 321/1/3 311/1/3 310/1/3
f 321/1/3 312/1/3 311/1/3
f 321/1/3 313/1/3 312/1/3
f 322/1/3 315/1/3 314/1/3
f 323/1/3 315/1/3 322/1/3
f 324/1/3 317/1/3 316/1/3
f 325/1/3 317/1/3 324/1/3
f 326/1/3 319/1/3 318/1/3
f 327/1/3 319/1/3 326/1/3
f 328/1/3 242/1/3 320/1/3
f 329/1/3 327/1/3 326/1/3
f 329/1/3 328/1/3 327/1/3
f 329/1/3 325/1/3 324/1/3
f 329/1/3 323/1/3 322/1/3
f 329/1/3 326/1/3 325/1/3
f 329/1/3 321/1/3 310/1/3
f 329/1/3 324/1/3 323/1/3
f 329/1/3 322/1/3 321/1/3
f 330/1/3 328/1/3 329/1/3
f 331/1/3 328/1/3 330/1/3
f 332/1/3 328/1/3 331/1/3
f 333/1/3 328/1/3 332/1/3
f 334/1/3 328/1/3 333/1/3
f 335/1/3 328/1/3 334/1/3
f 336/1/3 242/1/3 328/1/3
f 336/1/3 328/1/3 335/1/3
f 337/1/3 329/1/3 310/1/3
f 338/1/3 331/1/3 330/1/3
f 339/1/3 331/1/3 338/1/3
f 340/1/3 333/1/3 332/1/3
f 341/1/3 333/1/3 340/1/3
f 342/1/3 335/1/3 334/1/3
f 343/1/3 335/1/3 342/1/3
f 344/1/3 242/1/3 336/1/3
f 345/1/3 341/1/3 340/1/3
f 345/1/3 344/1/3 343/1/3
f 345/1/3 343/1/3 342/1/3
f 345/1/3 339/1/3 338/1/3
f 345/1/3 342/1/3 341/1/3
f 345/1/3 337/1/3 310/1/3
f 345/1/3 340/1/3 339/1/3
f 345/1/3 338/1/3 337/1/3
f 346/1/3 344/1/3 345/1/3
f 347/1/3 344/1/3 346/1/3
f 348/1/3 344/1/3 347/1/3
f 349/1/3 344/1/3 348/1/3
f 350/1/3 344/1/3 349/1/3
f 351/1/3 344/1/3 350/1/3
f 352/1/3 242/1/3 344/1/3
f 352/1/3 344/1/3 351/1/3
f 353/1/3 345/1/3 310/1/3
f 354/1/3 347/1/3 346/1/3
f 355/1/3 347/1/3 354/1/3
f 356/1/3 349/1/3 348/1/3
f 357/1/3 349/1/3 356/1/3
f 358/1/3 351/1/3 350/1/3
f 359/1/3 351/1/3 358/1/3
f 360/1/3 242/1/3 352/1/3
f 361/1/3 357/1/3 356/1/3
f 361/1/3 360/1/3 359/1/3
f 361/1/3 310/1/3 241/1/3
f 361/1/3 359/1/3 358/1/3
f 361/1/3 358/1/3 357/1/3
f 361/1/3 355/1/3 354/1/3
f 361/1/3 356/1/3 355/1/3
f 361/1/3 353/1/3 310/1/3
f 361/1/3 354/1/3 353/1/3
f 362/1/3 242/1/3 360/1/3
f 362/1/3 360/1/3 361/1/3
f 371/3/3 364/3/3 363/3/3
f 372/3/3 364/3/3 371/3/3
f 373/3/3 366/3/3 365/3/3
f 374/3/3 366/3/3 373/3/3
f 375/3/3 368/3/3 367/3/3
f 376/3/3 368/3/3 375/3/3
f 377/3/3 370/3/3 369/3/3
f 378/3/3 370/3/3 377/3/3
f 387/3/3 380/3/3 379/3/3
f 388/3/3 380/3/3 387/3/3
f 389/3/3 382/3/3 381/3/3
f 390/3/3 382/3/3 389/3/3
f 391/3/3 384/3/3 383/3/3
f 392/3/3 384/3/3 391/3/3
f 393/3/3 386/3/3 385/3/3
f 394/3/3 386/3/3 393/3/3
f 403/3/3 396/3/3 395/3/3
f 404/3/3 396/3/3 403/3/3
f 405/3/3 398/3/3 397/3/3
f 406/3/3 398/3/3 405/3/3
f 407/3/3 400/3/3 399/3/3
f 408/3/3 400/3/3 407/3/3
f 409/3/3 402/3/3 401/3/3
f 410/3/3 402/3/3 409/3/3
f 421/3/3 414/3/3 413/3/3
f 422/3/3 414/3/3 421/3/3
f 423/3/3 416/3/3 415/3/3
f 424/3/3 416/3/3 423/3/3
f 425/3/3 418/3/3 417/3/3
f 426/3/3 418/3/3 425/3/3
f 427/3/3 420/3/3 419/3/3
f 428/3/3 420/3/3 427/3/3
f 429/3/3 412/3/3 411/3/3
f 430/3/3 412/3/3 429/3/3
f 439/3/3 432/3/3 431/3/3
f 440/3/3 432/3/3 439/3/3
f 441/3/3 434/3/3 433/3/3
f 442/3/3 434/3/3 441/3/3
f 443/3/3 436/3/3 435/3/3
f 444/3/3 436/3/3 443/3/3
f 445/3/3 438/3/3 437/3/3
f 446/3/3 438/3/3 445/3/3
f 455/3/3 448/3/3 447/3/3
f 456/3/3 448/3/3 455/3/3
f 457/3/3 450/3/3 449/3/3
f 458/3/3 450/3/3 457/3/3
f 459/3/3 452/3/3 451/3/3
f 460/3/3 452/3/3 459/3/3
f 461/3/3 454/3/3 453/3/3
f 462/3/3 454/3/3 461/3/3
f 471/3/3 464/3/3 463/3/3
f 472/3/3 464/3/3 471/3/3
f 473/3/3 466/3/3 465/3/3
f 474/3/3 466/3/3 473/3/3
f 475/3/3 468/3/3 467/3/3
f 476/3/3 468/3/3 475/3/3
f 477/3/3 470/3/3 469/3/3
f 478/3/3 470/3/3 477/3/3
f 479/1/4 480/1/4 481/1/4
f 481/1/4 480/1/4 482/1/4
f 485/1/5 484/1/5 483/1/5
f 486/1/5 484/1/5 485/1/5
f 489/1/5 488/1/5 487/1/5
f 490/1/5 488/1/5 489/1/5
f 505/1/5 492/1/5 491/1/5
f 506/1/5 492/1/5 505/1/5
f 507/1/5 494/1/5 493/1/5
f 508/1/5 494/1/5 507/1/5
f 509/1/5 496/1/5 495/1/5
f 510/1/5 496/1/5 509/1/5
f 511/1/5 498/1/5 497/1/5
f 512/1/5 498/1/5 511/1/5
f 513/1/5 500/1/5 499/1/5
f 514/1/5 500/1/5 513/1/5
f 515/1/5 502/1/5 501/1/5
f 516/1/5 502/1/5 515/1/5
f 517/1/5 504/1/5 503/1/5
f 518/1/5 504/1/5 517/1/5
f 533/1/5 520/1/5 519/1/5
f 534/1/5 520/1/5 533/1/5
f 535/1/5 522/1/5 521/1/5
f 536/1/5 522/1/5 535/1/5
f 537/1/5 524/1/5 523/1/5
f 538/1/5 524/1/5 537/1/5
f 539/1/5 526/1/5 525/1/5
f 540/1/5 526/1/5 539/1/5
f 541/1/5 528/1/5 527/1/5
f 542/1/5 528/1/5 541/1/5
f 543/1/5 530/1/5 529/1/5
f 544/1/5 530/1/5 543/1/5
f 545/1/5 532/1/5 531/1/5
f 546/1/5 532/1/5 545/1/5
f 561/1/5 548/1/5 547/1/5
f 562/1/5 548/1/5 561/1/5
f 563/1/5 550/1/5 549/1/5
f 564/1/5 550/1/5 563/1/5
f 565/1/5 552/1/5 551/1/5
f 566/1/5 552/1/5 565/1/5
f 567/1/5 554/1/5 553/1/5
f 568/1/5 554/1/5 567/1/5
f 569/1/5 556/1/5 555/1/5
f 570/1/5 556/1/5 569/1/5
f 571/1/5 558/1/5 557/1/5
f 572/1/5 558/1/5 571/1/5
f 573/1/5 560/1/5 559/1/5
f 574/1/5 560/1/5 573/1/5
f 589/1/5 576/1/5 575/1/5
f 590/1/5 576/1/5 589/1/5
f 591/1/5 578/1/5 577/1/5
f 592/1/5 578/1/5 591/1/5
f 593/1/5 580/1/5 579/1/5
f 594/1/5 580/1/5 593/1/5
f 595/1/5 582/1/5 581/1/5
f 596/1/5 582/1/5 595/1/5
f 597/1/5 584/1/5 583/1/5
f 598/1/5 584/1/5 597/1/5
f 599/1/5 586/1/5 585/1/5
f 600/1/5 586/1/5 599/1/5
f 601/1/5 588/1/5 587/1/5
f 602/1/5 588/1/5 601/1/5
f 603/2/6 604/2/6 605/2/6
f 605/2/6 604/2/6 606/2/6
f 607/1/6 608/1/6 621/1/6
f 621/1/6 608/1/6 622/1/6
f 609/1/6 610/1/6 623/1/6
f 623/1/6 610/1/6 624/1/6
f 611/1/6 612/1/6 625/1/6
f 625/1/6 612/1/6 626/1/6
f 613/1/6 614/1/6 627/1/6
f 627/1/6 614/1/6 628/1/6
f 615/1/6 616/1/6 629/1/6
f 629/1/6 616/1/6 630/1/6
f 617/1/6 618/1/6 631/1/6
f 631/1/6 618/1/6 632/1/6
f 619/1/6 620/1/6 633/1/6
f 633/1/6 620/1/6 634/1/6
f 635/1/6 636/1/6 649/1/6
f 649/1/6 636/1/6 650/1/6
f 637/1/6 638/1/6 651/1/6
f 651/1/6 638/1/6 652/1/6
f 639/1/6 640/1/6 653/1/6
f 653/1/6 640/1/6 654/1/6
f 641/1/6 642/1/6 655/1/6
f 655/1/6 642/1/6 656/1/6
f 643/1/6 644/1/6 657/1/6
f 657/1/6 644/1/6 658/1/6
f 645/1/6 646/1/6 659/1/6
f 659/1/6 646/1/6 660/1/6
f 647/1/6 648/1/6 661/1/6
f 661/1/6 648/1/6 662/1/6
f 663/1/6 664/1/6 677/1/6
f 677/1/6 664/1/6 678/1/6
f 665/1/6 666/1/6 679/1/6
f 679/1/6 666/1/6 680/1/6
f 667/1/6 668/1/6 681/1/6
f 681/1/6 668/1/6 682/1/6
f 669/1/6 670/1/6 683/1/6
f 683/1/6 670/1/6 684/1/6
f 671/1/6 672/1/6 685/1/6
f 685/1/6 672/1/6 686/1/6
f 673/1/6 674/1/6 687/1/6
f 687/1/6 674/1/6 688/1/6
f 675/1/6 676/1/6 689/1/6
f 689/1/6 676/1/6 690/1/6
f 691/1/6 692/1/6 705/1/6
f 705/1/6 692/1/6 706/1/6
f 693/1/6 694/1/6 707/1/6
f 707/1/6 694/1/6 708/1/6
f 695/1/6 696/1/6 709/1/6
f 709/1/6 696/1/6 710/1/6
f 697/1/6 698/1/6 711/1/6
f 711/1/6 698/1/6 712/1/6
f 699/1/6 700/1/6 713/1/6
f 713/1/6 700/1/6 714/1/6
f 701/1/6 702/1/6 715/1/6
f 715/1/6 702/1/6 716/1/6
f 703/1/6 704/1/6 717/1/6
f 717/1/6 704/1/6 718/1/6
f 719/1/6 720/1/6 721/1/6
f 721/1/6 720/1/6 722/1/6
