# MagicaVoxel @ Ephtracy

# group
g building17

# material
mtllib building17.mtl
usemtl palette

# normals
vn -1 0 0
vn 1 0 0
vn 0 0 1
vn 0 0 -1
vn 0 -1 0
vn 0 1 0

# texcoords
vt 0.810547 0.5
vt 0.841797 0.5
vt 0.904297 0.5
vt 0.935547 0.5

# verts
v -5.5 0 12
v -5.5 0 -12
v -5.5 32 12
v -5.5 32 -12
v -4.5 32 6
v -4.5 32 2
v -4.5 32 -1
v -4.5 32 -5
v -4.5 32 -8
v -4.5 32 -11
v -4.5 33 6
v -4.5 33 2
v -4.5 33 -1
v -4.5 33 -5
v -4.5 34 -8
v -4.5 34 -11
v -1.5 7 12
v -1.5 7 11
v -1.5 10 12
v -1.5 10 11
v -1.5 12 12
v -1.5 12 11
v -1.5 15 12
v -1.5 15 11
v -1.5 17 12
v -1.5 17 11
v -1.5 20 12
v -1.5 20 11
v -1.5 22 12
v -1.5 22 11
v -1.5 25 12
v -1.5 25 11
v -1.5 27 12
v -1.5 27 11
v -1.5 30 12
v -1.5 30 11
v 0.5 34 -8
v 0.5 34 -11
v 0.5 36 -8
v 0.5 36 -11
v 2.5 2 12
v 2.5 2 11
v 2.5 6 12
v 2.5 6 11
v 3.5 7 12
v 3.5 7 11
v 3.5 10 12
v 3.5 10 11
v 3.5 12 12
v 3.5 12 11
v 3.5 15 12
v 3.5 15 11
v 3.5 17 12
v 3.5 17 11
v 3.5 20 12
v 3.5 20 11
v 3.5 22 12
v 3.5 22 11
v 3.5 25 12
v 3.5 25 11
v 3.5 27 12
v 3.5 27 11
v 3.5 30 12
v 3.5 30 11
v -3.5 7 12
v -3.5 7 11
v -3.5 10 12
v -3.5 10 11
v -3.5 12 12
v -3.5 12 11
v -3.5 15 12
v -3.5 15 11
v -3.5 17 12
v -3.5 17 11
v -3.5 20 12
v -3.5 20 11
v -3.5 22 12
v -3.5 22 11
v -3.5 25 12
v -3.5 25 11
v -3.5 27 12
v -3.5 27 11
v -3.5 30 12
v -3.5 30 11
v -2.5 2 12
v -2.5 2 11
v -2.5 6 12
v -2.5 6 11
v -2.5 32 6
v -2.5 32 2
v -2.5 32 -1
v -2.5 32 -5
v -2.5 33 6
v -2.5 33 2
v -2.5 33 -1
v -2.5 33 -5
v 1.5 7 12
v 1.5 7 11
v 1.5 10 12
v 1.5 10 11
v 1.5 12 12
v 1.5 12 11
v 1.5 15 12
v 1.5 15 11
v 1.5 17 12
v 1.5 17 11
v 1.5 20 12
v 1.5 20 11
v 1.5 22 12
v 1.5 22 11
v 1.5 25 12
v 1.5 25 11
v 1.5 27 12
v 1.5 27 11
v 1.5 30 12
v 1.5 30 11
v 4.5 32 -8
v 4.5 32 -11
v 4.5 36 -8
v 4.5 36 -11
v 5.5 0 12
v 5.5 0 -12
v 5.5 32 12
v 5.5 32 -12
v -5.5 0 12
v -5.5 32 12
v -3.5 7 12
v -3.5 10 12
v -3.5 12 12
v -3.5 15 12
v -3.5 17 12
v -3.5 20 12
v -3.5 22 12
v -3.5 25 12
v -3.5 27 12
v -3.5 30 12
v -2.5 1 12
v -2.5 2 12
v -2.5 6 12
v -1.5 7 12
v -1.5 10 12
v -1.5 12 12
v -1.5 15 12
v -1.5 17 12
v -1.5 20 12
v -1.5 22 12
v -1.5 25 12
v -1.5 27 12
v -1.5 30 12
v -0.5 7 12
v -0.5 31 12
v 0.5 7 12
v 0.5 31 12
v 1.5 7 12
v 1.5 10 12
v 1.5 12 12
v 1.5 15 12
v 1.5 17 12
v 1.5 20 12
v 1.5 22 12
v 1.5 25 12
v 1.5 27 12
v 1.5 30 12
v 2.5 1 12
v 2.5 2 12
v 2.5 6 12
v 3.5 7 12
v 3.5 10 12
v 3.5 12 12
v 3.5 15 12
v 3.5 17 12
v 3.5 20 12
v 3.5 22 12
v 3.5 25 12
v 3.5 27 12
v 3.5 30 12
v 5.5 0 12
v 5.5 32 12
v -3.5 7 11
v -3.5 10 11
v -3.5 12 11
v -3.5 15 11
v -3.5 17 11
v -3.5 20 11
v -3.5 22 11
v -3.5 25 11
v -3.5 27 11
v -3.5 30 11
v -2.5 2 11
v -2.5 6 11
v -1.5 7 11
v -1.5 10 11
v -1.5 12 11
v -1.5 15 11
v -1.5 17 11
v -1.5 20 11
v -1.5 22 11
v -1.5 25 11
v -1.5 27 11
v -1.5 30 11
v 1.5 7 11
v 1.5 10 11
v 1.5 12 11
v 1.5 15 11
v 1.5 17 11
v 1.5 20 11
v 1.5 22 11
v 1.5 25 11
v 1.5 27 11
v 1.5 30 11
v 2.5 2 11
v 2.5 6 11
v 3.5 7 11
v 3.5 10 11
v 3.5 12 11
v 3.5 15 11
v 3.5 17 11
v 3.5 20 11
v 3.5 22 11
v 3.5 25 11
v 3.5 27 11
v 3.5 30 11
v -4.5 32 6
v -4.5 33 6
v -2.5 32 6
v -2.5 33 6
v -4.5 32 -1
v -4.5 33 -1
v -2.5 32 -1
v -2.5 33 -1
v -4.5 32 -8
v -4.5 34 -8
v 0.5 34 -8
v 0.5 36 -8
v 4.5 32 -8
v 4.5 36 -8
v -4.5 32 2
v -4.5 33 2
v -2.5 32 2
v -2.5 33 2
v -4.5 32 -5
v -4.5 33 -5
v -2.5 32 -5
v -2.5 33 -5
v -4.5 32 -11
v -4.5 34 -11
v 0.5 34 -11
v 0.5 36 -11
v 4.5 32 -11
v 4.5 36 -11
v -5.5 0 -12
v -5.5 32 -12
v 5.5 0 -12
v 5.5 32 -12
v -5.5 0 12
v 5.5 0 12
v -5.5 0 -12
v 5.5 0 -12
v -2.5 6 12
v 2.5 6 12
v -2.5 6 11
v 2.5 6 11
v -3.5 10 12
v -1.5 10 12
v 1.5 10 12
v 3.5 10 12
v -3.5 10 11
v -1.5 10 11
v 1.5 10 11
v 3.5 10 11
v -3.5 15 12
v -1.5 15 12
v 1.5 15 12
v 3.5 15 12
v -3.5 15 11
v -1.5 15 11
v 1.5 15 11
v 3.5 15 11
v -3.5 20 12
v -1.5 20 12
v 1.5 20 12
v 3.5 20 12
v -3.5 20 11
v -1.5 20 11
v 1.5 20 11
v 3.5 20 11
v -3.5 25 12
v -1.5 25 12
v 1.5 25 12
v 3.5 25 12
v -3.5 25 11
v -1.5 25 11
v 1.5 25 11
v 3.5 25 11
v -3.5 30 12
v -1.5 30 12
v 1.5 30 12
v 3.5 30 12
v -3.5 30 11
v -1.5 30 11
v 1.5 30 11
v 3.5 30 11
v -2.5 2 12
v 2.5 2 12
v -2.5 2 11
v 2.5 2 11
v -3.5 7 12
v -1.5 7 12
v 1.5 7 12
v 3.5 7 12
v -3.5 7 11
v -1.5 7 11
v 1.5 7 11
v 3.5 7 11
v -3.5 12 12
v -1.5 12 12
v 1.5 12 12
v 3.5 12 12
v -3.5 12 11
v -1.5 12 11
v 1.5 12 11
v 3.5 12 11
v -3.5 17 12
v -1.5 17 12
v 1.5 17 12
v 3.5 17 12
v -3.5 17 11
v -1.5 17 11
v 1.5 17 11
v 3.5 17 11
v -3.5 22 12
v -1.5 22 12
v 1.5 22 12
v 3.5 22 12
v -3.5 22 11
v -1.5 22 11
v 1.5 22 11
v 3.5 22 11
v -3.5 27 12
v -1.5 27 12
v 1.5 27 12
v 3.5 27 12
v -3.5 27 11
v -1.5 27 11
v 1.5 27 11
v 3.5 27 11
v -5.5 32 12
v 5.5 32 12
v -4.5 32 6
v -2.5 32 6
v -4.5 32 2
v -2.5 32 2
v -4.5 32 -1
v -2.5 32 -1
v -4.5 32 -5
v -2.5 32 -5
v -4.5 32 -8
v 4.5 32 -8
v -4.5 32 -11
v 4.5 32 -11
v -5.5 32 -12
v 5.5 32 -12
v -4.5 33 6
v -2.5 33 6
v -4.5 33 2
v -2.5 33 2
v -4.5 33 -1
v -2.5 33 -1
v -4.5 33 -5
v -2.5 33 -5
v -4.5 34 -8
v 0.5 34 -8
v -4.5 34 -11
v 0.5 34 -11
v 0.5 36 -8
v 4.5 36 -8
v 0.5 36 -11
v 4.5 36 -11

# faces
f 3/1/1 2/1/1 1/1/1
f 4/1/1 2/1/1 3/1/1
f 11/2/1 6/2/1 5/2/1
f 12/2/1 6/2/1 11/2/1
f 13/2/1 8/2/1 7/2/1
f 14/2/1 8/2/1 13/2/1
f 15/2/1 10/2/1 9/2/1
f 16/2/1 10/2/1 15/2/1
f 19/1/1 18/1/1 17/1/1
f 20/1/1 18/1/1 19/1/1
f 23/1/1 22/1/1 21/1/1
f 24/1/1 22/1/1 23/1/1
f 27/1/1 26/1/1 25/1/1
f 28/1/1 26/1/1 27/1/1
f 31/1/1 30/1/1 29/1/1
f 32/1/1 30/1/1 31/1/1
f 35/1/1 34/1/1 33/1/1
f 36/1/1 34/1/1 35/1/1
f 39/2/1 38/2/1 37/2/1
f 40/2/1 38/2/1 39/2/1
f 43/1/1 42/1/1 41/1/1
f 44/1/1 42/1/1 43/1/1
f 47/1/1 46/1/1 45/1/1
f 48/1/1 46/1/1 47/1/1
f 51/1/1 50/1/1 49/1/1
f 52/1/1 50/1/1 51/1/1
f 55/1/1 54/1/1 53/1/1
f 56/1/1 54/1/1 55/1/1
f 59/1/1 58/1/1 57/1/1
f 60/1/1 58/1/1 59/1/1
f 63/1/1 62/1/1 61/1/1
f 64/1/1 62/1/1 63/1/1
f 65/1/2 66/1/2 67/1/2
f 67/1/2 66/1/2 68/1/2
f 69/1/2 70/1/2 71/1/2
f 71/1/2 70/1/2 72/1/2
f 73/1/2 74/1/2 75/1/2
f 75/1/2 74/1/2 76/1/2
f 77/1/2 78/1/2 79/1/2
f 79/1/2 78/1/2 80/1/2
f 81/1/2 82/1/2 83/1/2
f 83/1/2 82/1/2 84/1/2
f 85/1/2 86/1/2 87/1/2
f 87/1/2 86/1/2 88/1/2
f 89/2/2 90/2/2 93/2/2
f 93/2/2 90/2/2 94/2/2
f 91/2/2 92/2/2 95/2/2
f 95/2/2 92/2/2 96/2/2
f 97/1/2 98/1/2 99/1/2
f 99/1/2 98/1/2 100/1/2
f 101/1/2 102/1/2 103/1/2
f 103/1/2 102/1/2 104/1/2
f 105/1/2 106/1/2 107/1/2
f 107/1/2 106/1/2 108/1/2
f 109/1/2 110/1/2 111/1/2
f 111/1/2 110/1/2 112/1/2
f 113/1/2 114/1/2 115/1/2
f 115/1/2 114/1/2 116/1/2
f 117/2/2 118/2/2 119/2/2
f 119/2/2 118/2/2 120/2/2
f 121/1/2 122/1/2 123/1/2
f 123/1/2 122/1/2 124/1/2
f 127/1/3 126/1/3 125/1/3
f 128/1/3 126/1/3 127/1/3
f 129/1/3 126/1/3 128/1/3
f 130/1/3 126/1/3 129/1/3
f 131/1/3 126/1/3 130/1/3
f 132/1/3 126/1/3 131/1/3
f 133/1/3 126/1/3 132/1/3
f 134/1/3 126/1/3 133/1/3
f 135/1/3 126/1/3 134/1/3
f 136/1/3 126/1/3 135/1/3
f 137/1/3 127/1/3 125/1/3
f 138/1/3 127/1/3 137/1/3
f 139/1/3 127/1/3 138/1/3
f 140/1/3 127/1/3 139/1/3
f 141/1/3 129/1/3 128/1/3
f 142/1/3 129/1/3 141/1/3
f 143/1/3 131/1/3 130/1/3
f 144/1/3 131/1/3 143/1/3
f 145/1/3 133/1/3 132/1/3
f 146/1/3 133/1/3 145/1/3
f 147/1/3 135/1/3 134/1/3
f 148/1/3 135/1/3 147/1/3
f 149/1/3 126/1/3 136/1/3
f 150/1/3 148/1/3 147/1/3
f 150/1/3 149/1/3 148/1/3
f 150/1/3 146/1/3 145/1/3
f 150/1/3 140/1/3 139/1/3
f 150/1/3 147/1/3 146/1/3
f 150/1/3 144/1/3 143/1/3
f 150/1/3 145/1/3 144/1/3
f 150/1/3 142/1/3 141/1/3
f 150/1/3 143/1/3 142/1/3
f 150/1/3 141/1/3 140/1/3
f 151/1/3 126/1/3 149/1/3
f 151/1/3 149/1/3 150/1/3
f 152/1/3 150/1/3 139/1/3
f 152/2/3 151/2/3 150/2/3
f 153/1/3 126/1/3 151/1/3
f 153/2/3 151/2/3 152/2/3
f 154/1/3 152/1/3 139/1/3
f 154/1/3 153/1/3 152/1/3
f 155/1/3 153/1/3 154/1/3
f 156/1/3 153/1/3 155/1/3
f 157/1/3 153/1/3 156/1/3
f 158/1/3 153/1/3 157/1/3
f 159/1/3 153/1/3 158/1/3
f 160/1/3 153/1/3 159/1/3
f 161/1/3 153/1/3 160/1/3
f 162/1/3 153/1/3 161/1/3
f 163/1/3 153/1/3 162/1/3
f 164/1/3 137/1/3 125/1/3
f 164/3/3 138/3/3 137/3/3
f 165/3/3 138/3/3 164/3/3
f 166/1/3 154/1/3 139/1/3
f 167/1/3 165/1/3 164/1/3
f 167/1/3 166/1/3 165/1/3
f 167/1/3 154/1/3 166/1/3
f 168/1/3 156/1/3 155/1/3
f 169/1/3 156/1/3 168/1/3
f 170/1/3 158/1/3 157/1/3
f 171/1/3 158/1/3 170/1/3
f 172/1/3 160/1/3 159/1/3
f 173/1/3 160/1/3 172/1/3
f 174/1/3 162/1/3 161/1/3
f 175/1/3 162/1/3 174/1/3
f 176/1/3 153/1/3 163/1/3
f 177/1/3 175/1/3 174/1/3
f 177/1/3 176/1/3 175/1/3
f 177/1/3 173/1/3 172/1/3
f 177/1/3 171/1/3 170/1/3
f 177/1/3 174/1/3 173/1/3
f 177/1/3 167/1/3 164/1/3
f 177/1/3 172/1/3 171/1/3
f 177/1/3 169/1/3 168/1/3
f 177/1/3 170/1/3 169/1/3
f 177/1/3 164/1/3 125/1/3
f 177/1/3 168/1/3 167/1/3
f 178/1/3 126/1/3 153/1/3
f 178/1/3 176/1/3 177/1/3
f 178/1/3 153/1/3 176/1/3
f 191/4/3 180/4/3 179/4/3
f 192/4/3 180/4/3 191/4/3
f 193/4/3 182/4/3 181/4/3
f 194/4/3 182/4/3 193/4/3
f 195/4/3 184/4/3 183/4/3
f 196/4/3 184/4/3 195/4/3
f 197/4/3 186/4/3 185/4/3
f 198/4/3 186/4/3 197/4/3
f 199/4/3 188/4/3 187/4/3
f 200/4/3 188/4/3 199/4/3
f 211/4/3 190/4/3 189/4/3
f 212/4/3 190/4/3 211/4/3
f 213/4/3 202/4/3 201/4/3
f 214/4/3 202/4/3 213/4/3
f 215/4/3 204/4/3 203/4/3
f 216/4/3 204/4/3 215/4/3
f 217/4/3 206/4/3 205/4/3
f 218/4/3 206/4/3 217/4/3
f 219/4/3 208/4/3 207/4/3
f 220/4/3 208/4/3 219/4/3
f 221/4/3 210/4/3 209/4/3
f 222/4/3 210/4/3 221/4/3
f 225/2/3 224/2/3 223/2/3
f 226/2/3 224/2/3 225/2/3
f 229/2/3 228/2/3 227/2/3
f 230/2/3 228/2/3 229/2/3
f 233/2/3 232/2/3 231/2/3
f 235/2/3 233/2/3 231/2/3
f 235/2/3 234/2/3 233/2/3
f 236/2/3 234/2/3 235/2/3
f 237/2/4 238/2/4 239/2/4
f 239/2/4 238/2/4 240/2/4
f 241/2/4 242/2/4 243/2/4
f 243/2/4 242/2/4 244/2/4
f 245/2/4 246/2/4 247/2/4
f 245/2/4 247/2/4 249/2/4
f 247/2/4 248/2/4 249/2/4
f 249/2/4 248/2/4 250/2/4
f 251/1/4 252/1/4 253/1/4
f 253/1/4 252/1/4 254/1/4
f 257/1/5 256/1/5 255/1/5
f 258/1/5 256/1/5 257/1/5
f 261/1/5 260/1/5 259/1/5
f 262/1/5 260/1/5 261/1/5
f 267/1/5 264/1/5 263/1/5
f 268/1/5 264/1/5 267/1/5
f 269/1/5 266/1/5 265/1/5
f 270/1/5 266/1/5 269/1/5
f 275/1/5 272/1/5 271/1/5
f 276/1/5 272/1/5 275/1/5
f 277/1/5 274/1/5 273/1/5
f 278/1/5 274/1/5 277/1/5
f 283/1/5 280/1/5 279/1/5
f 284/1/5 280/1/5 283/1/5
f 285/1/5 282/1/5 281/1/5
f 286/1/5 282/1/5 285/1/5
f 291/1/5 288/1/5 287/1/5
f 292/1/5 288/1/5 291/1/5
f 293/1/5 290/1/5 289/1/5
f 294/1/5 290/1/5 293/1/5
f 299/1/5 296/1/5 295/1/5
f 300/1/5 296/1/5 299/1/5
f 301/1/5 298/1/5 297/1/5
f 302/1/5 298/1/5 301/1/5
f 303/3/6 304/3/6 305/3/6
f 305/3/6 304/3/6 306/3/6
f 307/1/6 308/1/6 311/1/6
f 311/1/6 308/1/6 312/1/6
f 309/1/6 310/1/6 313/1/6
f 313/1/6 310/1/6 314/1/6
f 315/1/6 316/1/6 319/1/6
f 319/1/6 316/1/6 320/1/6
f 317/1/6 318/1/6 321/1/6
f 321/1/6 318/1/6 322/1/6
f 323/1/6 324/1/6 327/1/6
f 327/1/6 324/1/6 328/1/6
f 325/1/6 326/1/6 329/1/6
f 329/1/6 326/1/6 330/1/6
f 331/1/6 332/1/6 335/1/6
f 335/1/6 332/1/6 336/1/6
f 333/1/6 334/1/6 337/1/6
f 337/1/6 334/1/6 338/1/6
f 339/1/6 340/1/6 343/1/6
f 343/1/6 340/1/6 344/1/6
f 341/1/6 342/1/6 345/1/6
f 345/1/6 342/1/6 346/1/6
f 347/1/6 348/1/6 349/1/6
f 349/1/6 348/1/6 350/1/6
f 347/1/6 349/1/6 351/1/6
f 350/1/6 348/1/6 352/1/6
f 347/1/6 351/1/6 353/1/6
f 351/1/6 352/1/6 353/1/6
f 352/1/6 348/1/6 354/1/6
f 353/1/6 352/1/6 354/1/6
f 347/1/6 353/1/6 355/1/6
f 354/1/6 348/1/6 356/1/6
f 347/1/6 355/1/6 357/1/6
f 355/1/6 356/1/6 357/1/6
f 356/1/6 348/1/6 358/1/6
f 357/1/6 356/1/6 358/1/6
f 347/1/6 357/1/6 359/1/6
f 358/1/6 348/1/6 360/1/6
f 347/1/6 359/1/6 361/1/6
f 359/1/6 360/1/6 361/1/6
f 360/1/6 348/1/6 362/1/6
f 361/1/6 360/1/6 362/1/6
f 363/2/6 364/2/6 365/2/6
f 365/2/6 364/2/6 366/2/6
f 367/2/6 368/2/6 369/2/6
f 369/2/6 368/2/6 370/2/6
f 371/2/6 372/2/6 373/2/6
f 373/2/6 372/2/6 374/2/6
f 375/2/6 376/2/6 377/2/6
f 377/2/6 376/2/6 378/2/6
