# MagicaVoxel @ Ephtracy

# group
g building2

# material
mtllib building2.mtl
usemtl palette

# normals
vn -1 0 0
vn 1 0 0
vn 0 0 1
vn 0 0 -1
vn 0 -1 0
vn 0 1 0

# texcoords
vt 0.810547 0.5
vt 0.904297 0.5
vt 0.935547 0.5
vt 0.994141 0.5

# verts
v -7 0 9
v -7 0 -10
v -7 1 -5
v -7 1 -8
v -7 2 -5
v -7 2 -8
v -7 6 -5
v -7 6 -8
v -7 9 6
v -7 9 4
v -7 9 2
v -7 9 -0
v -7 9 -2
v -7 9 -4
v -7 9 -6
v -7 9 -8
v -7 12 6
v -7 12 4
v -7 12 2
v -7 12 -0
v -7 12 -2
v -7 12 -4
v -7 12 -6
v -7 12 -8
v -7 13 6
v -7 13 4
v -7 13 2
v -7 13 -0
v -7 13 -2
v -7 13 -4
v -7 13 -6
v -7 13 -8
v -7 16 6
v -7 16 4
v -7 16 2
v -7 16 -0
v -7 16 -2
v -7 16 -4
v -7 16 -6
v -7 16 -8
v -7 18 6
v -7 18 4
v -7 18 2
v -7 18 -0
v -7 18 -2
v -7 18 -4
v -7 18 -6
v -7 18 -8
v -7 21 6
v -7 21 4
v -7 21 2
v -7 21 -0
v -7 21 -2
v -7 21 -4
v -7 21 -6
v -7 21 -8
v -7 23 6
v -7 23 4
v -7 23 2
v -7 23 -0
v -7 23 -2
v -7 23 -4
v -7 23 -6
v -7 23 -8
v -7 26 6
v -7 26 4
v -7 26 2
v -7 26 -0
v -7 26 -2
v -7 26 -4
v -7 26 -6
v -7 26 -8
v -7 27 9
v -7 27 -10
v -6 0 10
v -6 0 9
v -6 2 -5
v -6 2 -8
v -6 6 -5
v -6 6 -8
v -6 9 6
v -6 9 4
v -6 9 2
v -6 9 -0
v -6 9 -2
v -6 9 -4
v -6 9 -6
v -6 9 -8
v -6 12 6
v -6 12 4
v -6 12 2
v -6 12 -0
v -6 12 -2
v -6 12 -4
v -6 12 -6
v -6 12 -8
v -6 13 6
v -6 13 4
v -6 13 2
v -6 13 -0
v -6 13 -2
v -6 13 -4
v -6 13 -6
v -6 13 -8
v -6 16 6
v -6 16 4
v -6 16 2
v -6 16 -0
v -6 16 -2
v -6 16 -4
v -6 16 -6
v -6 16 -8
v -6 18 6
v -6 18 4
v -6 18 2
v -6 18 -0
v -6 18 -2
v -6 18 -4
v -6 18 -6
v -6 18 -8
v -6 21 6
v -6 21 4
v -6 21 2
v -6 21 -0
v -6 21 -2
v -6 21 -4
v -6 21 -6
v -6 21 -8
v -6 23 6
v -6 23 4
v -6 23 2
v -6 23 -0
v -6 23 -2
v -6 23 -4
v -6 23 -6
v -6 23 -8
v -6 26 6
v -6 26 4
v -6 26 2
v -6 26 -0
v -6 26 -2
v -6 26 -4
v -6 26 -6
v -6 26 -8
v -6 27 10
v -6 27 9
v -1 8 10
v -1 8 9
v -1 11 10
v -1 11 9
v -1 13 10
v -1 13 9
v -1 16 10
v -1 16 9
v -1 18 10
v -1 18 9
v -1 21 10
v -1 21 9
v -1 23 10
v -1 23 9
v -1 26 10
v -1 26 9
v 0 27 5
v 0 27 -10
v 0 28 5
v 0 28 -10
v 2 8 10
v 2 8 9
v 2 11 10
v 2 11 9
v 2 13 10
v 2 13 9
v 2 16 10
v 2 16 9
v 2 18 10
v 2 18 9
v 2 21 10
v 2 21 9
v 2 23 10
v 2 23 9
v 2 26 10
v 2 26 9
v 5 8 10
v 5 8 9
v 5 11 10
v 5 11 9
v 5 13 10
v 5 13 9
v 5 16 10
v 5 16 9
v 5 18 10
v 5 18 9
v 5 21 10
v 5 21 9
v 5 23 10
v 5 23 9
v 5 26 10
v 5 26 9
v -3 8 10
v -3 8 9
v -3 11 10
v -3 11 9
v -3 13 10
v -3 13 9
v -3 16 10
v -3 16 9
v -3 18 10
v -3 18 9
v -3 21 10
v -3 21 9
v -3 23 10
v -3 23 9
v -3 26 10
v -3 26 9
v 0 8 10
v 0 8 9
v 0 11 10
v 0 11 9
v 0 13 10
v 0 13 9
v 0 16 10
v 0 16 9
v 0 18 10
v 0 18 9
v 0 21 10
v 0 21 9
v 0 23 10
v 0 23 9
v 0 26 10
v 0 26 9
v 3 8 10
v 3 8 9
v 3 11 10
v 3 11 9
v 3 13 10
v 3 13 9
v 3 16 10
v 3 16 9
v 3 18 10
v 3 18 9
v 3 21 10
v 3 21 9
v 3 23 10
v 3 23 9
v 3 26 10
v 3 26 9
v 7 0 10
v 7 0 -10
v 7 27 10
v 7 27 5
v 7 27 4
v 7 28 5
v 7 28 4
v 7 28 -10
v -6 0 10
v -6 27 10
v -3 8 10
v -3 11 10
v -3 13 10
v -3 16 10
v -3 18 10
v -3 21 10
v -3 23 10
v -3 26 10
v -1 8 10
v -1 11 10
v -1 13 10
v -1 16 10
v -1 18 10
v -1 21 10
v -1 23 10
v -1 26 10
v 0 8 10
v 0 11 10
v 0 13 10
v 0 16 10
v 0 18 10
v 0 21 10
v 0 23 10
v 0 26 10
v 2 8 10
v 2 11 10
v 2 13 10
v 2 16 10
v 2 18 10
v 2 21 10
v 2 23 10
v 2 26 10
v 3 8 10
v 3 11 10
v 3 13 10
v 3 16 10
v 3 18 10
v 3 21 10
v 3 23 10
v 3 26 10
v 5 8 10
v 5 11 10
v 5 13 10
v 5 16 10
v 5 18 10
v 5 21 10
v 5 23 10
v 5 26 10
v 7 0 10
v 7 27 10
v -7 0 9
v -7 27 9
v -6 0 9
v -6 27 9
v -3 8 9
v -3 11 9
v -3 13 9
v -3 16 9
v -3 18 9
v -3 21 9
v -3 23 9
v -3 26 9
v -1 8 9
v -1 11 9
v -1 13 9
v -1 16 9
v -1 18 9
v -1 21 9
v -1 23 9
v -1 26 9
v 0 8 9
v 0 11 9
v 0 13 9
v 0 16 9
v 0 18 9
v 0 21 9
v 0 23 9
v 0 26 9
v 2 8 9
v 2 11 9
v 2 13 9
v 2 16 9
v 2 18 9
v 2 21 9
v 2 23 9
v 2 26 9
v 3 8 9
v 3 11 9
v 3 13 9
v 3 16 9
v 3 18 9
v 3 21 9
v 3 23 9
v 3 26 9
v 5 8 9
v 5 11 9
v 5 13 9
v 5 16 9
v 5 18 9
v 5 21 9
v 5 23 9
v 5 26 9
v 0 27 5
v 0 28 5
v 7 27 5
v 7 28 5
v -7 9 4
v -7 12 4
v -7 13 4
v -7 16 4
v -7 18 4
v -7 21 4
v -7 23 4
v -7 26 4
v -6 9 4
v -6 12 4
v -6 13 4
v -6 16 4
v -6 18 4
v -6 21 4
v -6 23 4
v -6 26 4
v -7 9 -0
v -7 12 -0
v -7 13 -0
v -7 16 -0
v -7 18 -0
v -7 21 -0
v -7 23 -0
v -7 26 -0
v -6 9 -0
v -6 12 -0
v -6 13 -0
v -6 16 -0
v -6 18 -0
v -6 21 -0
v -6 23 -0
v -6 26 -0
v -7 9 -4
v -7 12 -4
v -7 13 -4
v -7 16 -4
v -7 18 -4
v -7 21 -4
v -7 23 -4
v -7 26 -4
v -6 9 -4
v -6 12 -4
v -6 13 -4
v -6 16 -4
v -6 18 -4
v -6 21 -4
v -6 23 -4
v -6 26 -4
v -7 2 -8
v -7 6 -8
v -7 9 -8
v -7 12 -8
v -7 13 -8
v -7 16 -8
v -7 18 -8
v -7 21 -8
v -7 23 -8
v -7 26 -8
v -6 2 -8
v -6 6 -8
v -6 9 -8
v -6 12 -8
v -6 13 -8
v -6 16 -8
v -6 18 -8
v -6 21 -8
v -6 23 -8
v -6 26 -8
v -7 9 6
v -7 12 6
v -7 13 6
v -7 16 6
v -7 18 6
v -7 21 6
v -7 23 6
v -7 26 6
v -6 9 6
v -6 12 6
v -6 13 6
v -6 16 6
v -6 18 6
v -6 21 6
v -6 23 6
v -6 26 6
v -7 9 2
v -7 12 2
v -7 13 2
v -7 16 2
v -7 18 2
v -7 21 2
v -7 23 2
v -7 26 2
v -6 9 2
v -6 12 2
v -6 13 2
v -6 16 2
v -6 18 2
v -6 21 2
v -6 23 2
v -6 26 2
v -7 9 -2
v -7 12 -2
v -7 13 -2
v -7 16 -2
v -7 18 -2
v -7 21 -2
v -7 23 -2
v -7 26 -2
v -6 9 -2
v -6 12 -2
v -6 13 -2
v -6 16 -2
v -6 18 -2
v -6 21 -2
v -6 23 -2
v -6 26 -2
v -7 2 -5
v -7 6 -5
v -6 2 -5
v -6 6 -5
v -7 9 -6
v -7 12 -6
v -7 13 -6
v -7 16 -6
v -7 18 -6
v -7 21 -6
v -7 23 -6
v -7 26 -6
v -6 9 -6
v -6 12 -6
v -6 13 -6
v -6 16 -6
v -6 18 -6
v -6 21 -6
v -6 23 -6
v -6 26 -6
v -7 0 -10
v -7 27 -10
v 0 27 -10
v 0 28 -10
v 1 27 -10
v 1 28 -10
v 7 0 -10
v 7 28 -10
v -6 0 10
v 7 0 10
v -7 0 9
v -6 0 9
v -7 0 -10
v 7 0 -10
v -7 6 -5
v -6 6 -5
v -7 6 -8
v -6 6 -8
v -3 11 10
v -1 11 10
v 0 11 10
v 2 11 10
v 3 11 10
v 5 11 10
v -3 11 9
v -1 11 9
v 0 11 9
v 2 11 9
v 3 11 9
v 5 11 9
v -7 12 6
v -6 12 6
v -7 12 4
v -6 12 4
v -7 12 2
v -6 12 2
v -7 12 -0
v -6 12 -0
v -7 12 -2
v -6 12 -2
v -7 12 -4
v -6 12 -4
v -7 12 -6
v -6 12 -6
v -7 12 -8
v -6 12 -8
v -3 16 10
v -1 16 10
v 0 16 10
v 2 16 10
v 3 16 10
v 5 16 10
v -3 16 9
v -1 16 9
v 0 16 9
v 2 16 9
v 3 16 9
v 5 16 9
v -7 16 6
v -6 16 6
v -7 16 4
v -6 16 4
v -7 16 2
v -6 16 2
v -7 16 -0
v -6 16 -0
v -7 16 -2
v -6 16 -2
v -7 16 -4
v -6 16 -4
v -7 16 -6
v -6 16 -6
v -7 16 -8
v -6 16 -8
v -3 21 10
v -1 21 10
v 0 21 10
v 2 21 10
v 3 21 10
v 5 21 10
v -3 21 9
v -1 21 9
v 0 21 9
v 2 21 9
v 3 21 9
v 5 21 9
v -7 21 6
v -6 21 6
v -7 21 4
v -6 21 4
v -7 21 2
v -6 21 2
v -7 21 -0
v -6 21 -0
v -7 21 -2
v -6 21 -2
v -7 21 -4
v -6 21 -4
v -7 21 -6
v -6 21 -6
v -7 21 -8
v -6 21 -8
v -3 26 10
v -1 26 10
v 0 26 10
v 2 26 10
v 3 26 10
v 5 26 10
v -3 26 9
v -1 26 9
v 0 26 9
v 2 26 9
v 3 26 9
v 5 26 9
v -7 26 6
v -6 26 6
v -7 26 4
v -6 26 4
v -7 26 2
v -6 26 2
v -7 26 -0
v -6 26 -0
v -7 26 -2
v -6 26 -2
v -7 26 -4
v -6 26 -4
v -7 26 -6
v -6 26 -6
v -7 26 -8
v -6 26 -8
v -7 2 -5
v -6 2 -5
v -7 2 -8
v -6 2 -8
v -3 8 10
v -1 8 10
v 0 8 10
v 2 8 10
v 3 8 10
v 5 8 10
v -3 8 9
v -1 8 9
v 0 8 9
v 2 8 9
v 3 8 9
v 5 8 9
v -7 9 6
v -6 9 6
v -7 9 4
v -6 9 4
v -7 9 2
v -6 9 2
v -7 9 -0
v -6 9 -0
v -7 9 -2
v -6 9 -2
v -7 9 -4
v -6 9 -4
v -7 9 -6
v -6 9 -6
v -7 9 -8
v -6 9 -8
v -3 13 10
v -1 13 10
v 0 13 10
v 2 13 10
v 3 13 10
v 5 13 10
v -3 13 9
v -1 13 9
v 0 13 9
v 2 13 9
v 3 13 9
v 5 13 9
v -7 13 6
v -6 13 6
v -7 13 4
v -6 13 4
v -7 13 2
v -6 13 2
v -7 13 -0
v -6 13 -0
v -7 13 -2
v -6 13 -2
v -7 13 -4
v -6 13 -4
v -7 13 -6
v -6 13 -6
v -7 13 -8
v -6 13 -8
v -3 18 10
v -1 18 10
v 0 18 10
v 2 18 10
v 3 18 10
v 5 18 10
v -3 18 9
v -1 18 9
v 0 18 9
v 2 18 9
v 3 18 9
v 5 18 9
v -7 18 6
v -6 18 6
v -7 18 4
v -6 18 4
v -7 18 2
v -6 18 2
v -7 18 -0
v -6 18 -0
v -7 18 -2
v -6 18 -2
v -7 18 -4
v -6 18 -4
v -7 18 -6
v -6 18 -6
v -7 18 -8
v -6 18 -8
v -3 23 10
v -1 23 10
v 0 23 10
v 2 23 10
v 3 23 10
v 5 23 10
v -3 23 9
v -1 23 9
v 0 23 9
v 2 23 9
v 3 23 9
v 5 23 9
v -7 23 6
v -6 23 6
v -7 23 4
v -6 23 4
v -7 23 2
v -6 23 2
v -7 23 -0
v -6 23 -0
v -7 23 -2
v -6 23 -2
v -7 23 -4
v -6 23 -4
v -7 23 -6
v -6 23 -6
v -7 23 -8
v -6 23 -8
v -6 27 10
v 7 27 10
v -7 27 9
v -6 27 9
v 0 27 5
v 7 27 5
v -7 27 -10
v 0 27 -10
v 0 28 5
v 7 28 5
v 1 28 4
v 7 28 4
v 0 28 -10
v 1 28 -10
v 7 28 -10

# faces
f 3/1/1 2/1/1 1/1/1
f 4/1/1 2/1/1 3/1/1
f 5/1/1 3/1/1 1/1/1
f 5/4/1 4/4/1 3/4/1
f 6/1/1 2/1/1 4/1/1
f 6/4/1 4/4/1 5/4/1
f 7/1/1 5/1/1 1/1/1
f 8/1/1 2/1/1 6/1/1
f 9/1/1 7/1/1 1/1/1
f 9/1/1 8/1/1 7/1/1
f 10/1/1 8/1/1 9/1/1
f 11/1/1 8/1/1 10/1/1
f 12/1/1 8/1/1 11/1/1
f 13/1/1 8/1/1 12/1/1
f 14/1/1 8/1/1 13/1/1
f 15/1/1 8/1/1 14/1/1
f 16/1/1 2/1/1 8/1/1
f 16/1/1 8/1/1 15/1/1
f 17/1/1 9/1/1 1/1/1
f 18/1/1 11/1/1 10/1/1
f 19/1/1 11/1/1 18/1/1
f 20/1/1 13/1/1 12/1/1
f 21/1/1 13/1/1 20/1/1
f 22/1/1 15/1/1 14/1/1
f 23/1/1 15/1/1 22/1/1
f 24/1/1 2/1/1 16/1/1
f 25/1/1 21/1/1 20/1/1
f 25/1/1 24/1/1 23/1/1
f 25/1/1 23/1/1 22/1/1
f 25/1/1 19/1/1 18/1/1
f 25/1/1 22/1/1 21/1/1
f 25/1/1 17/1/1 1/1/1
f 25/1/1 20/1/1 19/1/1
f 25/1/1 18/1/1 17/1/1
f 26/1/1 24/1/1 25/1/1
f 27/1/1 24/1/1 26/1/1
f 28/1/1 24/1/1 27/1/1
f 29/1/1 24/1/1 28/1/1
f 30/1/1 24/1/1 29/1/1
f 31/1/1 24/1/1 30/1/1
f 32/1/1 2/1/1 24/1/1
f 32/1/1 24/1/1 31/1/1
f 33/1/1 25/1/1 1/1/1
f 34/1/1 27/1/1 26/1/1
f 35/1/1 27/1/1 34/1/1
f 36/1/1 29/1/1 28/1/1
f 37/1/1 29/1/1 36/1/1
f 38/1/1 31/1/1 30/1/1
f 39/1/1 31/1/1 38/1/1
f 40/1/1 2/1/1 32/1/1
f 41/1/1 37/1/1 36/1/1
f 41/1/1 40/1/1 39/1/1
f 41/1/1 39/1/1 38/1/1
f 41/1/1 35/1/1 34/1/1
f 41/1/1 38/1/1 37/1/1
f 41/1/1 33/1/1 1/1/1
f 41/1/1 36/1/1 35/1/1
f 41/1/1 34/1/1 33/1/1
f 42/1/1 40/1/1 41/1/1
f 43/1/1 40/1/1 42/1/1
f 44/1/1 40/1/1 43/1/1
f 45/1/1 40/1/1 44/1/1
f 46/1/1 40/1/1 45/1/1
f 47/1/1 40/1/1 46/1/1
f 48/1/1 2/1/1 40/1/1
f 48/1/1 40/1/1 47/1/1
f 49/1/1 41/1/1 1/1/1
f 50/1/1 43/1/1 42/1/1
f 51/1/1 43/1/1 50/1/1
f 52/1/1 45/1/1 44/1/1
f 53/1/1 45/1/1 52/1/1
f 54/1/1 47/1/1 46/1/1
f 55/1/1 47/1/1 54/1/1
f 56/1/1 2/1/1 48/1/1
f 57/1/1 53/1/1 52/1/1
f 57/1/1 56/1/1 55/1/1
f 57/1/1 55/1/1 54/1/1
f 57/1/1 51/1/1 50/1/1
f 57/1/1 54/1/1 53/1/1
f 57/1/1 49/1/1 1/1/1
f 57/1/1 52/1/1 51/1/1
f 57/1/1 50/1/1 49/1/1
f 58/1/1 56/1/1 57/1/1
f 59/1/1 56/1/1 58/1/1
f 60/1/1 56/1/1 59/1/1
f 61/1/1 56/1/1 60/1/1
f 62/1/1 56/1/1 61/1/1
f 63/1/1 56/1/1 62/1/1
f 64/1/1 2/1/1 56/1/1
f 64/1/1 56/1/1 63/1/1
f 65/1/1 57/1/1 1/1/1
f 66/1/1 59/1/1 58/1/1
f 67/1/1 59/1/1 66/1/1
f 68/1/1 61/1/1 60/1/1
f 69/1/1 61/1/1 68/1/1
f 70/1/1 63/1/1 62/1/1
f 71/1/1 63/1/1 70/1/1
f 72/1/1 2/1/1 64/1/1
f 73/1/1 69/1/1 68/1/1
f 73/1/1 72/1/1 71/1/1
f 73/1/1 71/1/1 70/1/1
f 73/1/1 67/1/1 66/1/1
f 73/1/1 70/1/1 69/1/1
f 73/1/1 65/1/1 1/1/1
f 73/1/1 68/1/1 67/1/1
f 73/1/1 66/1/1 65/1/1
f 74/1/1 2/1/1 72/1/1
f 74/1/1 72/1/1 73/1/1
f 79/3/1 78/3/1 77/3/1
f 80/3/1 78/3/1 79/3/1
f 89/3/1 82/3/1 81/3/1
f 90/3/1 82/3/1 89/3/1
f 91/3/1 84/3/1 83/3/1
f 92/3/1 84/3/1 91/3/1
f 93/3/1 86/3/1 85/3/1
f 94/3/1 86/3/1 93/3/1
f 95/3/1 88/3/1 87/3/1
f 96/3/1 88/3/1 95/3/1
f 105/3/1 98/3/1 97/3/1
f 106/3/1 98/3/1 105/3/1
f 107/3/1 100/3/1 99/3/1
f 108/3/1 100/3/1 107/3/1
f 109/3/1 102/3/1 101/3/1
f 110/3/1 102/3/1 109/3/1
f 111/3/1 104/3/1 103/3/1
f 112/3/1 104/3/1 111/3/1
f 121/3/1 114/3/1 113/3/1
f 122/3/1 114/3/1 121/3/1
f 123/3/1 116/3/1 115/3/1
f 124/3/1 116/3/1 123/3/1
f 125/3/1 118/3/1 117/3/1
f 126/3/1 118/3/1 125/3/1
f 127/3/1 120/3/1 119/3/1
f 128/3/1 120/3/1 127/3/1
f 137/3/1 130/3/1 129/3/1
f 138/3/1 130/3/1 137/3/1
f 139/3/1 132/3/1 131/3/1
f 140/3/1 132/3/1 139/3/1
f 141/3/1 134/3/1 133/3/1
f 142/3/1 134/3/1 141/3/1
f 143/3/1 136/3/1 135/3/1
f 144/3/1 136/3/1 143/3/1
f 145/1/1 76/1/1 75/1/1
f 146/1/1 76/1/1 145/1/1
f 149/1/1 148/1/1 147/1/1
f 150/1/1 148/1/1 149/1/1
f 153/1/1 152/1/1 151/1/1
f 154/1/1 152/1/1 153/1/1
f 157/1/1 156/1/1 155/1/1
f 158/1/1 156/1/1 157/1/1
f 161/1/1 160/1/1 159/1/1
f 162/1/1 160/1/1 161/1/1
f 165/2/1 164/2/1 163/2/1
f 166/2/1 164/2/1 165/2/1
f 169/1/1 168/1/1 167/1/1
f 170/1/1 168/1/1 169/1/1
f 173/1/1 172/1/1 171/1/1
f 174/1/1 172/1/1 173/1/1
f 177/1/1 176/1/1 175/1/1
f 178/1/1 176/1/1 177/1/1
f 181/1/1 180/1/1 179/1/1
f 182/1/1 180/1/1 181/1/1
f 185/1/1 184/1/1 183/1/1
f 186/1/1 184/1/1 185/1/1
f 189/1/1 188/1/1 187/1/1
f 190/1/1 188/1/1 189/1/1
f 193/1/1 192/1/1 191/1/1
f 194/1/1 192/1/1 193/1/1
f 197/1/1 196/1/1 195/1/1
f 198/1/1 196/1/1 197/1/1
f 199/1/2 200/1/2 201/1/2
f 201/1/2 200/1/2 202/1/2
f 203/1/2 204/1/2 205/1/2
f 205/1/2 204/1/2 206/1/2
f 207/1/2 208/1/2 209/1/2
f 209/1/2 208/1/2 210/1/2
f 211/1/2 212/1/2 213/1/2
f 213/1/2 212/1/2 214/1/2
f 215/1/2 216/1/2 217/1/2
f 217/1/2 216/1/2 218/1/2
f 219/1/2 220/1/2 221/1/2
f 221/1/2 220/1/2 222/1/2
f 223/1/2 224/1/2 225/1/2
f 225/1/2 224/1/2 226/1/2
f 227/1/2 228/1/2 229/1/2
f 229/1/2 228/1/2 230/1/2
f 231/1/2 232/1/2 233/1/2
f 233/1/2 232/1/2 234/1/2
f 235/1/2 236/1/2 237/1/2
f 237/1/2 236/1/2 238/1/2
f 239/1/2 240/1/2 241/1/2
f 241/1/2 240/1/2 242/1/2
f 243/1/2 244/1/2 245/1/2
f 245/1/2 244/1/2 246/1/2
f 247/1/2 248/1/2 249/1/2
f 249/1/2 248/1/2 250/1/2
f 250/1/2 248/1/2 251/1/2
f 250/2/2 251/2/2 252/2/2
f 251/1/2 248/1/2 253/1/2
f 252/2/2 251/2/2 253/2/2
f 253/1/2 248/1/2 254/1/2
f 257/1/3 256/1/3 255/1/3
f 258/1/3 256/1/3 257/1/3
f 259/1/3 256/1/3 258/1/3
f 260/1/3 256/1/3 259/1/3
f 261/1/3 256/1/3 260/1/3
f 262/1/3 256/1/3 261/1/3
f 263/1/3 256/1/3 262/1/3
f 264/1/3 256/1/3 263/1/3
f 265/1/3 257/1/3 255/1/3
f 266/1/3 259/1/3 258/1/3
f 267/1/3 259/1/3 266/1/3
f 268/1/3 261/1/3 260/1/3
f 269/1/3 261/1/3 268/1/3
f 270/1/3 263/1/3 262/1/3
f 271/1/3 263/1/3 270/1/3
f 272/1/3 256/1/3 264/1/3
f 273/1/3 271/1/3 270/1/3
f 273/1/3 272/1/3 271/1/3
f 273/1/3 269/1/3 268/1/3
f 273/1/3 265/1/3 255/1/3
f 273/1/3 270/1/3 269/1/3
f 273/1/3 267/1/3 266/1/3
f 273/1/3 268/1/3 267/1/3
f 273/1/3 266/1/3 265/1/3
f 274/1/3 272/1/3 273/1/3
f 275/1/3 272/1/3 274/1/3
f 276/1/3 272/1/3 275/1/3
f 277/1/3 272/1/3 276/1/3
f 278/1/3 272/1/3 277/1/3
f 279/1/3 272/1/3 278/1/3
f 280/1/3 256/1/3 272/1/3
f 280/1/3 272/1/3 279/1/3
f 281/1/3 273/1/3 255/1/3
f 282/1/3 275/1/3 274/1/3
f 283/1/3 275/1/3 282/1/3
f 284/1/3 277/1/3 276/1/3
f 285/1/3 277/1/3 284/1/3
f 286/1/3 279/1/3 278/1/3
f 287/1/3 279/1/3 286/1/3
f 288/1/3 256/1/3 280/1/3
f 289/1/3 285/1/3 284/1/3
f 289/1/3 288/1/3 287/1/3
f 289/1/3 287/1/3 286/1/3
f 289/1/3 283/1/3 282/1/3
f 289/1/3 286/1/3 285/1/3
f 289/1/3 281/1/3 255/1/3
f 289/1/3 284/1/3 283/1/3
f 289/1/3 282/1/3 281/1/3
f 290/1/3 288/1/3 289/1/3
f 291/1/3 288/1/3 290/1/3
f 292/1/3 288/1/3 291/1/3
f 293/1/3 288/1/3 292/1/3
f 294/1/3 288/1/3 293/1/3
f 295/1/3 288/1/3 294/1/3
f 296/1/3 256/1/3 288/1/3
f 296/1/3 288/1/3 295/1/3
f 297/1/3 289/1/3 255/1/3
f 298/1/3 291/1/3 290/1/3
f 299/1/3 291/1/3 298/1/3
f 300/1/3 293/1/3 292/1/3
f 301/1/3 293/1/3 300/1/3
f 302/1/3 295/1/3 294/1/3
f 303/1/3 295/1/3 302/1/3
f 304/1/3 256/1/3 296/1/3
f 305/1/3 301/1/3 300/1/3
f 305/1/3 304/1/3 303/1/3
f 305/1/3 303/1/3 302/1/3
f 305/1/3 299/1/3 298/1/3
f 305/1/3 302/1/3 301/1/3
f 305/1/3 297/1/3 255/1/3
f 305/1/3 300/1/3 299/1/3
f 305/1/3 298/1/3 297/1/3
f 306/1/3 256/1/3 304/1/3
f 306/1/3 304/1/3 305/1/3
f 309/1/3 308/1/3 307/1/3
f 310/1/3 308/1/3 309/1/3
f 319/3/3 312/3/3 311/3/3
f 320/3/3 312/3/3 319/3/3
f 321/3/3 314/3/3 313/3/3
f 322/3/3 314/3/3 321/3/3
f 323/3/3 316/3/3 315/3/3
f 324/3/3 316/3/3 323/3/3
f 325/3/3 318/3/3 317/3/3
f 326/3/3 318/3/3 325/3/3
f 335/3/3 328/3/3 327/3/3
f 336/3/3 328/3/3 335/3/3
f 337/3/3 330/3/3 329/3/3
f 338/3/3 330/3/3 337/3/3
f 339/3/3 332/3/3 331/3/3
f 340/3/3 332/3/3 339/3/3
f 341/3/3 334/3/3 333/3/3
f 342/3/3 334/3/3 341/3/3
f 351/3/3 344/3/3 343/3/3
f 352/3/3 344/3/3 351/3/3
f 353/3/3 346/3/3 345/3/3
f 354/3/3 346/3/3 353/3/3
f 355/3/3 348/3/3 347/3/3
f 356/3/3 348/3/3 355/3/3
f 357/3/3 350/3/3 349/3/3
f 358/3/3 350/3/3 357/3/3
f 361/2/3 360/2/3 359/2/3
f 362/2/3 360/2/3 361/2/3
f 371/1/3 364/1/3 363/1/3
f 372/1/3 364/1/3 371/1/3
f 373/1/3 366/1/3 365/1/3
f 374/1/3 366/1/3 373/1/3
f 375/1/3 368/1/3 367/1/3
f 376/1/3 368/1/3 375/1/3
f 377/1/3 370/1/3 369/1/3
f 378/1/3 370/1/3 377/1/3
f 387/1/3 380/1/3 379/1/3
f 388/1/3 380/1/3 387/1/3
f 389/1/3 382/1/3 381/1/3
f 390/1/3 382/1/3 389/1/3
f 391/1/3 384/1/3 383/1/3
f 392/1/3 384/1/3 391/1/3
f 393/1/3 386/1/3 385/1/3
f 394/1/3 386/1/3 393/1/3
f 403/1/3 396/1/3 395/1/3
f 404/1/3 396/1/3 403/1/3
f 405/1/3 398/1/3 397/1/3
f 406/1/3 398/1/3 405/1/3
f 407/1/3 400/1/3 399/1/3
f 408/1/3 400/1/3 407/1/3
f 409/1/3 402/1/3 401/1/3
f 410/1/3 402/1/3 409/1/3
f 421/1/3 412/1/3 411/1/3
f 422/1/3 412/1/3 421/1/3
f 423/1/3 414/1/3 413/1/3
f 424/1/3 414/1/3 423/1/3
f 425/1/3 416/1/3 415/1/3
f 426/1/3 416/1/3 425/1/3
f 427/1/3 418/1/3 417/1/3
f 428/1/3 418/1/3 427/1/3
f 429/1/3 420/1/3 419/1/3
f 430/1/3 420/1/3 429/1/3
f 431/1/4 432/1/4 439/1/4
f 439/1/4 432/1/4 440/1/4
f 433/1/4 434/1/4 441/1/4
f 441/1/4 434/1/4 442/1/4
f 435/1/4 436/1/4 443/1/4
f 443/1/4 436/1/4 444/1/4
f 437/1/4 438/1/4 445/1/4
f 445/1/4 438/1/4 446/1/4
f 447/1/4 448/1/4 455/1/4
f 455/1/4 448/1/4 456/1/4
f 449/1/4 450/1/4 457/1/4
f 457/1/4 450/1/4 458/1/4
f 451/1/4 452/1/4 459/1/4
f 459/1/4 452/1/4 460/1/4
f 453/1/4 454/1/4 461/1/4
f 461/1/4 454/1/4 462/1/4
f 463/1/4 464/1/4 471/1/4
f 471/1/4 464/1/4 472/1/4
f 465/1/4 466/1/4 473/1/4
f 473/1/4 466/1/4 474/1/4
f 467/1/4 468/1/4 475/1/4
f 475/1/4 468/1/4 476/1/4
f 469/1/4 470/1/4 477/1/4
f 477/1/4 470/1/4 478/1/4
f 479/1/4 480/1/4 481/1/4
f 481/1/4 480/1/4 482/1/4
f 483/1/4 484/1/4 491/1/4
f 491/1/4 484/1/4 492/1/4
f 485/1/4 486/1/4 493/1/4
f 493/1/4 486/1/4 494/1/4
f 487/1/4 488/1/4 495/1/4
f 495/1/4 488/1/4 496/1/4
f 489/1/4 490/1/4 497/1/4
f 497/1/4 490/1/4 498/1/4
f 499/1/4 500/1/4 501/1/4
f 499/1/4 501/1/4 503/1/4
f 501/2/4 502/2/4 503/2/4
f 503/2/4 502/2/4 504/2/4
f 499/1/4 503/1/4 505/1/4
f 503/1/4 504/1/4 505/1/4
f 505/1/4 504/1/4 506/1/4
f 510/1/5 508/1/5 507/1/5
f 511/1/5 510/1/5 509/1/5
f 512/1/5 508/1/5 510/1/5
f 512/1/5 510/1/5 511/1/5
f 515/1/5 514/1/5 513/1/5
f 516/1/5 514/1/5 515/1/5
f 523/1/5 518/1/5 517/1/5
f 524/1/5 518/1/5 523/1/5
f 525/1/5 520/1/5 519/1/5
f 526/1/5 520/1/5 525/1/5
f 527/1/5 522/1/5 521/1/5
f 528/1/5 522/1/5 527/1/5
f 531/1/5 530/1/5 529/1/5
f 532/1/5 530/1/5 531/1/5
f 535/1/5 534/1/5 533/1/5
f 536/1/5 534/1/5 535/1/5
f 539/1/5 538/1/5 537/1/5
f 540/1/5 538/1/5 539/1/5
f 543/1/5 542/1/5 541/1/5
f 544/1/5 542/1/5 543/1/5
f 551/1/5 546/1/5 545/1/5
f 552/1/5 546/1/5 551/1/5
f 553/1/5 548/1/5 547/1/5
f 554/1/5 548/1/5 553/1/5
f 555/1/5 550/1/5 549/1/5
f 556/1/5 550/1/5 555/1/5
f 559/1/5 558/1/5 557/1/5
f 560/1/5 558/1/5 559/1/5
f 563/1/5 562/1/5 561/1/5
f 564/1/5 562/1/5 563/1/5
f 567/1/5 566/1/5 565/1/5
f 568/1/5 566/1/5 567/1/5
f 571/1/5 570/1/5 569/1/5
f 572/1/5 570/1/5 571/1/5
f 579/1/5 574/1/5 573/1/5
f 580/1/5 574/1/5 579/1/5
f 581/1/5 576/1/5 575/1/5
f 582/1/5 576/1/5 581/1/5
f 583/1/5 578/1/5 577/1/5
f 584/1/5 578/1/5 583/1/5
f 587/1/5 586/1/5 585/1/5
f 588/1/5 586/1/5 587/1/5
f 591/1/5 590/1/5 589/1/5
f 592/1/5 590/1/5 591/1/5
f 595/1/5 594/1/5 593/1/5
f 596/1/5 594/1/5 595/1/5
f 599/1/5 598/1/5 597/1/5
f 600/1/5 598/1/5 599/1/5
f 607/1/5 602/1/5 601/1/5
f 608/1/5 602/1/5 607/1/5
f 609/1/5 604/1/5 603/1/5
f 610/1/5 604/1/5 609/1/5
f 611/1/5 606/1/5 605/1/5
f 612/1/5 606/1/5 611/1/5
f 615/1/5 614/1/5 613/1/5
f 616/1/5 614/1/5 615/1/5
f 619/1/5 618/1/5 617/1/5
f 620/1/5 618/1/5 619/1/5
f 623/1/5 622/1/5 621/1/5
f 624/1/5 622/1/5 623/1/5
f 627/1/5 626/1/5 625/1/5
f 628/1/5 626/1/5 627/1/5
f 629/4/6 630/4/6 631/4/6
f 631/4/6 630/4/6 632/4/6
f 633/1/6 634/1/6 639/1/6
f 639/1/6 634/1/6 640/1/6
f 635/1/6 636/1/6 641/1/6
f 641/1/6 636/1/6 642/1/6
f 637/1/6 638/1/6 643/1/6
f 643/1/6 638/1/6 644/1/6
f 645/1/6 646/1/6 647/1/6
f 647/1/6 646/1/6 648/1/6
f 649/1/6 650/1/6 651/1/6
f 651/1/6 650/1/6 652/1/6
f 653/1/6 654/1/6 655/1/6
f 655/1/6 654/1/6 656/1/6
f 657/1/6 658/1/6 659/1/6
f 659/1/6 658/1/6 660/1/6
f 661/1/6 662/1/6 667/1/6
f 667/1/6 662/1/6 668/1/6
f 663/1/6 664/1/6 669/1/6
f 669/1/6 664/1/6 670/1/6
f 665/1/6 666/1/6 671/1/6
f 671/1/6 666/1/6 672/1/6
f 673/1/6 674/1/6 675/1/6
f 675/1/6 674/1/6 676/1/6
f 677/1/6 678/1/6 679/1/6
f 679/1/6 678/1/6 680/1/6
f 681/1/6 682/1/6 683/1/6
f 683/1/6 682/1/6 684/1/6
f 685/1/6 686/1/6 687/1/6
f 687/1/6 686/1/6 688/1/6
f 689/1/6 690/1/6 695/1/6
f 695/1/6 690/1/6 696/1/6
f 691/1/6 692/1/6 697/1/6
f 697/1/6 692/1/6 698/1/6
f 693/1/6 694/1/6 699/1/6
f 699/1/6 694/1/6 700/1/6
f 701/1/6 702/1/6 703/1/6
f 703/1/6 702/1/6 704/1/6
f 705/1/6 706/1/6 707/1/6
f 707/1/6 706/1/6 708/1/6
f 709/1/6 710/1/6 711/1/6
f 711/1/6 710/1/6 712/1/6
f 713/1/6 714/1/6 715/1/6
f 715/1/6 714/1/6 716/1/6
f 717/1/6 718/1/6 723/1/6
f 723/1/6 718/1/6 724/1/6
f 719/1/6 720/1/6 725/1/6
f 725/1/6 720/1/6 726/1/6
f 721/1/6 722/1/6 727/1/6
f 727/1/6 722/1/6 728/1/6
f 729/1/6 730/1/6 731/1/6
f 731/1/6 730/1/6 732/1/6
f 733/1/6 734/1/6 735/1/6
f 735/1/6 734/1/6 736/1/6
f 737/1/6 738/1/6 739/1/6
f 739/1/6 738/1/6 740/1/6
f 741/1/6 742/1/6 743/1/6
f 743/1/6 742/1/6 744/1/6
f 745/1/6 746/1/6 748/1/6
f 748/1/6 746/1/6 749/1/6
f 747/1/6 748/1/6 749/1/6
f 749/1/6 746/1/6 750/1/6
f 747/1/6 749/1/6 751/1/6
f 751/1/6 749/1/6 752/1/6
f 753/2/6 754/2/6 755/2/6
f 755/2/6 754/2/6 756/2/6
f 753/2/6 755/2/6 757/2/6
f 755/1/6 756/1/6 758/1/6
f 757/2/6 755/2/6 758/2/6
f 758/1/6 756/1/6 759/1/6
