# MagicaVoxel @ Ephtracy

# group
g road16bis

# material
mtllib road16bis.mtl
usemtl palette

# normals
vn -1 0 0
vn 1 0 0
vn 0 0 1
vn 0 0 -1
vn 0 -1 0
vn 0 1 0

# texcoords
vt 0.900391 0.5
vt 0.904297 0.5
vt 0.962891 0.5
vt 0.966797 0.5

# verts
v -20.5 0 1.5
v -20.5 0 -1.5
v -20.5 2 1.5
v -20.5 2 -1.5
v -0.5 1 1.5
v -0.5 1 -1.5
v -0.5 2 1.5
v -0.5 2 -1.5
v 19.5 1 1.5
v 19.5 1 -1.5
v 19.5 2 1.5
v 19.5 2 -1.5
v -19.5 1 1.5
v -19.5 1 -1.5
v -19.5 2 1.5
v -19.5 2 -1.5
v 0.5 1 1.5
v 0.5 1 -1.5
v 0.5 2 1.5
v 0.5 2 -1.5
v 20.5 0 1.5
v 20.5 0 -1.5
v 20.5 2 1.5
v 20.5 2 -1.5
v -20.5 0 1.5
v -20.5 2 1.5
v -19.5 0 1.5
v -19.5 1 1.5
v -19.5 2 1.5
v -17.5 0 1.5
v -17.5 1 1.5
v -16.5 0 1.5
v -16.5 1 1.5
v -10.5 0 1.5
v -10.5 1 1.5
v -9.5 0 1.5
v -9.5 1 1.5
v -0.5 0 1.5
v -0.5 1 1.5
v -0.5 2 1.5
v 0.5 0 1.5
v 0.5 1 1.5
v 0.5 2 1.5
v 3.5 0 1.5
v 3.5 1 1.5
v 4.5 0 1.5
v 4.5 1 1.5
v 9.5 0 1.5
v 9.5 1 1.5
v 10.5 0 1.5
v 10.5 1 1.5
v 19.5 0 1.5
v 19.5 1 1.5
v 19.5 2 1.5
v 20.5 0 1.5
v 20.5 2 1.5
v -20.5 0 -1.5
v -20.5 2 -1.5
v -19.5 0 -1.5
v -19.5 1 -1.5
v -19.5 2 -1.5
v -10.5 0 -1.5
v -10.5 1 -1.5
v -9.5 0 -1.5
v -9.5 1 -1.5
v -3.5 0 -1.5
v -3.5 1 -1.5
v -2.5 0 -1.5
v -2.5 1 -1.5
v -0.5 0 -1.5
v -0.5 1 -1.5
v -0.5 2 -1.5
v 0.5 0 -1.5
v 0.5 1 -1.5
v 0.5 2 -1.5
v 9.5 0 -1.5
v 9.5 1 -1.5
v 10.5 0 -1.5
v 10.5 1 -1.5
v 15.5 0 -1.5
v 15.5 1 -1.5
v 16.5 0 -1.5
v 16.5 1 -1.5
v 19.5 0 -1.5
v 19.5 1 -1.5
v 19.5 2 -1.5
v 20.5 0 -1.5
v 20.5 2 -1.5
v -20.5 0 1.5
v -19.5 0 1.5
v -17.5 0 1.5
v -16.5 0 1.5
v -10.5 0 1.5
v -9.5 0 1.5
v -0.5 0 1.5
v 0.5 0 1.5
v 3.5 0 1.5
v 4.5 0 1.5
v 9.5 0 1.5
v 10.5 0 1.5
v 19.5 0 1.5
v 20.5 0 1.5
v -17.5 0 0.5
v -16.5 0 0.5
v -15.5 0 0.5
v -10.5 0 0.5
v -9.5 0 0.5
v -2.5 0 0.5
v -1.5 0 0.5
v 3.5 0 0.5
v 4.5 0 0.5
v 5.5 0 0.5
v 9.5 0 0.5
v 10.5 0 0.5
v 15.5 0 0.5
v 16.5 0 0.5
v -16.5 0 -0.5
v -15.5 0 -0.5
v -10.5 0 -0.5
v -9.5 0 -0.5
v -3.5 0 -0.5
v -2.5 0 -0.5
v -1.5 0 -0.5
v 4.5 0 -0.5
v 5.5 0 -0.5
v 9.5 0 -0.5
v 10.5 0 -0.5
v -20.5 0 -1.5
v -19.5 0 -1.5
v -10.5 0 -1.5
v -9.5 0 -1.5
v -3.5 0 -1.5
v -2.5 0 -1.5
v -0.5 0 -1.5
v 0.5 0 -1.5
v 9.5 0 -1.5
v 10.5 0 -1.5
v 15.5 0 -1.5
v 16.5 0 -1.5
v 19.5 0 -1.5
v 20.5 0 -1.5
v -19.5 1 1.5
v -17.5 1 1.5
v -16.5 1 1.5
v -10.5 1 1.5
v -9.5 1 1.5
v -0.5 1 1.5
v 0.5 1 1.5
v 3.5 1 1.5
v 4.5 1 1.5
v 9.5 1 1.5
v 10.5 1 1.5
v 19.5 1 1.5
v -17.5 1 0.5
v -16.5 1 0.5
v -15.5 1 0.5
v -10.5 1 0.5
v -9.5 1 0.5
v -2.5 1 0.5
v -1.5 1 0.5
v 3.5 1 0.5
v 4.5 1 0.5
v 5.5 1 0.5
v 9.5 1 0.5
v 10.5 1 0.5
v 15.5 1 0.5
v 16.5 1 0.5
v -16.5 1 -0.5
v -15.5 1 -0.5
v -10.5 1 -0.5
v -9.5 1 -0.5
v -3.5 1 -0.5
v -2.5 1 -0.5
v -1.5 1 -0.5
v 4.5 1 -0.5
v 5.5 1 -0.5
v 9.5 1 -0.5
v 10.5 1 -0.5
v -19.5 1 -1.5
v -10.5 1 -1.5
v -9.5 1 -1.5
v -3.5 1 -1.5
v -2.5 1 -1.5
v -0.5 1 -1.5
v 0.5 1 -1.5
v 9.5 1 -1.5
v 10.5 1 -1.5
v 15.5 1 -1.5
v 16.5 1 -1.5
v 19.5 1 -1.5
v -20.5 2 1.5
v -19.5 2 1.5
v -0.5 2 1.5
v 0.5 2 1.5
v 19.5 2 1.5
v 20.5 2 1.5
v -20.5 2 -1.5
v -19.5 2 -1.5
v -0.5 2 -1.5
v 0.5 2 -1.5
v 19.5 2 -1.5
v 20.5 2 -1.5

# faces
f 3/1/1 2/1/1 1/1/1
f 4/1/1 2/1/1 3/1/1
f 7/1/1 6/1/1 5/1/1
f 8/1/1 6/1/1 7/1/1
f 11/1/1 10/1/1 9/1/1
f 12/1/1 10/1/1 11/1/1
f 13/1/2 14/1/2 15/1/2
f 15/1/2 14/1/2 16/1/2
f 17/1/2 18/1/2 19/1/2
f 19/1/2 18/1/2 20/1/2
f 21/1/2 22/1/2 23/1/2
f 23/1/2 22/1/2 24/1/2
f 27/1/3 26/1/3 25/1/3
f 28/1/3 26/1/3 27/1/3
f 29/1/3 26/1/3 28/1/3
f 30/4/3 28/4/3 27/4/3
f 31/4/3 28/4/3 30/4/3
f 32/3/3 31/3/3 30/3/3
f 33/3/3 31/3/3 32/3/3
f 34/4/3 33/4/3 32/4/3
f 35/4/3 33/4/3 34/4/3
f 36/2/3 35/2/3 34/2/3
f 37/2/3 35/2/3 36/2/3
f 38/4/3 37/4/3 36/4/3
f 39/4/3 37/4/3 38/4/3
f 41/1/3 39/1/3 38/1/3
f 41/1/3 40/1/3 39/1/3
f 42/1/3 40/1/3 41/1/3
f 43/1/3 40/1/3 42/1/3
f 44/4/3 42/4/3 41/4/3
f 45/4/3 42/4/3 44/4/3
f 46/3/3 45/3/3 44/3/3
f 47/3/3 45/3/3 46/3/3
f 48/4/3 47/4/3 46/4/3
f 49/4/3 47/4/3 48/4/3
f 50/2/3 49/2/3 48/2/3
f 51/2/3 49/2/3 50/2/3
f 52/4/3 51/4/3 50/4/3
f 53/4/3 51/4/3 52/4/3
f 55/1/3 53/1/3 52/1/3
f 55/1/3 54/1/3 53/1/3
f 56/1/3 54/1/3 55/1/3
f 57/1/4 58/1/4 59/1/4
f 59/1/4 58/1/4 60/1/4
f 60/1/4 58/1/4 61/1/4
f 59/4/4 60/4/4 62/4/4
f 62/4/4 60/4/4 63/4/4
f 62/2/4 63/2/4 64/2/4
f 64/2/4 63/2/4 65/2/4
f 64/4/4 65/4/4 66/4/4
f 66/4/4 65/4/4 67/4/4
f 66/3/4 67/3/4 68/3/4
f 68/3/4 67/3/4 69/3/4
f 68/4/4 69/4/4 70/4/4
f 70/4/4 69/4/4 71/4/4
f 70/1/4 71/1/4 73/1/4
f 71/1/4 72/1/4 73/1/4
f 73/1/4 72/1/4 74/1/4
f 74/1/4 72/1/4 75/1/4
f 73/4/4 74/4/4 76/4/4
f 76/4/4 74/4/4 77/4/4
f 76/2/4 77/2/4 78/2/4
f 78/2/4 77/2/4 79/2/4
f 78/4/4 79/4/4 80/4/4
f 80/4/4 79/4/4 81/4/4
f 80/3/4 81/3/4 82/3/4
f 82/3/4 81/3/4 83/3/4
f 82/4/4 83/4/4 84/4/4
f 84/4/4 83/4/4 85/4/4
f 84/1/4 85/1/4 87/1/4
f 85/1/4 86/1/4 87/1/4
f 87/1/4 86/1/4 88/1/4
f 103/4/5 91/4/5 90/4/5
f 103/3/5 92/3/5 91/3/5
f 104/4/5 93/4/5 92/4/5
f 104/3/5 92/3/5 103/3/5
f 105/4/5 93/4/5 104/4/5
f 106/2/5 94/2/5 93/2/5
f 106/4/5 93/4/5 105/4/5
f 107/4/5 95/4/5 94/4/5
f 107/2/5 94/2/5 106/2/5
f 108/4/5 95/4/5 107/4/5
f 109/4/5 95/4/5 108/4/5
f 110/4/5 97/4/5 96/4/5
f 110/3/5 98/3/5 97/3/5
f 111/4/5 99/4/5 98/4/5
f 111/3/5 98/3/5 110/3/5
f 112/4/5 99/4/5 111/4/5
f 113/2/5 100/2/5 99/2/5
f 113/4/5 99/4/5 112/4/5
f 114/4/5 101/4/5 100/4/5
f 114/2/5 100/2/5 113/2/5
f 115/4/5 101/4/5 114/4/5
f 116/4/5 101/4/5 115/4/5
f 117/3/5 105/3/5 104/3/5
f 117/4/5 104/4/5 103/4/5
f 118/4/5 106/4/5 105/4/5
f 118/3/5 105/3/5 117/3/5
f 118/4/5 107/4/5 106/4/5
f 118/4/5 108/4/5 107/4/5
f 119/4/5 108/4/5 118/4/5
f 120/4/5 108/4/5 119/4/5
f 121/4/5 108/4/5 120/4/5
f 122/3/5 109/3/5 108/3/5
f 122/4/5 108/4/5 121/4/5
f 123/4/5 95/4/5 109/4/5
f 123/3/5 109/3/5 122/3/5
f 124/3/5 112/3/5 111/3/5
f 124/4/5 111/4/5 110/4/5
f 125/4/5 113/4/5 112/4/5
f 125/3/5 112/3/5 124/3/5
f 125/4/5 115/4/5 114/4/5
f 125/4/5 114/4/5 113/4/5
f 126/4/5 115/4/5 125/4/5
f 127/4/5 115/4/5 126/4/5
f 128/1/5 90/1/5 89/1/5
f 129/4/5 103/4/5 90/4/5
f 129/1/5 90/1/5 128/1/5
f 129/4/5 117/4/5 103/4/5
f 129/4/5 119/4/5 118/4/5
f 129/4/5 118/4/5 117/4/5
f 130/2/5 120/2/5 119/2/5
f 130/4/5 119/4/5 129/4/5
f 131/4/5 121/4/5 120/4/5
f 131/2/5 120/2/5 130/2/5
f 132/3/5 122/3/5 121/3/5
f 132/4/5 121/4/5 131/4/5
f 133/4/5 123/4/5 122/4/5
f 133/3/5 122/3/5 132/3/5
f 134/1/5 96/1/5 95/1/5
f 134/4/5 123/4/5 133/4/5
f 134/4/5 95/4/5 123/4/5
f 135/4/5 124/4/5 110/4/5
f 135/1/5 96/1/5 134/1/5
f 135/4/5 110/4/5 96/4/5
f 135/4/5 125/4/5 124/4/5
f 135/4/5 126/4/5 125/4/5
f 136/2/5 127/2/5 126/2/5
f 136/4/5 126/4/5 135/4/5
f 137/4/5 115/4/5 127/4/5
f 137/2/5 127/2/5 136/2/5
f 138/3/5 116/3/5 115/3/5
f 138/4/5 115/4/5 137/4/5
f 139/4/5 101/4/5 116/4/5
f 139/3/5 116/3/5 138/3/5
f 140/1/5 102/1/5 101/1/5
f 140/4/5 101/4/5 139/4/5
f 141/1/5 102/1/5 140/1/5
f 142/4/6 143/4/6 154/4/6
f 143/3/6 144/3/6 154/3/6
f 144/4/6 145/4/6 155/4/6
f 154/3/6 144/3/6 155/3/6
f 155/4/6 145/4/6 156/4/6
f 145/2/6 146/2/6 157/2/6
f 156/4/6 145/4/6 157/4/6
f 146/4/6 147/4/6 158/4/6
f 157/2/6 146/2/6 158/2/6
f 158/4/6 147/4/6 159/4/6
f 159/4/6 147/4/6 160/4/6
f 148/4/6 149/4/6 161/4/6
f 149/3/6 150/3/6 161/3/6
f 150/4/6 151/4/6 162/4/6
f 161/3/6 150/3/6 162/3/6
f 162/4/6 151/4/6 163/4/6
f 151/2/6 152/2/6 164/2/6
f 163/4/6 151/4/6 164/4/6
f 152/4/6 153/4/6 165/4/6
f 164/2/6 152/2/6 165/2/6
f 165/4/6 153/4/6 166/4/6
f 166/4/6 153/4/6 167/4/6
f 155/3/6 156/3/6 168/3/6
f 154/4/6 155/4/6 168/4/6
f 156/4/6 157/4/6 169/4/6
f 168/3/6 156/3/6 169/3/6
f 157/4/6 158/4/6 169/4/6
f 158/4/6 159/4/6 169/4/6
f 169/4/6 159/4/6 170/4/6
f 170/4/6 159/4/6 171/4/6
f 171/4/6 159/4/6 172/4/6
f 159/3/6 160/3/6 173/3/6
f 172/4/6 159/4/6 173/4/6
f 160/4/6 147/4/6 174/4/6
f 173/3/6 160/3/6 174/3/6
f 162/3/6 163/3/6 175/3/6
f 161/4/6 162/4/6 175/4/6
f 163/4/6 164/4/6 176/4/6
f 175/3/6 163/3/6 176/3/6
f 165/4/6 166/4/6 176/4/6
f 164/4/6 165/4/6 176/4/6
f 176/4/6 166/4/6 177/4/6
f 177/4/6 166/4/6 178/4/6
f 142/4/6 154/4/6 179/4/6
f 154/4/6 168/4/6 179/4/6
f 169/4/6 170/4/6 179/4/6
f 168/4/6 169/4/6 179/4/6
f 170/2/6 171/2/6 180/2/6
f 179/4/6 170/4/6 180/4/6
f 171/4/6 172/4/6 181/4/6
f 180/2/6 171/2/6 181/2/6
f 172/3/6 173/3/6 182/3/6
f 181/4/6 172/4/6 182/4/6
f 173/4/6 174/4/6 183/4/6
f 182/3/6 173/3/6 183/3/6
f 174/4/6 147/4/6 184/4/6
f 183/4/6 174/4/6 184/4/6
f 161/4/6 175/4/6 185/4/6
f 148/4/6 161/4/6 185/4/6
f 175/4/6 176/4/6 185/4/6
f 176/4/6 177/4/6 185/4/6
f 177/2/6 178/2/6 186/2/6
f 185/4/6 177/4/6 186/4/6
f 178/4/6 166/4/6 187/4/6
f 186/2/6 178/2/6 187/2/6
f 166/3/6 167/3/6 188/3/6
f 187/4/6 166/4/6 188/4/6
f 167/4/6 153/4/6 189/4/6
f 188/3/6 167/3/6 189/3/6
f 189/4/6 153/4/6 190/4/6
f 191/1/6 192/1/6 197/1/6
f 197/1/6 192/1/6 198/1/6
f 193/1/6 194/1/6 199/1/6
f 199/1/6 194/1/6 200/1/6
f 195/1/6 196/1/6 201/1/6
f 201/1/6 196/1/6 202/1/6
