# MagicaVoxel @ Ephtracy

# group
g road15

# material
mtllib road15.mtl
usemtl palette

# normals
vn -1 0 0
vn 1 0 0
vn 0 0 1
vn 0 0 -1
vn 0 -1 0
vn 0 1 0

# texcoords
vt 0.900391 0.5
vt 0.904297 0.5
vt 0.962891 0.5
vt 0.966797 0.5

# verts
v -20.5 0 7.5
v -20.5 0 -7.5
v -20.5 1 2.5
v -20.5 1 -2.5
v -20.5 2 7.5
v -20.5 2 2.5
v -20.5 2 -2.5
v -20.5 2 -7.5
v -0.5 1 7.5
v -0.5 1 2.5
v -0.5 1 -2.5
v -0.5 1 -7.5
v -0.5 2 7.5
v -0.5 2 2.5
v -0.5 2 -2.5
v -0.5 2 -7.5
v 19.5 1 7.5
v 19.5 1 2.5
v 19.5 1 -2.5
v 19.5 1 -7.5
v 19.5 2 7.5
v 19.5 2 2.5
v 19.5 2 -2.5
v 19.5 2 -7.5
v -19.5 1 7.5
v -19.5 1 2.5
v -19.5 1 -2.5
v -19.5 1 -7.5
v -19.5 2 7.5
v -19.5 2 2.5
v -19.5 2 -2.5
v -19.5 2 -7.5
v 0.5 1 7.5
v 0.5 1 2.5
v 0.5 1 -2.5
v 0.5 1 -7.5
v 0.5 2 7.5
v 0.5 2 2.5
v 0.5 2 -2.5
v 0.5 2 -7.5
v 20.5 0 7.5
v 20.5 0 -7.5
v 20.5 1 2.5
v 20.5 1 -2.5
v 20.5 2 7.5
v 20.5 2 2.5
v 20.5 2 -2.5
v 20.5 2 -7.5
v -20.5 0 7.5
v -20.5 2 7.5
v -19.5 0 7.5
v -19.5 1 7.5
v -19.5 2 7.5
v -10.5 0 7.5
v -10.5 1 7.5
v -9.5 0 7.5
v -9.5 1 7.5
v -3.5 0 7.5
v -3.5 1 7.5
v -2.5 0 7.5
v -2.5 1 7.5
v -0.5 0 7.5
v -0.5 1 7.5
v -0.5 2 7.5
v 0.5 0 7.5
v 0.5 1 7.5
v 0.5 2 7.5
v 9.5 0 7.5
v 9.5 1 7.5
v 10.5 0 7.5
v 10.5 1 7.5
v 19.5 0 7.5
v 19.5 1 7.5
v 19.5 2 7.5
v 20.5 0 7.5
v 20.5 2 7.5
v -20.5 1 -2.5
v -20.5 2 -2.5
v -19.5 1 -2.5
v -19.5 2 -2.5
v -0.5 1 -2.5
v -0.5 2 -2.5
v 0.5 1 -2.5
v 0.5 2 -2.5
v 19.5 1 -2.5
v 19.5 2 -2.5
v 20.5 1 -2.5
v 20.5 2 -2.5
v -20.5 1 2.5
v -20.5 2 2.5
v -19.5 1 2.5
v -19.5 2 2.5
v -0.5 1 2.5
v -0.5 2 2.5
v 0.5 1 2.5
v 0.5 2 2.5
v 19.5 1 2.5
v 19.5 2 2.5
v 20.5 1 2.5
v 20.5 2 2.5
v -20.5 0 -7.5
v -20.5 2 -7.5
v -19.5 0 -7.5
v -19.5 1 -7.5
v -19.5 2 -7.5
v -10.5 0 -7.5
v -10.5 1 -7.5
v -9.5 0 -7.5
v -9.5 1 -7.5
v -0.5 0 -7.5
v -0.5 1 -7.5
v -0.5 2 -7.5
v 0.5 0 -7.5
v 0.5 1 -7.5
v 0.5 2 -7.5
v 2.5 0 -7.5
v 2.5 1 -7.5
v 3.5 0 -7.5
v 3.5 1 -7.5
v 9.5 0 -7.5
v 9.5 1 -7.5
v 10.5 0 -7.5
v 10.5 1 -7.5
v 19.5 0 -7.5
v 19.5 1 -7.5
v 19.5 2 -7.5
v 20.5 0 -7.5
v 20.5 2 -7.5
v -20.5 0 7.5
v -19.5 0 7.5
v -10.5 0 7.5
v -9.5 0 7.5
v -3.5 0 7.5
v -2.5 0 7.5
v -0.5 0 7.5
v 0.5 0 7.5
v 9.5 0 7.5
v 10.5 0 7.5
v 19.5 0 7.5
v 20.5 0 7.5
v -10.5 0 6.5
v -9.5 0 6.5
v -3.5 0 6.5
v -2.5 0 6.5
v -1.5 0 6.5
v 5.5 0 6.5
v 6.5 0 6.5
v 9.5 0 6.5
v 10.5 0 6.5
v -18.5 0 5.5
v -17.5 0 5.5
v -10.5 0 5.5
v -9.5 0 5.5
v 9.5 0 5.5
v 10.5 0 5.5
v -2.5 0 4.5
v -1.5 0 4.5
v -18.5 0 3.5
v -17.5 0 3.5
v -16.5 0 3.5
v -10.5 0 3.5
v -9.5 0 3.5
v 4.5 0 3.5
v 5.5 0 3.5
v 6.5 0 3.5
v 9.5 0 3.5
v 10.5 0 3.5
v 15.5 0 3.5
v 16.5 0 3.5
v -18.5 0 2.5
v -17.5 0 2.5
v -16.5 0 2.5
v -14.5 0 2.5
v -12.5 0 2.5
v -10.5 0 2.5
v -8.5 0 2.5
v -6.5 0 2.5
v -4.5 0 2.5
v -2.5 0 2.5
v -0.5 0 2.5
v 0.5 0 2.5
v 2.5 0 2.5
v 4.5 0 2.5
v 5.5 0 2.5
v 6.5 0 2.5
v 8.5 0 2.5
v 10.5 0 2.5
v 12.5 0 2.5
v 14.5 0 2.5
v 16.5 0 2.5
v 18.5 0 2.5
v 14.5 0 1.5
v 15.5 0 1.5
v 16.5 0 1.5
v -15.5 0 0.5
v -14.5 0 0.5
v 14.5 0 -0.5
v 15.5 0 -0.5
v -16.5 0 -1.5
v -15.5 0 -1.5
v -14.5 0 -1.5
v -18.5 0 -2.5
v -16.5 0 -2.5
v -14.5 0 -2.5
v -12.5 0 -2.5
v -10.5 0 -2.5
v -8.5 0 -2.5
v -6.5 0 -2.5
v -5.5 0 -2.5
v -4.5 0 -2.5
v -2.5 0 -2.5
v -0.5 0 -2.5
v 0.5 0 -2.5
v 2.5 0 -2.5
v 4.5 0 -2.5
v 6.5 0 -2.5
v 8.5 0 -2.5
v 10.5 0 -2.5
v 12.5 0 -2.5
v 14.5 0 -2.5
v 16.5 0 -2.5
v 17.5 0 -2.5
v 18.5 0 -2.5
v -16.5 0 -3.5
v -15.5 0 -3.5
v -10.5 0 -3.5
v -9.5 0 -3.5
v -6.5 0 -3.5
v -5.5 0 -3.5
v -4.5 0 -3.5
v 9.5 0 -3.5
v 10.5 0 -3.5
v 16.5 0 -3.5
v 17.5 0 -3.5
v 18.5 0 -3.5
v 1.5 0 -4.5
v 2.5 0 -4.5
v -10.5 0 -5.5
v -9.5 0 -5.5
v 9.5 0 -5.5
v 10.5 0 -5.5
v 17.5 0 -5.5
v 18.5 0 -5.5
v -10.5 0 -6.5
v -9.5 0 -6.5
v -6.5 0 -6.5
v -5.5 0 -6.5
v 1.5 0 -6.5
v 2.5 0 -6.5
v 3.5 0 -6.5
v 9.5 0 -6.5
v 10.5 0 -6.5
v -20.5 0 -7.5
v -19.5 0 -7.5
v -10.5 0 -7.5
v -9.5 0 -7.5
v -0.5 0 -7.5
v 0.5 0 -7.5
v 2.5 0 -7.5
v 3.5 0 -7.5
v 9.5 0 -7.5
v 10.5 0 -7.5
v 19.5 0 -7.5
v 20.5 0 -7.5
v -19.5 1 7.5
v -10.5 1 7.5
v -9.5 1 7.5
v -3.5 1 7.5
v -2.5 1 7.5
v -0.5 1 7.5
v 0.5 1 7.5
v 9.5 1 7.5
v 10.5 1 7.5
v 19.5 1 7.5
v -10.5 1 6.5
v -9.5 1 6.5
v -3.5 1 6.5
v -2.5 1 6.5
v -1.5 1 6.5
v 5.5 1 6.5
v 6.5 1 6.5
v 9.5 1 6.5
v 10.5 1 6.5
v -18.5 1 5.5
v -17.5 1 5.5
v -10.5 1 5.5
v -9.5 1 5.5
v 9.5 1 5.5
v 10.5 1 5.5
v -2.5 1 4.5
v -1.5 1 4.5
v -18.5 1 3.5
v -17.5 1 3.5
v -16.5 1 3.5
v -10.5 1 3.5
v -9.5 1 3.5
v 4.5 1 3.5
v 5.5 1 3.5
v 6.5 1 3.5
v 9.5 1 3.5
v 10.5 1 3.5
v 15.5 1 3.5
v 16.5 1 3.5
v -20.5 1 2.5
v -19.5 1 2.5
v -18.5 1 2.5
v -17.5 1 2.5
v -16.5 1 2.5
v -14.5 1 2.5
v -12.5 1 2.5
v -10.5 1 2.5
v -8.5 1 2.5
v -6.5 1 2.5
v -4.5 1 2.5
v -2.5 1 2.5
v -0.5 1 2.5
v 0.5 1 2.5
v 2.5 1 2.5
v 4.5 1 2.5
v 5.5 1 2.5
v 6.5 1 2.5
v 8.5 1 2.5
v 10.5 1 2.5
v 12.5 1 2.5
v 14.5 1 2.5
v 16.5 1 2.5
v 18.5 1 2.5
v 19.5 1 2.5
v 20.5 1 2.5
v 14.5 1 1.5
v 15.5 1 1.5
v 16.5 1 1.5
v -15.5 1 0.5
v -14.5 1 0.5
v 14.5 1 -0.5
v 15.5 1 -0.5
v -16.5 1 -1.5
v -15.5 1 -1.5
v -14.5 1 -1.5
v -20.5 1 -2.5
v -19.5 1 -2.5
v -18.5 1 -2.5
v -16.5 1 -2.5
v -14.5 1 -2.5
v -12.5 1 -2.5
v -10.5 1 -2.5
v -8.5 1 -2.5
v -6.5 1 -2.5
v -5.5 1 -2.5
v -4.5 1 -2.5
v -2.5 1 -2.5
v -0.5 1 -2.5
v 0.5 1 -2.5
v 2.5 1 -2.5
v 4.5 1 -2.5
v 6.5 1 -2.5
v 8.5 1 -2.5
v 10.5 1 -2.5
v 12.5 1 -2.5
v 14.5 1 -2.5
v 16.5 1 -2.5
v 17.5 1 -2.5
v 18.5 1 -2.5
v 19.5 1 -2.5
v 20.5 1 -2.5
v -16.5 1 -3.5
v -15.5 1 -3.5
v -10.5 1 -3.5
v -9.5 1 -3.5
v -6.5 1 -3.5
v -5.5 1 -3.5
v -4.5 1 -3.5
v 9.5 1 -3.5
v 10.5 1 -3.5
v 16.5 1 -3.5
v 17.5 1 -3.5
v 18.5 1 -3.5
v 1.5 1 -4.5
v 2.5 1 -4.5
v -10.5 1 -5.5
v -9.5 1 -5.5
v 9.5 1 -5.5
v 10.5 1 -5.5
v 17.5 1 -5.5
v 18.5 1 -5.5
v -10.5 1 -6.5
v -9.5 1 -6.5
v -6.5 1 -6.5
v -5.5 1 -6.5
v 1.5 1 -6.5
v 2.5 1 -6.5
v 3.5 1 -6.5
v 9.5 1 -6.5
v 10.5 1 -6.5
v -19.5 1 -7.5
v -10.5 1 -7.5
v -9.5 1 -7.5
v -0.5 1 -7.5
v 0.5 1 -7.5
v 2.5 1 -7.5
v 3.5 1 -7.5
v 9.5 1 -7.5
v 10.5 1 -7.5
v 19.5 1 -7.5
v -20.5 2 7.5
v -19.5 2 7.5
v -0.5 2 7.5
v 0.5 2 7.5
v 19.5 2 7.5
v 20.5 2 7.5
v -20.5 2 2.5
v -19.5 2 2.5
v -0.5 2 2.5
v 0.5 2 2.5
v 19.5 2 2.5
v 20.5 2 2.5
v -20.5 2 -2.5
v -19.5 2 -2.5
v -0.5 2 -2.5
v 0.5 2 -2.5
v 19.5 2 -2.5
v 20.5 2 -2.5
v -20.5 2 -7.5
v -19.5 2 -7.5
v -0.5 2 -7.5
v 0.5 2 -7.5
v 19.5 2 -7.5
v 20.5 2 -7.5

# faces
f 3/1/1 2/1/1 1/1/1
f 4/1/1 2/1/1 3/1/1
f 5/1/1 3/1/1 1/1/1
f 6/1/1 3/1/1 5/1/1
f 7/1/1 2/1/1 4/1/1
f 8/1/1 2/1/1 7/1/1
f 13/1/1 10/1/1 9/1/1
f 14/1/1 10/1/1 13/1/1
f 15/1/1 12/1/1 11/1/1
f 16/1/1 12/1/1 15/1/1
f 21/1/1 18/1/1 17/1/1
f 22/1/1 18/1/1 21/1/1
f 23/1/1 20/1/1 19/1/1
f 24/1/1 20/1/1 23/1/1
f 25/1/2 26/1/2 29/1/2
f 29/1/2 26/1/2 30/1/2
f 27/1/2 28/1/2 31/1/2
f 31/1/2 28/1/2 32/1/2
f 33/1/2 34/1/2 37/1/2
f 37/1/2 34/1/2 38/1/2
f 35/1/2 36/1/2 39/1/2
f 39/1/2 36/1/2 40/1/2
f 41/1/2 42/1/2 43/1/2
f 43/1/2 42/1/2 44/1/2
f 41/1/2 43/1/2 45/1/2
f 45/1/2 43/1/2 46/1/2
f 44/1/2 42/1/2 47/1/2
f 47/1/2 42/1/2 48/1/2
f 51/1/3 50/1/3 49/1/3
f 52/1/3 50/1/3 51/1/3
f 53/1/3 50/1/3 52/1/3
f 54/4/3 52/4/3 51/4/3
f 55/4/3 52/4/3 54/4/3
f 56/2/3 55/2/3 54/2/3
f 57/2/3 55/2/3 56/2/3
f 58/4/3 57/4/3 56/4/3
f 59/4/3 57/4/3 58/4/3
f 60/3/3 59/3/3 58/3/3
f 61/3/3 59/3/3 60/3/3
f 62/4/3 61/4/3 60/4/3
f 63/4/3 61/4/3 62/4/3
f 65/1/3 63/1/3 62/1/3
f 65/1/3 64/1/3 63/1/3
f 66/1/3 64/1/3 65/1/3
f 67/1/3 64/1/3 66/1/3
f 68/4/3 66/4/3 65/4/3
f 69/4/3 66/4/3 68/4/3
f 70/2/3 69/2/3 68/2/3
f 71/2/3 69/2/3 70/2/3
f 72/4/3 71/4/3 70/4/3
f 73/4/3 71/4/3 72/4/3
f 75/1/3 73/1/3 72/1/3
f 75/1/3 74/1/3 73/1/3
f 76/1/3 74/1/3 75/1/3
f 79/1/3 78/1/3 77/1/3
f 80/1/3 78/1/3 79/1/3
f 83/1/3 82/1/3 81/1/3
f 84/1/3 82/1/3 83/1/3
f 87/1/3 86/1/3 85/1/3
f 88/1/3 86/1/3 87/1/3
f 89/1/4 90/1/4 91/1/4
f 91/1/4 90/1/4 92/1/4
f 93/1/4 94/1/4 95/1/4
f 95/1/4 94/1/4 96/1/4
f 97/1/4 98/1/4 99/1/4
f 99/1/4 98/1/4 100/1/4
f 101/1/4 102/1/4 103/1/4
f 103/1/4 102/1/4 104/1/4
f 104/1/4 102/1/4 105/1/4
f 103/4/4 104/4/4 106/4/4
f 106/4/4 104/4/4 107/4/4
f 106/2/4 107/2/4 108/2/4
f 108/2/4 107/2/4 109/2/4
f 108/4/4 109/4/4 110/4/4
f 110/4/4 109/4/4 111/4/4
f 110/1/4 111/1/4 113/1/4
f 111/1/4 112/1/4 113/1/4
f 113/1/4 112/1/4 114/1/4
f 114/1/4 112/1/4 115/1/4
f 113/4/4 114/4/4 116/4/4
f 116/4/4 114/4/4 117/4/4
f 116/3/4 117/3/4 118/3/4
f 118/3/4 117/3/4 119/3/4
f 118/4/4 119/4/4 120/4/4
f 120/4/4 119/4/4 121/4/4
f 120/2/4 121/2/4 122/2/4
f 122/2/4 121/2/4 123/2/4
f 122/4/4 123/4/4 124/4/4
f 124/4/4 123/4/4 125/4/4
f 124/1/4 125/1/4 127/1/4
f 125/1/4 126/1/4 127/1/4
f 127/1/4 126/1/4 128/1/4
f 141/4/5 131/4/5 130/4/5
f 141/2/5 132/2/5 131/2/5
f 142/4/5 133/4/5 132/4/5
f 142/2/5 132/2/5 141/2/5
f 143/3/5 134/3/5 133/3/5
f 143/4/5 133/4/5 142/4/5
f 144/4/5 135/4/5 134/4/5
f 144/3/5 134/3/5 143/3/5
f 145/4/5 135/4/5 144/4/5
f 146/4/5 137/4/5 136/4/5
f 147/4/5 137/4/5 146/4/5
f 148/2/5 138/2/5 137/2/5
f 148/4/5 137/4/5 147/4/5
f 149/4/5 139/4/5 138/4/5
f 149/2/5 138/2/5 148/2/5
f 150/4/5 141/4/5 130/4/5
f 150/4/5 142/4/5 141/4/5
f 150/4/5 143/4/5 142/4/5
f 150/4/5 144/4/5 143/4/5
f 151/4/5 144/4/5 150/4/5
f 152/4/5 144/4/5 151/4/5
f 153/4/5 144/4/5 152/4/5
f 154/4/5 148/4/5 147/4/5
f 154/4/5 149/4/5 148/4/5
f 155/4/5 139/4/5 149/4/5
f 155/4/5 149/4/5 154/4/5
f 156/4/5 144/4/5 153/4/5
f 156/3/5 145/3/5 144/3/5
f 157/4/5 135/4/5 145/4/5
f 157/3/5 145/3/5 156/3/5
f 158/4/5 150/4/5 130/4/5
f 158/3/5 151/3/5 150/3/5
f 159/4/5 152/4/5 151/4/5
f 159/3/5 151/3/5 158/3/5
f 160/4/5 152/4/5 159/4/5
f 161/2/5 153/2/5 152/2/5
f 161/4/5 152/4/5 160/4/5
f 162/4/5 156/4/5 153/4/5
f 162/2/5 153/2/5 161/2/5
f 162/4/5 157/4/5 156/4/5
f 163/4/5 146/4/5 136/4/5
f 164/3/5 147/3/5 146/3/5
f 164/4/5 146/4/5 163/4/5
f 165/4/5 154/4/5 147/4/5
f 165/3/5 147/3/5 164/3/5
f 166/2/5 155/2/5 154/2/5
f 166/4/5 154/4/5 165/4/5
f 167/4/5 139/4/5 155/4/5
f 167/2/5 155/2/5 166/2/5
f 168/4/5 139/4/5 167/4/5
f 169/4/5 139/4/5 168/4/5
f 170/4/5 159/4/5 158/4/5
f 170/4/5 158/4/5 130/4/5
f 171/3/5 160/3/5 159/3/5
f 171/4/5 159/4/5 170/4/5
f 172/4/5 161/4/5 160/4/5
f 172/3/5 160/3/5 171/3/5
f 172/4/5 162/4/5 161/4/5
f 173/4/5 162/4/5 172/4/5
f 174/4/5 162/4/5 173/4/5
f 175/4/5 162/4/5 174/4/5
f 176/4/5 157/4/5 162/4/5
f 176/4/5 162/4/5 175/4/5
f 177/4/5 157/4/5 176/4/5
f 178/4/5 157/4/5 177/4/5
f 179/4/5 157/4/5 178/4/5
f 180/1/5 136/1/5 135/1/5
f 180/4/5 157/4/5 179/4/5
f 180/4/5 135/4/5 157/4/5
f 181/4/5 163/4/5 136/4/5
f 181/1/5 136/1/5 180/1/5
f 182/4/5 163/4/5 181/4/5
f 183/3/5 164/3/5 163/3/5
f 183/4/5 163/4/5 182/4/5
f 184/4/5 166/4/5 165/4/5
f 184/3/5 164/3/5 183/3/5
f 184/4/5 165/4/5 164/4/5
f 184/4/5 168/4/5 167/4/5
f 184/4/5 167/4/5 166/4/5
f 185/4/5 168/4/5 184/4/5
f 186/4/5 168/4/5 185/4/5
f 187/4/5 168/4/5 186/4/5
f 188/4/5 168/4/5 187/4/5
f 189/4/5 168/4/5 188/4/5
f 190/4/5 139/4/5 169/4/5
f 190/3/5 169/3/5 168/3/5
f 191/4/5 139/4/5 190/4/5
f 192/4/5 168/4/5 189/4/5
f 192/2/5 189/2/5 188/2/5
f 193/3/5 190/3/5 168/3/5
f 193/4/5 168/4/5 192/4/5
f 194/2/5 191/2/5 190/2/5
f 194/3/5 190/3/5 193/3/5
f 195/4/5 173/4/5 172/4/5
f 196/2/5 174/2/5 173/2/5
f 196/4/5 173/4/5 195/4/5
f 197/3/5 193/3/5 192/3/5
f 197/2/5 192/2/5 188/2/5
f 198/4/5 194/4/5 193/4/5
f 198/3/5 193/3/5 197/3/5
f 199/2/5 171/2/5 170/2/5
f 199/2/5 172/2/5 171/2/5
f 199/4/5 195/4/5 172/4/5
f 200/3/5 196/3/5 195/3/5
f 200/4/5 195/4/5 199/4/5
f 201/2/5 174/2/5 196/2/5
f 201/3/5 196/3/5 200/3/5
f 202/4/5 170/4/5 130/4/5
f 202/2/5 199/2/5 170/2/5
f 203/3/5 200/3/5 199/3/5
f 203/2/5 199/2/5 202/2/5
f 204/2/5 174/2/5 201/2/5
f 204/4/5 201/4/5 200/4/5
f 205/4/5 175/4/5 174/4/5
f 205/2/5 174/2/5 204/2/5
f 206/2/5 176/2/5 175/2/5
f 206/4/5 175/4/5 205/4/5
f 207/4/5 177/4/5 176/4/5
f 207/2/5 176/2/5 206/2/5
f 208/2/5 178/2/5 177/2/5
f 208/4/5 177/4/5 207/4/5
f 209/2/5 178/2/5 208/2/5
f 210/4/5 179/4/5 178/4/5
f 210/2/5 178/2/5 209/2/5
f 211/2/5 180/2/5 179/2/5
f 211/4/5 179/4/5 210/4/5
f 212/1/5 181/1/5 180/1/5
f 212/2/5 180/2/5 211/2/5
f 213/2/5 182/2/5 181/2/5
f 213/1/5 181/1/5 212/1/5
f 214/4/5 183/4/5 182/4/5
f 214/2/5 182/2/5 213/2/5
f 215/2/5 184/2/5 183/2/5
f 215/4/5 183/4/5 214/4/5
f 215/2/5 185/2/5 184/2/5
f 216/4/5 186/4/5 185/4/5
f 216/2/5 185/2/5 215/2/5
f 217/2/5 187/2/5 186/2/5
f 217/4/5 186/4/5 216/4/5
f 218/4/5 188/4/5 187/4/5
f 218/2/5 187/2/5 217/2/5
f 219/2/5 197/2/5 188/2/5
f 219/4/5 188/4/5 218/4/5
f 220/4/5 198/4/5 197/4/5
f 220/2/5 197/2/5 219/2/5
f 221/4/5 194/4/5 198/4/5
f 221/4/5 198/4/5 220/4/5
f 221/2/5 191/2/5 194/2/5
f 222/2/5 191/2/5 221/2/5
f 223/4/5 139/4/5 191/4/5
f 223/2/5 191/2/5 222/2/5
f 224/3/5 200/3/5 203/3/5
f 224/4/5 203/4/5 202/4/5
f 225/4/5 204/4/5 200/4/5
f 225/3/5 200/3/5 224/3/5
f 225/4/5 209/4/5 208/4/5
f 225/4/5 207/4/5 206/4/5
f 225/4/5 206/4/5 205/4/5
f 225/4/5 205/4/5 204/4/5
f 225/4/5 208/4/5 207/4/5
f 226/4/5 209/4/5 225/4/5
f 227/4/5 209/4/5 226/4/5
f 228/4/5 209/4/5 227/4/5
f 229/3/5 210/3/5 209/3/5
f 229/4/5 209/4/5 228/4/5
f 230/4/5 212/4/5 211/4/5
f 230/3/5 210/3/5 229/3/5
f 230/4/5 211/4/5 210/4/5
f 231/4/5 221/4/5 220/4/5
f 231/4/5 220/4/5 219/4/5
f 231/4/5 217/4/5 216/4/5
f 231/4/5 216/4/5 215/4/5
f 231/4/5 215/4/5 214/4/5
f 231/4/5 214/4/5 213/4/5
f 231/4/5 218/4/5 217/4/5
f 231/4/5 219/4/5 218/4/5
f 232/4/5 221/4/5 231/4/5
f 233/3/5 222/3/5 221/3/5
f 233/4/5 221/4/5 232/4/5
f 234/4/5 223/4/5 222/4/5
f 234/3/5 222/3/5 233/3/5
f 235/4/5 139/4/5 223/4/5
f 235/4/5 223/4/5 234/4/5
f 236/4/5 231/4/5 213/4/5
f 237/4/5 231/4/5 236/4/5
f 238/2/5 227/2/5 226/2/5
f 238/4/5 226/4/5 225/4/5
f 238/4/5 225/4/5 224/4/5
f 239/4/5 228/4/5 227/4/5
f 239/2/5 227/2/5 238/2/5
f 240/4/5 231/4/5 237/4/5
f 240/2/5 232/2/5 231/2/5
f 241/4/5 234/4/5 233/4/5
f 241/2/5 232/2/5 240/2/5
f 241/4/5 233/4/5 232/4/5
f 242/3/5 235/3/5 234/3/5
f 242/4/5 234/4/5 241/4/5
f 243/4/5 139/4/5 235/4/5
f 243/3/5 235/3/5 242/3/5
f 244/4/5 238/4/5 224/4/5
f 244/4/5 239/4/5 238/4/5
f 245/4/5 228/4/5 239/4/5
f 245/4/5 239/4/5 244/4/5
f 246/3/5 229/3/5 228/3/5
f 246/4/5 228/4/5 245/4/5
f 247/4/5 230/4/5 229/4/5
f 247/3/5 229/3/5 246/3/5
f 248/3/5 237/3/5 236/3/5
f 248/4/5 236/4/5 213/4/5
f 249/4/5 240/4/5 237/4/5
f 249/3/5 237/3/5 248/3/5
f 249/4/5 243/4/5 242/4/5
f 249/4/5 242/4/5 241/4/5
f 249/4/5 241/4/5 240/4/5
f 250/4/5 243/4/5 249/4/5
f 251/4/5 243/4/5 250/4/5
f 252/4/5 243/4/5 251/4/5
f 253/1/5 130/1/5 129/1/5
f 254/4/5 224/4/5 202/4/5
f 254/1/5 130/1/5 253/1/5
f 254/4/5 244/4/5 224/4/5
f 254/4/5 202/4/5 130/4/5
f 255/2/5 245/2/5 244/2/5
f 255/4/5 244/4/5 254/4/5
f 256/4/5 246/4/5 245/4/5
f 256/2/5 245/2/5 255/2/5
f 256/4/5 247/4/5 246/4/5
f 257/1/5 213/1/5 212/1/5
f 257/4/5 247/4/5 256/4/5
f 257/4/5 212/4/5 230/4/5
f 257/4/5 230/4/5 247/4/5
f 258/4/5 248/4/5 213/4/5
f 258/1/5 213/1/5 257/1/5
f 258/4/5 249/4/5 248/4/5
f 259/3/5 250/3/5 249/3/5
f 259/4/5 249/4/5 258/4/5
f 260/4/5 251/4/5 250/4/5
f 260/3/5 250/3/5 259/3/5
f 261/2/5 252/2/5 251/2/5
f 261/4/5 251/4/5 260/4/5
f 262/4/5 243/4/5 252/4/5
f 262/2/5 252/2/5 261/2/5
f 263/1/5 140/1/5 139/1/5
f 263/4/5 243/4/5 262/4/5
f 263/4/5 139/4/5 243/4/5
f 264/1/5 140/1/5 263/1/5
f 265/4/6 266/4/6 275/4/6
f 266/2/6 267/2/6 275/2/6
f 267/4/6 268/4/6 276/4/6
f 275/2/6 267/2/6 276/2/6
f 268/3/6 269/3/6 277/3/6
f 276/4/6 268/4/6 277/4/6
f 269/4/6 270/4/6 278/4/6
f 277/3/6 269/3/6 278/3/6
f 278/4/6 270/4/6 279/4/6
f 271/4/6 272/4/6 280/4/6
f 280/4/6 272/4/6 281/4/6
f 272/2/6 273/2/6 282/2/6
f 281/4/6 272/4/6 282/4/6
f 273/4/6 274/4/6 283/4/6
f 282/2/6 273/2/6 283/2/6
f 265/4/6 275/4/6 284/4/6
f 275/4/6 276/4/6 284/4/6
f 276/4/6 277/4/6 284/4/6
f 277/4/6 278/4/6 284/4/6
f 284/4/6 278/4/6 285/4/6
f 285/4/6 278/4/6 286/4/6
f 286/4/6 278/4/6 287/4/6
f 281/4/6 282/4/6 288/4/6
f 282/4/6 283/4/6 288/4/6
f 283/4/6 274/4/6 289/4/6
f 288/4/6 283/4/6 289/4/6
f 287/4/6 278/4/6 290/4/6
f 278/3/6 279/3/6 290/3/6
f 279/4/6 270/4/6 291/4/6
f 290/3/6 279/3/6 291/3/6
f 265/4/6 284/4/6 292/4/6
f 284/3/6 285/3/6 292/3/6
f 285/4/6 286/4/6 293/4/6
f 292/3/6 285/3/6 293/3/6
f 293/4/6 286/4/6 294/4/6
f 286/2/6 287/2/6 295/2/6
f 294/4/6 286/4/6 295/4/6
f 287/4/6 290/4/6 296/4/6
f 295/2/6 287/2/6 296/2/6
f 290/4/6 291/4/6 296/4/6
f 271/4/6 280/4/6 297/4/6
f 280/3/6 281/3/6 298/3/6
f 297/4/6 280/4/6 298/4/6
f 281/4/6 288/4/6 299/4/6
f 298/3/6 281/3/6 299/3/6
f 288/2/6 289/2/6 300/2/6
f 299/4/6 288/4/6 300/4/6
f 289/4/6 274/4/6 301/4/6
f 300/2/6 289/2/6 301/2/6
f 301/4/6 274/4/6 302/4/6
f 302/4/6 274/4/6 303/4/6
f 292/4/6 293/4/6 305/4/6
f 265/4/6 292/4/6 305/4/6
f 305/4/6 293/4/6 306/4/6
f 293/3/6 294/3/6 307/3/6
f 306/4/6 293/4/6 307/4/6
f 294/4/6 295/4/6 308/4/6
f 307/3/6 294/3/6 308/3/6
f 295/4/6 296/4/6 308/4/6
f 308/4/6 296/4/6 309/4/6
f 309/4/6 296/4/6 310/4/6
f 310/4/6 296/4/6 311/4/6
f 296/4/6 291/4/6 312/4/6
f 311/4/6 296/4/6 312/4/6
f 312/4/6 291/4/6 313/4/6
f 313/4/6 291/4/6 314/4/6
f 314/4/6 291/4/6 315/4/6
f 291/4/6 270/4/6 316/4/6
f 315/4/6 291/4/6 316/4/6
f 271/4/6 297/4/6 317/4/6
f 317/4/6 297/4/6 318/4/6
f 297/3/6 298/3/6 319/3/6
f 318/4/6 297/4/6 319/4/6
f 299/4/6 300/4/6 320/4/6
f 319/3/6 298/3/6 320/3/6
f 298/4/6 299/4/6 320/4/6
f 300/4/6 301/4/6 320/4/6
f 301/4/6 302/4/6 320/4/6
f 320/4/6 302/4/6 321/4/6
f 321/4/6 302/4/6 322/4/6
f 322/4/6 302/4/6 323/4/6
f 323/4/6 302/4/6 324/4/6
f 324/4/6 302/4/6 325/4/6
f 303/4/6 274/4/6 326/4/6
f 302/3/6 303/3/6 326/3/6
f 326/4/6 274/4/6 327/4/6
f 327/4/6 274/4/6 328/4/6
f 325/4/6 302/4/6 330/4/6
f 324/2/6 325/2/6 330/2/6
f 302/3/6 326/3/6 331/3/6
f 330/4/6 302/4/6 331/4/6
f 326/2/6 327/2/6 332/2/6
f 331/3/6 326/3/6 332/3/6
f 308/4/6 309/4/6 333/4/6
f 309/2/6 310/2/6 334/2/6
f 333/4/6 309/4/6 334/4/6
f 324/2/6 330/2/6 335/2/6
f 330/3/6 331/3/6 335/3/6
f 331/4/6 332/4/6 336/4/6
f 335/3/6 331/3/6 336/3/6
f 306/2/6 307/2/6 337/2/6
f 307/2/6 308/2/6 337/2/6
f 308/4/6 333/4/6 337/4/6
f 333/3/6 334/3/6 338/3/6
f 337/4/6 333/4/6 338/4/6
f 334/2/6 310/2/6 339/2/6
f 338/3/6 334/3/6 339/3/6
f 304/1/6 305/1/6 340/1/6
f 305/4/6 306/4/6 341/4/6
f 340/1/6 305/1/6 341/1/6
f 306/2/6 337/2/6 342/2/6
f 341/4/6 306/4/6 342/4/6
f 337/3/6 338/3/6 343/3/6
f 342/2/6 337/2/6 343/2/6
f 339/2/6 310/2/6 344/2/6
f 338/4/6 339/4/6 344/4/6
f 310/4/6 311/4/6 345/4/6
f 344/2/6 310/2/6 345/2/6
f 311/2/6 312/2/6 346/2/6
f 345/4/6 311/4/6 346/4/6
f 312/4/6 313/4/6 347/4/6
f 346/2/6 312/2/6 347/2/6
f 313/2/6 314/2/6 348/2/6
f 347/4/6 313/4/6 348/4/6
f 348/2/6 314/2/6 349/2/6
f 314/4/6 315/4/6 350/4/6
f 349/2/6 314/2/6 350/2/6
f 315/2/6 316/2/6 351/2/6
f 350/4/6 315/4/6 351/4/6
f 316/1/6 317/1/6 352/1/6
f 351/2/6 316/2/6 352/2/6
f 317/2/6 318/2/6 353/2/6
f 352/1/6 317/1/6 353/1/6
f 318/4/6 319/4/6 354/4/6
f 353/2/6 318/2/6 354/2/6
f 319/2/6 320/2/6 355/2/6
f 354/4/6 319/4/6 355/4/6
f 320/2/6 321/2/6 355/2/6
f 321/4/6 322/4/6 356/4/6
f 355/2/6 321/2/6 356/2/6
f 322/2/6 323/2/6 357/2/6
f 356/4/6 322/4/6 357/4/6
f 323/4/6 324/4/6 358/4/6
f 357/2/6 323/2/6 358/2/6
f 324/2/6 335/2/6 359/2/6
f 358/4/6 324/4/6 359/4/6
f 335/4/6 336/4/6 360/4/6
f 359/2/6 335/2/6 360/2/6
f 336/4/6 332/4/6 361/4/6
f 360/4/6 336/4/6 361/4/6
f 332/2/6 327/2/6 361/2/6
f 361/2/6 327/2/6 362/2/6
f 327/4/6 328/4/6 363/4/6
f 362/2/6 327/2/6 363/2/6
f 328/1/6 329/1/6 364/1/6
f 363/4/6 328/4/6 364/4/6
f 364/1/6 329/1/6 365/1/6
f 343/3/6 338/3/6 366/3/6
f 342/4/6 343/4/6 366/4/6
f 341/4/6 342/4/6 366/4/6
f 338/4/6 344/4/6 367/4/6
f 366/3/6 338/3/6 367/3/6
f 348/4/6 349/4/6 367/4/6
f 346/4/6 347/4/6 367/4/6
f 344/4/6 345/4/6 367/4/6
f 345/4/6 346/4/6 367/4/6
f 347/4/6 348/4/6 367/4/6
f 367/4/6 349/4/6 368/4/6
f 368/4/6 349/4/6 369/4/6
f 369/4/6 349/4/6 370/4/6
f 349/3/6 350/3/6 371/3/6
f 370/4/6 349/4/6 371/4/6
f 351/4/6 352/4/6 372/4/6
f 371/3/6 350/3/6 372/3/6
f 350/4/6 351/4/6 372/4/6
f 359/4/6 360/4/6 373/4/6
f 356/4/6 357/4/6 373/4/6
f 355/4/6 356/4/6 373/4/6
f 358/4/6 359/4/6 373/4/6
f 360/4/6 361/4/6 373/4/6
f 353/4/6 354/4/6 373/4/6
f 354/4/6 355/4/6 373/4/6
f 357/4/6 358/4/6 373/4/6
f 373/4/6 361/4/6 374/4/6
f 361/3/6 362/3/6 375/3/6
f 374/4/6 361/4/6 375/4/6
f 362/4/6 363/4/6 376/4/6
f 375/3/6 362/3/6 376/3/6
f 363/4/6 364/4/6 376/4/6
f 376/4/6 364/4/6 377/4/6
f 353/4/6 373/4/6 378/4/6
f 378/4/6 373/4/6 379/4/6
f 368/2/6 369/2/6 380/2/6
f 367/4/6 368/4/6 380/4/6
f 366/4/6 367/4/6 380/4/6
f 369/4/6 370/4/6 381/4/6
f 380/2/6 369/2/6 381/2/6
f 379/4/6 373/4/6 382/4/6
f 373/2/6 374/2/6 382/2/6
f 374/4/6 375/4/6 383/4/6
f 382/2/6 374/2/6 383/2/6
f 375/4/6 376/4/6 383/4/6
f 376/3/6 377/3/6 384/3/6
f 383/4/6 376/4/6 384/4/6
f 377/4/6 364/4/6 385/4/6
f 384/3/6 377/3/6 385/3/6
f 366/4/6 380/4/6 386/4/6
f 380/4/6 381/4/6 386/4/6
f 381/4/6 370/4/6 387/4/6
f 386/4/6 381/4/6 387/4/6
f 370/3/6 371/3/6 388/3/6
f 387/4/6 370/4/6 388/4/6
f 371/4/6 372/4/6 389/4/6
f 388/3/6 371/3/6 389/3/6
f 378/3/6 379/3/6 390/3/6
f 353/4/6 378/4/6 390/4/6
f 379/4/6 382/4/6 391/4/6
f 390/3/6 379/3/6 391/3/6
f 384/4/6 385/4/6 391/4/6
f 382/4/6 383/4/6 391/4/6
f 383/4/6 384/4/6 391/4/6
f 391/4/6 385/4/6 392/4/6
f 392/4/6 385/4/6 393/4/6
f 393/4/6 385/4/6 394/4/6
f 341/4/6 366/4/6 395/4/6
f 366/4/6 386/4/6 395/4/6
f 386/2/6 387/2/6 396/2/6
f 395/4/6 386/4/6 396/4/6
f 387/4/6 388/4/6 397/4/6
f 396/2/6 387/2/6 397/2/6
f 388/4/6 389/4/6 397/4/6
f 372/4/6 352/4/6 398/4/6
f 397/4/6 389/4/6 398/4/6
f 389/4/6 372/4/6 398/4/6
f 353/4/6 390/4/6 399/4/6
f 390/4/6 391/4/6 399/4/6
f 391/3/6 392/3/6 400/3/6
f 399/4/6 391/4/6 400/4/6
f 392/4/6 393/4/6 401/4/6
f 400/3/6 392/3/6 401/3/6
f 393/2/6 394/2/6 402/2/6
f 401/4/6 393/4/6 402/4/6
f 394/4/6 385/4/6 403/4/6
f 402/2/6 394/2/6 403/2/6
f 385/4/6 364/4/6 404/4/6
f 403/4/6 385/4/6 404/4/6
f 405/1/6 406/1/6 411/1/6
f 411/1/6 406/1/6 412/1/6
f 407/1/6 408/1/6 413/1/6
f 413/1/6 408/1/6 414/1/6
f 409/1/6 410/1/6 415/1/6
f 415/1/6 410/1/6 416/1/6
f 417/1/6 418/1/6 423/1/6
f 423/1/6 418/1/6 424/1/6
f 419/1/6 420/1/6 425/1/6
f 425/1/6 420/1/6 426/1/6
f 421/1/6 422/1/6 427/1/6
f 427/1/6 422/1/6 428/1/6
