# MagicaVoxel @ Ephtracy

# group
g road17bisbis

# material
mtllib road17bisbis.mtl
usemtl palette

# normals
vn -1 0 0
vn 1 0 0
vn 0 0 1
vn 0 0 -1
vn 0 -1 0
vn 0 1 0

# texcoords
vt 0.900391 0.5
vt 0.904297 0.5
vt 0.966797 0.5

# verts
v -20.5 0 1
v -20.5 0 -1
v -20.5 2 1
v -20.5 2 -1
v -0.5 1 1
v -0.5 1 -1
v -0.5 2 1
v -0.5 2 -1
v 19.5 1 1
v 19.5 1 -1
v 19.5 2 1
v 19.5 2 -1
v -19.5 1 1
v -19.5 1 -1
v -19.5 2 1
v -19.5 2 -1
v 0.5 1 1
v 0.5 1 -1
v 0.5 2 1
v 0.5 2 -1
v 20.5 0 1
v 20.5 0 -1
v 20.5 2 1
v 20.5 2 -1
v -20.5 0 1
v -20.5 2 1
v -19.5 0 1
v -19.5 1 1
v -19.5 2 1
v -10.5 0 1
v -10.5 1 1
v -9.5 0 1
v -9.5 1 1
v -0.5 0 1
v -0.5 1 1
v -0.5 2 1
v 0.5 0 1
v 0.5 1 1
v 0.5 2 1
v 9.5 0 1
v 9.5 1 1
v 10.5 0 1
v 10.5 1 1
v 19.5 0 1
v 19.5 1 1
v 19.5 2 1
v 20.5 0 1
v 20.5 2 1
v -20.5 0 -1
v -20.5 2 -1
v -19.5 0 -1
v -19.5 1 -1
v -19.5 2 -1
v -10.5 0 -1
v -10.5 1 -1
v -9.5 0 -1
v -9.5 1 -1
v -0.5 0 -1
v -0.5 1 -1
v -0.5 2 -1
v 0.5 0 -1
v 0.5 1 -1
v 0.5 2 -1
v 9.5 0 -1
v 9.5 1 -1
v 10.5 0 -1
v 10.5 1 -1
v 19.5 0 -1
v 19.5 1 -1
v 19.5 2 -1
v 20.5 0 -1
v 20.5 2 -1
v -20.5 0 1
v -19.5 0 1
v -10.5 0 1
v -9.5 0 1
v -0.5 0 1
v 0.5 0 1
v 9.5 0 1
v 10.5 0 1
v 19.5 0 1
v 20.5 0 1
v -20.5 0 -1
v -19.5 0 -1
v -10.5 0 -1
v -9.5 0 -1
v -0.5 0 -1
v 0.5 0 -1
v 9.5 0 -1
v 10.5 0 -1
v 19.5 0 -1
v 20.5 0 -1
v -19.5 1 1
v -10.5 1 1
v -9.5 1 1
v -0.5 1 1
v 0.5 1 1
v 9.5 1 1
v 10.5 1 1
v 19.5 1 1
v -19.5 1 -1
v -10.5 1 -1
v -9.5 1 -1
v -0.5 1 -1
v 0.5 1 -1
v 9.5 1 -1
v 10.5 1 -1
v 19.5 1 -1
v -20.5 2 1
v -19.5 2 1
v -0.5 2 1
v 0.5 2 1
v 19.5 2 1
v 20.5 2 1
v -20.5 2 -1
v -19.5 2 -1
v -0.5 2 -1
v 0.5 2 -1
v 19.5 2 -1
v 20.5 2 -1

# faces
f 3/1/1 2/1/1 1/1/1
f 4/1/1 2/1/1 3/1/1
f 7/1/1 6/1/1 5/1/1
f 8/1/1 6/1/1 7/1/1
f 11/1/1 10/1/1 9/1/1
f 12/1/1 10/1/1 11/1/1
f 13/1/2 14/1/2 15/1/2
f 15/1/2 14/1/2 16/1/2
f 17/1/2 18/1/2 19/1/2
f 19/1/2 18/1/2 20/1/2
f 21/1/2 22/1/2 23/1/2
f 23/1/2 22/1/2 24/1/2
f 27/1/3 26/1/3 25/1/3
f 28/1/3 26/1/3 27/1/3
f 29/1/3 26/1/3 28/1/3
f 30/3/3 28/3/3 27/3/3
f 31/3/3 28/3/3 30/3/3
f 32/2/3 31/2/3 30/2/3
f 33/2/3 31/2/3 32/2/3
f 34/3/3 33/3/3 32/3/3
f 35/3/3 33/3/3 34/3/3
f 37/1/3 35/1/3 34/1/3
f 37/1/3 36/1/3 35/1/3
f 38/1/3 36/1/3 37/1/3
f 39/1/3 36/1/3 38/1/3
f 40/3/3 38/3/3 37/3/3
f 41/3/3 38/3/3 40/3/3
f 42/2/3 41/2/3 40/2/3
f 43/2/3 41/2/3 42/2/3
f 44/3/3 43/3/3 42/3/3
f 45/3/3 43/3/3 44/3/3
f 47/1/3 45/1/3 44/1/3
f 47/1/3 46/1/3 45/1/3
f 48/1/3 46/1/3 47/1/3
f 49/1/4 50/1/4 51/1/4
f 51/1/4 50/1/4 52/1/4
f 52/1/4 50/1/4 53/1/4
f 51/3/4 52/3/4 54/3/4
f 54/3/4 52/3/4 55/3/4
f 54/2/4 55/2/4 56/2/4
f 56/2/4 55/2/4 57/2/4
f 56/3/4 57/3/4 58/3/4
f 58/3/4 57/3/4 59/3/4
f 58/1/4 59/1/4 61/1/4
f 59/1/4 60/1/4 61/1/4
f 61/1/4 60/1/4 62/1/4
f 62/1/4 60/1/4 63/1/4
f 61/3/4 62/3/4 64/3/4
f 64/3/4 62/3/4 65/3/4
f 64/2/4 65/2/4 66/2/4
f 66/2/4 65/2/4 67/2/4
f 66/3/4 67/3/4 68/3/4
f 68/3/4 67/3/4 69/3/4
f 68/1/4 69/1/4 71/1/4
f 69/1/4 70/1/4 71/1/4
f 71/1/4 70/1/4 72/1/4
f 83/1/5 74/1/5 73/1/5
f 84/3/5 75/3/5 74/3/5
f 84/1/5 74/1/5 83/1/5
f 85/2/5 76/2/5 75/2/5
f 85/3/5 75/3/5 84/3/5
f 86/3/5 77/3/5 76/3/5
f 86/2/5 76/2/5 85/2/5
f 87/1/5 78/1/5 77/1/5
f 87/3/5 77/3/5 86/3/5
f 88/3/5 79/3/5 78/3/5
f 88/1/5 78/1/5 87/1/5
f 89/2/5 80/2/5 79/2/5
f 89/3/5 79/3/5 88/3/5
f 90/3/5 81/3/5 80/3/5
f 90/2/5 80/2/5 89/2/5
f 91/1/5 82/1/5 81/1/5
f 91/3/5 81/3/5 90/3/5
f 92/1/5 82/1/5 91/1/5
f 93/3/6 94/3/6 101/3/6
f 94/2/6 95/2/6 102/2/6
f 101/3/6 94/3/6 102/3/6
f 95/3/6 96/3/6 103/3/6
f 102/2/6 95/2/6 103/2/6
f 103/3/6 96/3/6 104/3/6
f 97/3/6 98/3/6 105/3/6
f 98/2/6 99/2/6 106/2/6
f 105/3/6 98/3/6 106/3/6
f 99/3/6 100/3/6 107/3/6
f 106/2/6 99/2/6 107/2/6
f 107/3/6 100/3/6 108/3/6
f 109/1/6 110/1/6 115/1/6
f 115/1/6 110/1/6 116/1/6
f 111/1/6 112/1/6 117/1/6
f 117/1/6 112/1/6 118/1/6
f 113/1/6 114/1/6 119/1/6
f 119/1/6 114/1/6 120/1/6
