# MagicaVoxel @ Ephtracy

# group
g road17bis

# material
mtllib road17bis.mtl
usemtl palette

# normals
vn -1 0 0
vn 1 0 0
vn 0 0 1
vn 0 0 -1
vn 0 -1 0
vn 0 1 0

# texcoords
vt 0.900391 0.5
vt 0.966797 0.5

# verts
v -20.5 0 1
v -20.5 0 -1
v -20.5 2 1
v -20.5 2 -1
v -0.5 1 1
v -0.5 1 -1
v -0.5 2 1
v -0.5 2 -1
v 19.5 1 1
v 19.5 1 -1
v 19.5 2 1
v 19.5 2 -1
v -19.5 1 1
v -19.5 1 -1
v -19.5 2 1
v -19.5 2 -1
v 0.5 1 1
v 0.5 1 -1
v 0.5 2 1
v 0.5 2 -1
v 20.5 0 1
v 20.5 0 -1
v 20.5 2 1
v 20.5 2 -1
v -20.5 0 1
v -20.5 2 1
v -19.5 0 1
v -19.5 1 1
v -19.5 2 1
v -0.5 0 1
v -0.5 1 1
v -0.5 2 1
v 0.5 0 1
v 0.5 1 1
v 0.5 2 1
v 19.5 0 1
v 19.5 1 1
v 19.5 2 1
v 20.5 0 1
v 20.5 2 1
v -20.5 0 -1
v -20.5 2 -1
v -19.5 0 -1
v -19.5 1 -1
v -19.5 2 -1
v -0.5 0 -1
v -0.5 1 -1
v -0.5 2 -1
v 0.5 0 -1
v 0.5 1 -1
v 0.5 2 -1
v 19.5 0 -1
v 19.5 1 -1
v 19.5 2 -1
v 20.5 0 -1
v 20.5 2 -1
v -20.5 0 1
v -19.5 0 1
v -0.5 0 1
v 0.5 0 1
v 19.5 0 1
v 20.5 0 1
v -20.5 0 -1
v -19.5 0 -1
v -0.5 0 -1
v 0.5 0 -1
v 19.5 0 -1
v 20.5 0 -1
v -19.5 1 1
v -0.5 1 1
v 0.5 1 1
v 19.5 1 1
v -19.5 1 -1
v -0.5 1 -1
v 0.5 1 -1
v 19.5 1 -1
v -20.5 2 1
v -19.5 2 1
v -0.5 2 1
v 0.5 2 1
v 19.5 2 1
v 20.5 2 1
v -20.5 2 -1
v -19.5 2 -1
v -0.5 2 -1
v 0.5 2 -1
v 19.5 2 -1
v 20.5 2 -1

# faces
f 3/1/1 2/1/1 1/1/1
f 4/1/1 2/1/1 3/1/1
f 7/1/1 6/1/1 5/1/1
f 8/1/1 6/1/1 7/1/1
f 11/1/1 10/1/1 9/1/1
f 12/1/1 10/1/1 11/1/1
f 13/1/2 14/1/2 15/1/2
f 15/1/2 14/1/2 16/1/2
f 17/1/2 18/1/2 19/1/2
f 19/1/2 18/1/2 20/1/2
f 21/1/2 22/1/2 23/1/2
f 23/1/2 22/1/2 24/1/2
f 27/1/3 26/1/3 25/1/3
f 28/1/3 26/1/3 27/1/3
f 29/1/3 26/1/3 28/1/3
f 30/2/3 28/2/3 27/2/3
f 31/2/3 28/2/3 30/2/3
f 33/1/3 31/1/3 30/1/3
f 33/1/3 32/1/3 31/1/3
f 34/1/3 32/1/3 33/1/3
f 35/1/3 32/1/3 34/1/3
f 36/2/3 34/2/3 33/2/3
f 37/2/3 34/2/3 36/2/3
f 39/1/3 37/1/3 36/1/3
f 39/1/3 38/1/3 37/1/3
f 40/1/3 38/1/3 39/1/3
f 41/1/4 42/1/4 43/1/4
f 43/1/4 42/1/4 44/1/4
f 44/1/4 42/1/4 45/1/4
f 43/2/4 44/2/4 46/2/4
f 46/2/4 44/2/4 47/2/4
f 46/1/4 47/1/4 49/1/4
f 47/1/4 48/1/4 49/1/4
f 49/1/4 48/1/4 50/1/4
f 50/1/4 48/1/4 51/1/4
f 49/2/4 50/2/4 52/2/4
f 52/2/4 50/2/4 53/2/4
f 52/1/4 53/1/4 55/1/4
f 53/1/4 54/1/4 55/1/4
f 55/1/4 54/1/4 56/1/4
f 63/1/5 58/1/5 57/1/5
f 64/2/5 59/2/5 58/2/5
f 64/1/5 58/1/5 63/1/5
f 65/1/5 60/1/5 59/1/5
f 65/2/5 59/2/5 64/2/5
f 66/2/5 61/2/5 60/2/5
f 66/1/5 60/1/5 65/1/5
f 67/1/5 62/1/5 61/1/5
f 67/2/5 61/2/5 66/2/5
f 68/1/5 62/1/5 67/1/5
f 69/2/6 70/2/6 73/2/6
f 73/2/6 70/2/6 74/2/6
f 71/2/6 72/2/6 75/2/6
f 75/2/6 72/2/6 76/2/6
f 77/1/6 78/1/6 83/1/6
f 83/1/6 78/1/6 84/1/6
f 79/1/6 80/1/6 85/1/6
f 85/1/6 80/1/6 86/1/6
f 81/1/6 82/1/6 87/1/6
f 87/1/6 82/1/6 88/1/6
