# Blender v2.80 (sub 51) OBJ File: ''
# www.blender.org
mtllib door2_4x3.mtl
o door2_4x3
v -1.500000 4.000000 0.062501
v -1.500000 0.000000 -0.187500
v -1.500000 -0.000000 0.062500
v -1.500000 4.000000 -0.187499
v 0.875000 2.000000 0.187500
v 0.875000 1.875000 0.062500
v 0.875000 1.875000 0.187500
v 0.875000 2.000000 0.062500
v 1.250000 1.875000 0.062500
v 1.250000 1.000000 -0.062500
v 1.250000 1.000000 0.062500
v 1.250000 2.000000 0.062500
v 1.250000 3.750000 0.062501
v 1.250000 3.750000 -0.062499
v -1.250000 1.000000 0.062500
v -1.250000 1.000000 -0.062500
v -1.250000 3.750000 0.062501
v -1.250000 3.750000 -0.062499
v 1.375000 1.875000 0.187500
v 1.375000 1.875000 0.062500
v 1.375000 2.000000 0.187500
v 1.375000 2.000000 0.062500
v 1.500000 -0.000000 0.062500
v 1.500000 0.000000 -0.187500
v 1.500000 4.000000 0.062501
v 1.500000 4.000000 -0.187499
v 1.375000 1.875000 0.187500
v 0.875000 2.000000 0.187500
v 0.875000 1.875000 0.187500
v 1.375000 2.000000 0.187500
v -1.250000 1.000000 0.062500
v -1.500000 4.000000 0.062501
v -1.500000 -0.000000 0.062500
v -1.250000 3.750000 0.062501
v 1.250000 1.000000 0.062500
v 1.250000 3.750000 0.062501
v 1.375000 1.875000 0.062500
v 1.250000 1.875000 0.062500
v 1.375000 2.000000 0.062500
v 1.250000 2.000000 0.062500
v 1.500000 -0.000000 0.062500
v 1.500000 4.000000 0.062501
v -1.000000 1.250000 -0.062500
v -1.250000 3.750000 -0.062499
v -1.250000 1.000000 -0.062500
v -1.000000 1.625000 -0.062500
v -1.000000 1.875000 -0.062500
v -1.000000 2.250000 -0.062500
v -1.000000 2.500000 -0.062500
v -1.000000 2.875000 -0.062500
v -1.000000 3.125000 -0.062499
v -1.000000 3.500000 -0.062499
v 1.000000 1.250000 -0.062500
v 1.000000 1.625000 -0.062500
v 1.000000 1.875000 -0.062500
v 1.000000 2.250000 -0.062500
v 1.000000 2.500000 -0.062500
v 1.000000 2.875000 -0.062500
v 1.000000 3.125000 -0.062499
v 1.000000 3.500000 -0.062499
v 1.250000 1.000000 -0.062500
v 1.250000 3.750000 -0.062499
v 0.875000 1.875000 0.062500
v 0.875000 2.000000 0.062500
v 1.250000 1.875000 0.062500
v 1.250000 2.000000 0.062500
v -1.500000 0.000000 -0.187500
v -1.500000 4.000000 -0.187499
v -1.000000 1.250000 -0.187500
v -1.000000 1.625000 -0.187500
v -1.000000 1.875000 -0.187500
v -1.000000 2.250000 -0.187500
v -1.000000 2.500000 -0.187500
v -1.000000 2.875000 -0.187500
v -1.000000 3.125000 -0.187499
v -1.000000 3.500000 -0.187499
v 1.000000 1.250000 -0.187500
v 1.000000 1.625000 -0.187500
v 1.000000 1.875000 -0.187500
v 1.000000 2.250000 -0.187500
v 1.000000 2.500000 -0.187500
v 1.000000 2.875000 -0.187500
v 1.000000 3.125000 -0.187499
v 1.000000 3.500000 -0.187499
v 1.500000 0.000000 -0.187500
v 1.500000 4.000000 -0.187499
v -1.500000 0.000000 -0.187500
v 1.500000 -0.000000 0.062500
v -1.500000 -0.000000 0.062500
v 1.500000 0.000000 -0.187500
v 0.875000 1.875000 0.062500
v 1.375000 1.875000 0.187500
v 0.875000 1.875000 0.187500
v 1.250000 1.875000 0.062500
v 1.375000 1.875000 0.062500
v -1.250000 3.750000 -0.062499
v 1.250000 3.750000 0.062501
v -1.250000 3.750000 0.062501
v 1.250000 3.750000 -0.062499
v -1.250000 1.000000 0.062500
v 1.250000 1.000000 0.062500
v -1.250000 1.000000 -0.062500
v 1.250000 1.000000 -0.062500
v 0.875000 2.000000 0.187500
v 1.375000 2.000000 0.187500
v 0.875000 2.000000 0.062500
v 1.250000 2.000000 0.062500
v 1.375000 2.000000 0.062500
v -1.500000 4.000000 0.062501
v 1.500000 4.000000 0.062501
v -1.500000 4.000000 -0.187499
v 1.500000 4.000000 -0.187499
vt 0.716797 0.500000
vt 0.716797 0.500000
vt 0.716797 0.500000
vt 0.716797 0.500000
vt 0.779297 0.500000
vt 0.779297 0.500000
vt 0.779297 0.500000
vt 0.779297 0.500000
vt 0.716797 0.500000
vt 0.716797 0.500000
vt 0.716797 0.500000
vt 0.716797 0.500000
vt 0.716797 0.500000
vt 0.716797 0.500000
vt 0.716797 0.500000
vt 0.716797 0.500000
vt 0.716797 0.500000
vt 0.716797 0.500000
vt 0.779297 0.500000
vt 0.779297 0.500000
vt 0.779297 0.500000
vt 0.779297 0.500000
vt 0.716797 0.500000
vt 0.716797 0.500000
vt 0.716797 0.500000
vt 0.716797 0.500000
vt 0.779297 0.500000
vt 0.779297 0.500000
vt 0.779297 0.500000
vt 0.779297 0.500000
vt 0.716797 0.500000
vt 0.716797 0.500000
vt 0.716797 0.500000
vt 0.716797 0.500000
vt 0.716797 0.500000
vt 0.716797 0.500000
vt 0.716797 0.500000
vt 0.716797 0.500000
vt 0.716797 0.500000
vt 0.716797 0.500000
vt 0.716797 0.500000
vt 0.716797 0.500000
vt 0.716797 0.500000
vt 0.716797 0.500000
vt 0.716797 0.500000
vt 0.716797 0.500000
vt 0.716797 0.500000
vt 0.716797 0.500000
vt 0.716797 0.500000
vt 0.716797 0.500000
vt 0.716797 0.500000
vt 0.716797 0.500000
vt 0.716797 0.500000
vt 0.970703 0.500000
vt 0.970703 0.500000
vt 0.970703 0.500000
vt 0.716797 0.500000
vt 0.970703 0.500000
vt 0.970703 0.500000
vt 0.970703 0.500000
vt 0.970703 0.500000
vt 0.716797 0.500000
vt 0.716797 0.500000
vt 0.970703 0.500000
vt 0.970703 0.500000
vt 0.970703 0.500000
vt 0.970703 0.500000
vt 0.716797 0.500000
vt 0.716797 0.500000
vt 0.970703 0.500000
vt 0.970703 0.500000
vt 0.970703 0.500000
vt 0.970703 0.500000
vt 0.716797 0.500000
vt 0.716797 0.500000
vt 0.970703 0.500000
vt 0.716797 0.500000
vt 0.716797 0.500000
vt 0.779297 0.500000
vt 0.779297 0.500000
vt 0.779297 0.500000
vt 0.779297 0.500000
vt 0.716797 0.500000
vt 0.716797 0.500000
vt 0.716797 0.500000
vt 0.716797 0.500000
vt 0.716797 0.500000
vt 0.716797 0.500000
vt 0.716797 0.500000
vt 0.716797 0.500000
vt 0.716797 0.500000
vt 0.716797 0.500000
vt 0.716797 0.500000
vt 0.970703 0.500000
vt 0.970703 0.500000
vt 0.970703 0.500000
vt 0.716797 0.500000
vt 0.970703 0.500000
vt 0.970703 0.500000
vt 0.970703 0.500000
vt 0.970703 0.500000
vt 0.716797 0.500000
vt 0.716797 0.500000
vt 0.970703 0.500000
vt 0.970703 0.500000
vt 0.970703 0.500000
vt 0.970703 0.500000
vt 0.716797 0.500000
vt 0.716797 0.500000
vt 0.970703 0.500000
vt 0.970703 0.500000
vt 0.970703 0.500000
vt 0.970703 0.500000
vt 0.716797 0.500000
vt 0.716797 0.500000
vt 0.970703 0.500000
vt 0.716797 0.500000
vt 0.716797 0.500000
vt 0.716797 0.500000
vt 0.716797 0.500000
vt 0.716797 0.500000
vt 0.716797 0.500000
vt 0.779297 0.500000
vt 0.779297 0.500000
vt 0.779297 0.500000
vt 0.779297 0.500000
vt 0.779297 0.500000
vt 0.716797 0.500000
vt 0.716797 0.500000
vt 0.716797 0.500000
vt 0.716797 0.500000
vt 0.716797 0.500000
vt 0.716797 0.500000
vt 0.716797 0.500000
vt 0.716797 0.500000
vt 0.779297 0.500000
vt 0.779297 0.500000
vt 0.779297 0.500000
vt 0.779297 0.500000
vt 0.779297 0.500000
vt 0.716797 0.500000
vt 0.716797 0.500000
vt 0.716797 0.500000
vt 0.716797 0.500000
vn -1.0000 0.0000 0.0000
vn 1.0000 0.0000 0.0000
vn 0.0000 -0.0000 1.0000
vn 0.0000 0.0000 -1.0000
vn 0.0000 -1.0000 -0.0000
vn 0.0000 1.0000 0.0000
usemtl palette
s 1
f 1/1/1 2/2/1 3/3/1
f 4/4/1 2/2/1 1/1/1
f 5/5/1 6/6/1 7/7/1
f 8/8/1 6/6/1 5/5/1
f 9/9/1 10/10/1 11/11/1
f 12/12/1 10/10/1 9/9/1
f 13/13/1 10/10/1 12/12/1
f 14/14/1 10/10/1 13/13/1
f 15/15/2 16/16/2 17/17/2
f 17/17/2 16/16/2 18/18/2
f 19/19/2 20/20/2 21/21/2
f 21/21/2 20/20/2 22/22/2
f 23/23/2 24/24/2 25/25/2
f 25/25/2 24/24/2 26/26/2
f 27/27/3 28/28/3 29/29/3
f 30/30/3 28/28/3 27/27/3
f 31/31/3 32/32/3 33/33/3
f 34/34/3 32/32/3 31/31/3
f 35/35/3 31/31/3 33/33/3
f 36/36/3 32/32/3 34/34/3
f 37/37/3 38/38/3 35/35/3
f 39/39/3 36/36/3 40/40/3
f 41/41/3 37/37/3 35/35/3
f 41/41/3 39/39/3 37/37/3
f 41/41/3 35/35/3 33/33/3
f 42/42/3 36/36/3 39/39/3
f 42/42/3 39/39/3 41/41/3
f 42/42/3 32/32/3 36/36/3
f 43/43/3 44/44/3 45/45/3
f 46/46/3 44/44/3 43/43/3
f 47/47/3 44/44/3 46/46/3
f 48/48/3 44/44/3 47/47/3
f 49/49/3 44/44/3 48/48/3
f 50/50/3 44/44/3 49/49/3
f 51/51/3 44/44/3 50/50/3
f 52/52/3 44/44/3 51/51/3
f 53/53/3 43/43/3 45/45/3
f 53/54/3 46/55/3 43/56/3
f 54/57/3 47/47/3 46/46/3
f 54/58/3 46/55/3 53/54/3
f 55/59/3 48/60/3 47/61/3
f 55/62/3 47/47/3 54/57/3
f 56/63/3 49/49/3 48/48/3
f 56/64/3 48/60/3 55/59/3
f 57/65/3 50/66/3 49/67/3
f 57/68/3 49/49/3 56/63/3
f 58/69/3 51/51/3 50/50/3
f 58/70/3 50/66/3 57/65/3
f 59/71/3 52/72/3 51/73/3
f 59/74/3 51/51/3 58/69/3
f 60/75/3 44/44/3 52/52/3
f 60/76/3 52/72/3 59/71/3
f 61/77/3 59/74/3 58/69/3
f 61/77/3 58/69/3 57/68/3
f 61/77/3 60/75/3 59/74/3
f 61/77/3 57/68/3 56/63/3
f 61/77/3 56/63/3 55/62/3
f 61/77/3 55/62/3 54/57/3
f 61/77/3 54/57/3 53/53/3
f 61/77/3 53/53/3 45/45/3
f 62/78/3 44/44/3 60/75/3
f 62/78/3 60/75/3 61/77/3
f 63/79/4 64/80/4 65/81/4
f 65/81/4 64/80/4 66/82/4
f 67/83/4 68/84/4 69/85/4
f 69/85/4 68/84/4 70/86/4
f 70/86/4 68/84/4 71/87/4
f 71/87/4 68/84/4 72/88/4
f 72/88/4 68/84/4 73/89/4
f 73/89/4 68/84/4 74/90/4
f 74/90/4 68/84/4 75/91/4
f 75/91/4 68/84/4 76/92/4
f 67/83/4 69/85/4 77/93/4
f 69/94/4 70/95/4 77/96/4
f 70/86/4 71/87/4 78/97/4
f 77/96/4 70/95/4 78/98/4
f 71/99/4 72/100/4 79/101/4
f 78/97/4 71/87/4 79/102/4
f 72/88/4 73/89/4 80/103/4
f 79/101/4 72/100/4 80/104/4
f 73/105/4 74/106/4 81/107/4
f 80/103/4 73/89/4 81/108/4
f 74/90/4 75/91/4 82/109/4
f 81/107/4 74/106/4 82/110/4
f 75/111/4 76/112/4 83/113/4
f 82/109/4 75/91/4 83/114/4
f 76/92/4 68/84/4 84/115/4
f 83/113/4 76/112/4 84/116/4
f 82/109/4 83/114/4 85/117/4
f 81/108/4 82/109/4 85/117/4
f 83/114/4 84/115/4 85/117/4
f 80/103/4 81/108/4 85/117/4
f 79/102/4 80/103/4 85/117/4
f 78/97/4 79/102/4 85/117/4
f 77/93/4 78/97/4 85/117/4
f 67/83/4 77/93/4 85/117/4
f 84/115/4 68/84/4 86/118/4
f 85/117/4 84/115/4 86/118/4
f 87/119/5 88/120/5 89/121/5
f 90/122/5 88/120/5 87/119/5
f 91/123/5 92/124/5 93/125/5
f 94/126/5 92/124/5 91/123/5
f 95/127/5 92/124/5 94/126/5
f 96/128/5 97/129/5 98/130/5
f 99/131/5 97/129/5 96/128/5
f 100/132/6 101/133/6 102/134/6
f 102/134/6 101/133/6 103/135/6
f 104/136/6 105/137/6 106/138/6
f 106/138/6 105/137/6 107/139/6
f 107/139/6 105/137/6 108/140/6
f 109/141/6 110/142/6 111/143/6
f 111/143/6 110/142/6 112/144/6
