# Blender v2.80 (sub 51) OBJ File: ''
# www.blender.org
mtllib door2_4x5.mtl
o door2_4x5
v -2.500000 4.000000 0.062501
v -2.500000 0.000000 -0.187500
v -2.500000 -0.000000 0.062500
v -2.500000 4.000000 -0.187499
v -0.625000 2.000000 0.187500
v -0.625000 1.875000 0.062500
v -0.625000 1.875000 0.187500
v -0.625000 2.000000 0.062500
v -0.250000 1.875000 0.062500
v -0.250000 1.000000 -0.062500
v -0.250000 1.000000 0.062500
v -0.250000 2.000000 0.062500
v -0.250000 3.750000 0.062501
v -0.250000 3.750000 -0.062499
v 0.125000 2.000000 0.187500
v 0.125000 1.875000 0.062500
v 0.125000 1.875000 0.187500
v 0.125000 2.000000 0.062500
v 2.250000 3.750000 0.062501
v 2.250000 1.000000 -0.062500
v 2.250000 1.000000 0.062500
v 2.250000 3.750000 -0.062499
v -2.250000 1.000000 0.062500
v -2.250000 1.000000 -0.062500
v -2.250000 3.750000 0.062501
v -2.250000 3.750000 -0.062499
v -0.125000 1.875000 0.187500
v -0.125000 1.875000 0.062500
v -0.125000 2.000000 0.187500
v -0.125000 2.000000 0.062500
v 0.250000 1.000000 0.062500
v 0.250000 1.000000 -0.062500
v 0.250000 1.875000 0.062500
v 0.250000 2.000000 0.062500
v 0.250000 3.750000 0.062501
v 0.250000 3.750000 -0.062499
v 0.625000 1.875000 0.187500
v 0.625000 1.875000 0.062500
v 0.625000 2.000000 0.187500
v 0.625000 2.000000 0.062500
v 2.500000 -0.000000 0.062500
v 2.500000 0.000000 -0.187500
v 2.500000 4.000000 0.062501
v 2.500000 4.000000 -0.187499
v -0.125000 1.875000 0.187500
v -0.625000 2.000000 0.187500
v -0.625000 1.875000 0.187500
v -0.125000 2.000000 0.187500
v 0.625000 1.875000 0.187500
v 0.125000 2.000000 0.187500
v 0.125000 1.875000 0.187500
v 0.625000 2.000000 0.187500
v -2.250000 1.000000 0.062500
v -2.500000 4.000000 0.062501
v -2.500000 -0.000000 0.062500
v -2.250000 3.750000 0.062501
v -0.250000 1.000000 0.062500
v -0.250000 3.750000 0.062501
v -0.125000 1.875000 0.062500
v -0.250000 1.875000 0.062500
v -0.125000 2.000000 0.062500
v -0.250000 2.000000 0.062500
v 0.125000 1.875000 0.062500
v 0.125000 2.000000 0.062500
v 0.250000 1.000000 0.062500
v 0.250000 1.875000 0.062500
v 0.250000 2.000000 0.062500
v 0.250000 3.750000 0.062501
v 2.250000 1.000000 0.062500
v 2.250000 3.750000 0.062501
v 2.500000 -0.000000 0.062500
v 2.500000 4.000000 0.062501
v -2.000000 1.250000 -0.062500
v -2.250000 3.750000 -0.062499
v -2.250000 1.000000 -0.062500
v -2.000000 1.625000 -0.062500
v -2.000000 1.875000 -0.062500
v -2.000000 2.250000 -0.062500
v -2.000000 2.500000 -0.062500
v -2.000000 2.875000 -0.062500
v -2.000000 3.125000 -0.062499
v -2.000000 3.500000 -0.062499
v -0.500000 1.250000 -0.062500
v -0.500000 1.625000 -0.062500
v -0.500000 1.875000 -0.062500
v -0.500000 2.250000 -0.062500
v -0.500000 2.500000 -0.062500
v -0.500000 2.875000 -0.062500
v -0.500000 3.125000 -0.062499
v -0.500000 3.500000 -0.062499
v -0.250000 1.000000 -0.062500
v -0.250000 3.750000 -0.062499
v 0.500000 1.250000 -0.062500
v 0.250000 3.750000 -0.062499
v 0.250000 1.000000 -0.062500
v 0.500000 1.625000 -0.062500
v 0.500000 1.875000 -0.062500
v 0.500000 2.250000 -0.062500
v 0.500000 2.500000 -0.062500
v 0.500000 2.875000 -0.062500
v 0.500000 3.125000 -0.062499
v 0.500000 3.500000 -0.062499
v 2.000000 1.250000 -0.062500
v 2.000000 1.625000 -0.062500
v 2.000000 1.875000 -0.062500
v 2.000000 2.250000 -0.062500
v 2.000000 2.500000 -0.062500
v 2.000000 2.875000 -0.062500
v 2.000000 3.125000 -0.062499
v 2.000000 3.500000 -0.062499
v 2.250000 1.000000 -0.062500
v 2.250000 3.750000 -0.062499
v -0.625000 1.875000 0.062500
v -0.625000 2.000000 0.062500
v -0.250000 1.875000 0.062500
v -0.250000 2.000000 0.062500
v 0.250000 1.875000 0.062500
v 0.250000 2.000000 0.062500
v 0.625000 1.875000 0.062500
v 0.625000 2.000000 0.062500
v -2.500000 0.000000 -0.187500
v -2.500000 4.000000 -0.187499
v -2.000000 1.250000 -0.187500
v -2.000000 1.625000 -0.187500
v -2.000000 1.875000 -0.187500
v -2.000000 2.250000 -0.187500
v -2.000000 2.500000 -0.187500
v -2.000000 2.875000 -0.187500
v -2.000000 3.125000 -0.187499
v -2.000000 3.500000 -0.187499
v -0.500000 1.250000 -0.187500
v -0.500000 1.625000 -0.187500
v -0.500000 1.875000 -0.187500
v -0.500000 2.250000 -0.187500
v -0.500000 2.500000 -0.187500
v -0.500000 2.875000 -0.187500
v -0.500000 3.125000 -0.187499
v -0.500000 3.500000 -0.187499
v 0.500000 1.250000 -0.187500
v 0.500000 1.625000 -0.187500
v 0.500000 1.875000 -0.187500
v 0.500000 2.250000 -0.187500
v 0.500000 2.500000 -0.187500
v 0.500000 2.875000 -0.187500
v 0.500000 3.125000 -0.187499
v 0.500000 3.500000 -0.187499
v 2.000000 1.250000 -0.187500
v 2.000000 1.625000 -0.187500
v 2.000000 1.875000 -0.187500
v 2.000000 2.250000 -0.187500
v 2.000000 2.500000 -0.187500
v 2.000000 2.875000 -0.187500
v 2.000000 3.125000 -0.187499
v 2.000000 3.500000 -0.187499
v 2.500000 0.000000 -0.187500
v 2.500000 4.000000 -0.187499
v -2.500000 0.000000 -0.187500
v 2.500000 -0.000000 0.062500
v -2.500000 -0.000000 0.062500
v 2.500000 0.000000 -0.187500
v -0.625000 1.875000 0.062500
v -0.125000 1.875000 0.187500
v -0.625000 1.875000 0.187500
v -0.250000 1.875000 0.062500
v -0.125000 1.875000 0.062500
v 0.125000 1.875000 0.062500
v 0.625000 1.875000 0.187500
v 0.125000 1.875000 0.187500
v 0.250000 1.875000 0.062500
v 0.625000 1.875000 0.062500
v -2.250000 3.750000 -0.062499
v -0.250000 3.750000 0.062501
v -2.250000 3.750000 0.062501
v -0.250000 3.750000 -0.062499
v 0.250000 3.750000 -0.062499
v 2.250000 3.750000 0.062501
v 0.250000 3.750000 0.062501
v 2.250000 3.750000 -0.062499
v -2.250000 1.000000 0.062500
v -0.250000 1.000000 0.062500
v -2.250000 1.000000 -0.062500
v -0.250000 1.000000 -0.062500
v 0.250000 1.000000 0.062500
v 2.250000 1.000000 0.062500
v 0.250000 1.000000 -0.062500
v 2.250000 1.000000 -0.062500
v -0.625000 2.000000 0.187500
v -0.125000 2.000000 0.187500
v -0.625000 2.000000 0.062500
v -0.250000 2.000000 0.062500
v -0.125000 2.000000 0.062500
v 0.125000 2.000000 0.187500
v 0.625000 2.000000 0.187500
v 0.125000 2.000000 0.062500
v 0.250000 2.000000 0.062500
v 0.625000 2.000000 0.062500
v -2.500000 4.000000 0.062501
v 2.500000 4.000000 0.062501
v -2.500000 4.000000 -0.187499
v 2.500000 4.000000 -0.187499
vt 0.716797 0.500000
vt 0.716797 0.500000
vt 0.716797 0.500000
vt 0.716797 0.500000
vt 0.779297 0.500000
vt 0.779297 0.500000
vt 0.779297 0.500000
vt 0.779297 0.500000
vt 0.716797 0.500000
vt 0.716797 0.500000
vt 0.716797 0.500000
vt 0.716797 0.500000
vt 0.716797 0.500000
vt 0.716797 0.500000
vt 0.779297 0.500000
vt 0.779297 0.500000
vt 0.779297 0.500000
vt 0.779297 0.500000
vt 0.716797 0.500000
vt 0.716797 0.500000
vt 0.716797 0.500000
vt 0.716797 0.500000
vt 0.716797 0.500000
vt 0.716797 0.500000
vt 0.716797 0.500000
vt 0.716797 0.500000
vt 0.779297 0.500000
vt 0.779297 0.500000
vt 0.779297 0.500000
vt 0.779297 0.500000
vt 0.716797 0.500000
vt 0.716797 0.500000
vt 0.716797 0.500000
vt 0.716797 0.500000
vt 0.716797 0.500000
vt 0.716797 0.500000
vt 0.779297 0.500000
vt 0.779297 0.500000
vt 0.779297 0.500000
vt 0.779297 0.500000
vt 0.716797 0.500000
vt 0.716797 0.500000
vt 0.716797 0.500000
vt 0.716797 0.500000
vt 0.779297 0.500000
vt 0.779297 0.500000
vt 0.779297 0.500000
vt 0.779297 0.500000
vt 0.779297 0.500000
vt 0.779297 0.500000
vt 0.779297 0.500000
vt 0.779297 0.500000
vt 0.716797 0.500000
vt 0.716797 0.500000
vt 0.716797 0.500000
vt 0.716797 0.500000
vt 0.716797 0.500000
vt 0.716797 0.500000
vt 0.716797 0.500000
vt 0.716797 0.500000
vt 0.716797 0.500000
vt 0.716797 0.500000
vt 0.716797 0.500000
vt 0.716797 0.500000
vt 0.716797 0.500000
vt 0.716797 0.500000
vt 0.716797 0.500000
vt 0.716797 0.500000
vt 0.716797 0.500000
vt 0.716797 0.500000
vt 0.716797 0.500000
vt 0.716797 0.500000
vt 0.716797 0.500000
vt 0.716797 0.500000
vt 0.716797 0.500000
vt 0.716797 0.500000
vt 0.716797 0.500000
vt 0.716797 0.500000
vt 0.716797 0.500000
vt 0.716797 0.500000
vt 0.716797 0.500000
vt 0.716797 0.500000
vt 0.716797 0.500000
vt 0.970703 0.500000
vt 0.970703 0.500000
vt 0.970703 0.500000
vt 0.716797 0.500000
vt 0.970703 0.500000
vt 0.970703 0.500000
vt 0.970703 0.500000
vt 0.970703 0.500000
vt 0.716797 0.500000
vt 0.716797 0.500000
vt 0.970703 0.500000
vt 0.970703 0.500000
vt 0.970703 0.500000
vt 0.970703 0.500000
vt 0.716797 0.500000
vt 0.716797 0.500000
vt 0.970703 0.500000
vt 0.970703 0.500000
vt 0.970703 0.500000
vt 0.970703 0.500000
vt 0.716797 0.500000
vt 0.716797 0.500000
vt 0.970703 0.500000
vt 0.716797 0.500000
vt 0.716797 0.500000
vt 0.716797 0.500000
vt 0.716797 0.500000
vt 0.716797 0.500000
vt 0.716797 0.500000
vt 0.716797 0.500000
vt 0.716797 0.500000
vt 0.716797 0.500000
vt 0.716797 0.500000
vt 0.716797 0.500000
vt 0.716797 0.500000
vt 0.716797 0.500000
vt 0.970703 0.500000
vt 0.970703 0.500000
vt 0.970703 0.500000
vt 0.716797 0.500000
vt 0.970703 0.500000
vt 0.970703 0.500000
vt 0.970703 0.500000
vt 0.970703 0.500000
vt 0.716797 0.500000
vt 0.716797 0.500000
vt 0.970703 0.500000
vt 0.970703 0.500000
vt 0.970703 0.500000
vt 0.970703 0.500000
vt 0.716797 0.500000
vt 0.716797 0.500000
vt 0.970703 0.500000
vt 0.970703 0.500000
vt 0.970703 0.500000
vt 0.970703 0.500000
vt 0.716797 0.500000
vt 0.716797 0.500000
vt 0.970703 0.500000
vt 0.716797 0.500000
vt 0.716797 0.500000
vt 0.779297 0.500000
vt 0.779297 0.500000
vt 0.779297 0.500000
vt 0.779297 0.500000
vt 0.779297 0.500000
vt 0.779297 0.500000
vt 0.779297 0.500000
vt 0.779297 0.500000
vt 0.716797 0.500000
vt 0.716797 0.500000
vt 0.716797 0.500000
vt 0.716797 0.500000
vt 0.716797 0.500000
vt 0.716797 0.500000
vt 0.716797 0.500000
vt 0.716797 0.500000
vt 0.716797 0.500000
vt 0.716797 0.500000
vt 0.716797 0.500000
vt 0.970703 0.500000
vt 0.970703 0.500000
vt 0.970703 0.500000
vt 0.716797 0.500000
vt 0.970703 0.500000
vt 0.970703 0.500000
vt 0.970703 0.500000
vt 0.970703 0.500000
vt 0.716797 0.500000
vt 0.716797 0.500000
vt 0.970703 0.500000
vt 0.970703 0.500000
vt 0.970703 0.500000
vt 0.970703 0.500000
vt 0.716797 0.500000
vt 0.716797 0.500000
vt 0.970703 0.500000
vt 0.970703 0.500000
vt 0.970703 0.500000
vt 0.970703 0.500000
vt 0.716797 0.500000
vt 0.716797 0.500000
vt 0.970703 0.500000
vt 0.716797 0.500000
vt 0.716797 0.500000
vt 0.716797 0.500000
vt 0.716797 0.500000
vt 0.716797 0.500000
vt 0.716797 0.500000
vt 0.716797 0.500000
vt 0.716797 0.500000
vt 0.716797 0.500000
vt 0.970703 0.500000
vt 0.970703 0.500000
vt 0.970703 0.500000
vt 0.716797 0.500000
vt 0.970703 0.500000
vt 0.970703 0.500000
vt 0.970703 0.500000
vt 0.970703 0.500000
vt 0.716797 0.500000
vt 0.716797 0.500000
vt 0.970703 0.500000
vt 0.970703 0.500000
vt 0.970703 0.500000
vt 0.970703 0.500000
vt 0.716797 0.500000
vt 0.716797 0.500000
vt 0.970703 0.500000
vt 0.970703 0.500000
vt 0.970703 0.500000
vt 0.970703 0.500000
vt 0.716797 0.500000
vt 0.716797 0.500000
vt 0.970703 0.500000
vt 0.716797 0.500000
vt 0.716797 0.500000
vt 0.716797 0.500000
vt 0.716797 0.500000
vt 0.716797 0.500000
vt 0.716797 0.500000
vt 0.779297 0.500000
vt 0.779297 0.500000
vt 0.779297 0.500000
vt 0.779297 0.500000
vt 0.779297 0.500000
vt 0.779297 0.500000
vt 0.779297 0.500000
vt 0.779297 0.500000
vt 0.779297 0.500000
vt 0.779297 0.500000
vt 0.716797 0.500000
vt 0.716797 0.500000
vt 0.716797 0.500000
vt 0.716797 0.500000
vt 0.716797 0.500000
vt 0.716797 0.500000
vt 0.716797 0.500000
vt 0.716797 0.500000
vt 0.716797 0.500000
vt 0.716797 0.500000
vt 0.716797 0.500000
vt 0.716797 0.500000
vt 0.716797 0.500000
vt 0.716797 0.500000
vt 0.716797 0.500000
vt 0.716797 0.500000
vt 0.779297 0.500000
vt 0.779297 0.500000
vt 0.779297 0.500000
vt 0.779297 0.500000
vt 0.779297 0.500000
vt 0.779297 0.500000
vt 0.779297 0.500000
vt 0.779297 0.500000
vt 0.779297 0.500000
vt 0.779297 0.500000
vt 0.716797 0.500000
vt 0.716797 0.500000
vt 0.716797 0.500000
vt 0.716797 0.500000
vn -1.0000 -0.0000 0.0000
vn 1.0000 0.0000 0.0000
vn 0.0000 -0.0000 1.0000
vn 0.0000 0.0000 -1.0000
vn 0.0000 -1.0000 -0.0000
vn 0.0000 1.0000 0.0000
usemtl palette
s 1
f 1/1/1 2/2/1 3/3/1
f 4/4/1 2/2/1 1/1/1
f 5/5/1 6/6/1 7/7/1
f 8/8/1 6/6/1 5/5/1
f 9/9/1 10/10/1 11/11/1
f 12/12/1 10/10/1 9/9/1
f 13/13/1 10/10/1 12/12/1
f 14/14/1 10/10/1 13/13/1
f 15/15/1 16/16/1 17/17/1
f 18/18/1 16/16/1 15/15/1
f 19/19/1 20/20/1 21/21/1
f 22/22/1 20/20/1 19/19/1
f 23/23/2 24/24/2 25/25/2
f 25/25/2 24/24/2 26/26/2
f 27/27/2 28/28/2 29/29/2
f 29/29/2 28/28/2 30/30/2
f 31/31/2 32/32/2 33/33/2
f 33/33/2 32/32/2 34/34/2
f 34/34/2 32/32/2 35/35/2
f 35/35/2 32/32/2 36/36/2
f 37/37/2 38/38/2 39/39/2
f 39/39/2 38/38/2 40/40/2
f 41/41/2 42/42/2 43/43/2
f 43/43/2 42/42/2 44/44/2
f 45/45/3 46/46/3 47/47/3
f 48/48/3 46/46/3 45/45/3
f 49/49/3 50/50/3 51/51/3
f 52/52/3 50/50/3 49/49/3
f 53/53/3 54/54/3 55/55/3
f 56/56/3 54/54/3 53/53/3
f 57/57/3 53/53/3 55/55/3
f 58/58/3 54/54/3 56/56/3
f 59/59/3 60/60/3 57/57/3
f 61/61/3 58/58/3 62/62/3
f 63/63/3 59/59/3 57/57/3
f 63/63/3 61/61/3 59/59/3
f 64/64/3 58/58/3 61/61/3
f 64/64/3 61/61/3 63/63/3
f 65/65/3 63/63/3 57/57/3
f 65/65/3 57/57/3 55/55/3
f 66/66/3 63/63/3 65/65/3
f 67/67/3 58/58/3 64/64/3
f 68/68/3 54/54/3 58/58/3
f 68/68/3 58/58/3 67/67/3
f 69/69/3 65/65/3 55/55/3
f 70/70/3 54/54/3 68/68/3
f 71/71/3 69/69/3 55/55/3
f 71/71/3 70/70/3 69/69/3
f 72/72/3 54/54/3 70/70/3
f 72/72/3 70/70/3 71/71/3
f 73/73/3 74/74/3 75/75/3
f 76/76/3 74/74/3 73/73/3
f 77/77/3 74/74/3 76/76/3
f 78/78/3 74/74/3 77/77/3
f 79/79/3 74/74/3 78/78/3
f 80/80/3 74/74/3 79/79/3
f 81/81/3 74/74/3 80/80/3
f 82/82/3 74/74/3 81/81/3
f 83/83/3 73/73/3 75/75/3
f 83/84/3 76/85/3 73/86/3
f 84/87/3 77/77/3 76/76/3
f 84/88/3 76/85/3 83/84/3
f 85/89/3 78/90/3 77/91/3
f 85/92/3 77/77/3 84/87/3
f 86/93/3 79/79/3 78/78/3
f 86/94/3 78/90/3 85/89/3
f 87/95/3 80/96/3 79/97/3
f 87/98/3 79/79/3 86/93/3
f 88/99/3 81/81/3 80/80/3
f 88/100/3 80/96/3 87/95/3
f 89/101/3 82/102/3 81/103/3
f 89/104/3 81/81/3 88/99/3
f 90/105/3 74/74/3 82/82/3
f 90/106/3 82/102/3 89/101/3
f 91/107/3 89/104/3 88/99/3
f 91/107/3 88/99/3 87/98/3
f 91/107/3 90/105/3 89/104/3
f 91/107/3 87/98/3 86/93/3
f 91/107/3 86/93/3 85/92/3
f 91/107/3 85/92/3 84/87/3
f 91/107/3 84/87/3 83/83/3
f 91/107/3 83/83/3 75/75/3
f 92/108/3 74/74/3 90/105/3
f 92/108/3 90/105/3 91/107/3
f 93/109/3 94/110/3 95/111/3
f 96/112/3 94/110/3 93/109/3
f 97/113/3 94/110/3 96/112/3
f 98/114/3 94/110/3 97/113/3
f 99/115/3 94/110/3 98/114/3
f 100/116/3 94/110/3 99/115/3
f 101/117/3 94/110/3 100/116/3
f 102/118/3 94/110/3 101/117/3
f 103/119/3 93/109/3 95/111/3
f 103/120/3 96/121/3 93/122/3
f 104/123/3 97/113/3 96/112/3
f 104/124/3 96/121/3 103/120/3
f 105/125/3 98/126/3 97/127/3
f 105/128/3 97/113/3 104/123/3
f 106/129/3 99/115/3 98/114/3
f 106/130/3 98/126/3 105/125/3
f 107/131/3 100/132/3 99/133/3
f 107/134/3 99/115/3 106/129/3
f 108/135/3 101/117/3 100/116/3
f 108/136/3 100/132/3 107/131/3
f 109/137/3 102/138/3 101/139/3
f 109/140/3 101/117/3 108/135/3
f 110/141/3 94/110/3 102/118/3
f 110/142/3 102/138/3 109/137/3
f 111/143/3 109/140/3 108/135/3
f 111/143/3 108/135/3 107/134/3
f 111/143/3 110/141/3 109/140/3
f 111/143/3 107/134/3 106/129/3
f 111/143/3 106/129/3 105/128/3
f 111/143/3 105/128/3 104/123/3
f 111/143/3 104/123/3 103/119/3
f 111/143/3 103/119/3 95/111/3
f 112/144/3 94/110/3 110/141/3
f 112/144/3 110/141/3 111/143/3
f 113/145/4 114/146/4 115/147/4
f 115/147/4 114/146/4 116/148/4
f 117/149/4 118/150/4 119/151/4
f 119/151/4 118/150/4 120/152/4
f 121/153/4 122/154/4 123/155/4
f 123/155/4 122/154/4 124/156/4
f 124/156/4 122/154/4 125/157/4
f 125/157/4 122/154/4 126/158/4
f 126/158/4 122/154/4 127/159/4
f 127/159/4 122/154/4 128/160/4
f 128/160/4 122/154/4 129/161/4
f 129/161/4 122/154/4 130/162/4
f 121/153/4 123/155/4 131/163/4
f 123/164/4 124/165/4 131/166/4
f 124/156/4 125/157/4 132/167/4
f 131/166/4 124/165/4 132/168/4
f 125/169/4 126/170/4 133/171/4
f 132/167/4 125/157/4 133/172/4
f 126/158/4 127/159/4 134/173/4
f 133/171/4 126/170/4 134/174/4
f 127/175/4 128/176/4 135/177/4
f 134/173/4 127/159/4 135/178/4
f 128/160/4 129/161/4 136/179/4
f 135/177/4 128/176/4 136/180/4
f 129/181/4 130/182/4 137/183/4
f 136/179/4 129/161/4 137/184/4
f 130/162/4 122/154/4 138/185/4
f 137/183/4 130/182/4 138/186/4
f 136/179/4 137/184/4 139/187/4
f 135/178/4 136/179/4 139/187/4
f 137/184/4 138/185/4 139/187/4
f 134/173/4 135/178/4 139/187/4
f 133/172/4 134/173/4 139/187/4
f 132/167/4 133/172/4 139/187/4
f 131/163/4 132/167/4 139/187/4
f 121/153/4 131/163/4 139/187/4
f 139/187/4 138/185/4 140/188/4
f 140/188/4 138/185/4 141/189/4
f 141/189/4 138/185/4 142/190/4
f 142/190/4 138/185/4 143/191/4
f 143/191/4 138/185/4 144/192/4
f 144/192/4 138/185/4 145/193/4
f 138/185/4 122/154/4 146/194/4
f 145/193/4 138/185/4 146/194/4
f 121/153/4 139/187/4 147/195/4
f 139/196/4 140/197/4 147/198/4
f 140/188/4 141/189/4 148/199/4
f 147/198/4 140/197/4 148/200/4
f 141/201/4 142/202/4 149/203/4
f 148/199/4 141/189/4 149/204/4
f 142/190/4 143/191/4 150/205/4
f 149/203/4 142/202/4 150/206/4
f 143/207/4 144/208/4 151/209/4
f 150/205/4 143/191/4 151/210/4
f 144/192/4 145/193/4 152/211/4
f 151/209/4 144/208/4 152/212/4
f 145/213/4 146/214/4 153/215/4
f 152/211/4 145/193/4 153/216/4
f 146/194/4 122/154/4 154/217/4
f 153/215/4 146/214/4 154/218/4
f 150/205/4 151/210/4 155/219/4
f 152/211/4 153/216/4 155/219/4
f 153/216/4 154/217/4 155/219/4
f 149/204/4 150/205/4 155/219/4
f 148/199/4 149/204/4 155/219/4
f 147/195/4 148/199/4 155/219/4
f 121/153/4 147/195/4 155/219/4
f 151/210/4 152/211/4 155/219/4
f 154/217/4 122/154/4 156/220/4
f 155/219/4 154/217/4 156/220/4
f 157/221/5 158/222/5 159/223/5
f 160/224/5 158/222/5 157/221/5
f 161/225/5 162/226/5 163/227/5
f 164/228/5 162/226/5 161/225/5
f 165/229/5 162/226/5 164/228/5
f 166/230/5 167/231/5 168/232/5
f 169/233/5 167/231/5 166/230/5
f 170/234/5 167/231/5 169/233/5
f 171/235/5 172/236/5 173/237/5
f 174/238/5 172/236/5 171/235/5
f 175/239/5 176/240/5 177/241/5
f 178/242/5 176/240/5 175/239/5
f 179/243/6 180/244/6 181/245/6
f 181/245/6 180/244/6 182/246/6
f 183/247/6 184/248/6 185/249/6
f 185/249/6 184/248/6 186/250/6
f 187/251/6 188/252/6 189/253/6
f 189/253/6 188/252/6 190/254/6
f 190/254/6 188/252/6 191/255/6
f 192/256/6 193/257/6 194/258/6
f 194/258/6 193/257/6 195/259/6
f 195/259/6 193/257/6 196/260/6
f 197/261/6 198/262/6 199/263/6
f 199/263/6 198/262/6 200/264/6
