# Blender v2.80 (sub 51) OBJ File: ''
# www.blender.org
mtllib untitled.mtl
o door1_4x3.001
v -1.500000 4.000000 0.062501
v -1.500000 0.000000 -0.187500
v -1.500000 -0.000000 0.062500
v -1.500000 4.000000 -0.187499
v -0.875000 3.375000 0.062501
v -0.875000 0.625000 -0.062500
v -0.875000 0.625000 0.062500
v -0.875000 3.375000 -0.062499
v 0.875000 2.000000 0.187500
v 0.875000 1.875000 0.062500
v 0.875000 1.875000 0.187500
v 0.875000 2.000000 0.062500
v 1.250000 1.875000 0.062500
v 1.250000 0.250000 -0.062500
v 1.250000 0.250000 0.062500
v 1.250000 2.000000 0.062500
v 1.250000 3.750000 0.062501
v 1.250000 3.750000 -0.062499
v -1.250000 0.250000 0.062500
v -1.250000 0.250000 -0.062500
v -1.250000 3.750000 0.062501
v -1.250000 3.750000 -0.062499
v 0.875000 0.625000 0.062500
v 0.875000 0.625000 -0.062500
v 0.875000 1.875000 0.062500
v 0.875000 2.000000 0.062500
v 0.875000 3.375000 0.062501
v 0.875000 3.375000 -0.062499
v 1.375000 1.875000 0.187500
v 1.375000 1.875000 0.062500
v 1.375000 2.000000 0.187500
v 1.375000 2.000000 0.062500
v 1.500000 -0.000000 0.062500
v 1.500000 0.000000 -0.187500
v 1.500000 4.000000 0.062501
v 1.500000 4.000000 -0.187499
v 1.375000 1.875000 0.187500
v 0.875000 2.000000 0.187500
v 0.875000 1.875000 0.187500
v 1.375000 2.000000 0.187500
v -1.250000 0.250000 0.062500
v -1.500000 4.000000 0.062501
v -1.500000 -0.000000 0.062500
v -1.250000 3.750000 0.062501
v 0.875000 0.625000 0.062500
v -0.875000 3.375000 0.062501
v -0.875000 0.625000 0.062500
v 0.875000 1.875000 0.062500
v 0.875000 2.000000 0.062500
v 0.875000 3.375000 0.062501
v 1.250000 0.250000 0.062500
v 1.250000 3.750000 0.062501
v 1.375000 1.875000 0.062500
v 1.250000 1.875000 0.062500
v 1.375000 2.000000 0.062500
v 1.250000 2.000000 0.062500
v 1.500000 -0.000000 0.062500
v 1.500000 4.000000 0.062501
v -0.875000 0.625000 -0.062500
v -1.250000 3.750000 -0.062499
v -1.250000 0.250000 -0.062500
v -0.875000 3.375000 -0.062499
v 0.875000 0.625000 -0.062500
v 0.875000 3.375000 -0.062499
v 1.250000 0.250000 -0.062500
v 1.250000 3.750000 -0.062499
v 0.875000 1.875000 0.062500
v 0.875000 2.000000 0.062500
v 1.250000 1.875000 0.062500
v 1.250000 2.000000 0.062500
v -1.500000 0.000000 -0.187500
v -1.500000 4.000000 -0.187499
v 1.500000 0.000000 -0.187500
v 1.500000 4.000000 -0.187499
v -1.500000 0.000000 -0.187500
v 1.500000 -0.000000 0.062500
v -1.500000 -0.000000 0.062500
v 1.500000 0.000000 -0.187500
v -0.875000 0.625000 -0.062500
v 0.875000 0.625000 0.062500
v -0.875000 0.625000 0.062500
v 0.875000 0.625000 -0.062500
v 0.875000 1.875000 0.062500
v 1.375000 1.875000 0.187500
v 0.875000 1.875000 0.187500
v 1.250000 1.875000 0.062500
v 1.375000 1.875000 0.062500
v -1.250000 3.750000 -0.062499
v 1.250000 3.750000 0.062501
v -1.250000 3.750000 0.062501
v 1.250000 3.750000 -0.062499
v -1.250000 0.250000 0.062500
v 1.250000 0.250000 0.062500
v -1.250000 0.250000 -0.062500
v 1.250000 0.250000 -0.062500
v 0.875000 2.000000 0.187500
v 1.375000 2.000000 0.187500
v 0.875000 2.000000 0.062500
v 1.250000 2.000000 0.062500
v 1.375000 2.000000 0.062500
v -0.875000 3.375000 0.062501
v 0.875000 3.375000 0.062501
v -0.875000 3.375000 -0.062499
v 0.875000 3.375000 -0.062499
v -1.500000 4.000000 0.062501
v 1.500000 4.000000 0.062501
v -1.500000 4.000000 -0.187499
v 1.500000 4.000000 -0.187499
vt 0.716797 0.500000
vt 0.716797 0.500000
vt 0.716797 0.500000
vt 0.716797 0.500000
vt 0.716797 0.500000
vt 0.716797 0.500000
vt 0.716797 0.500000
vt 0.716797 0.500000
vt 0.779297 0.500000
vt 0.779297 0.500000
vt 0.779297 0.500000
vt 0.779297 0.500000
vt 0.716797 0.500000
vt 0.716797 0.500000
vt 0.716797 0.500000
vt 0.716797 0.500000
vt 0.716797 0.500000
vt 0.716797 0.500000
vt 0.716797 0.500000
vt 0.716797 0.500000
vt 0.716797 0.500000
vt 0.716797 0.500000
vt 0.716797 0.500000
vt 0.716797 0.500000
vt 0.716797 0.500000
vt 0.716797 0.500000
vt 0.716797 0.500000
vt 0.716797 0.500000
vt 0.779297 0.500000
vt 0.779297 0.500000
vt 0.779297 0.500000
vt 0.779297 0.500000
vt 0.716797 0.500000
vt 0.716797 0.500000
vt 0.716797 0.500000
vt 0.716797 0.500000
vt 0.779297 0.500000
vt 0.779297 0.500000
vt 0.779297 0.500000
vt 0.779297 0.500000
vt 0.716797 0.500000
vt 0.716797 0.500000
vt 0.716797 0.500000
vt 0.716797 0.500000
vt 0.716797 0.500000
vt 0.716797 0.500000
vt 0.716797 0.500000
vt 0.716797 0.500000
vt 0.716797 0.500000
vt 0.716797 0.500000
vt 0.716797 0.500000
vt 0.716797 0.500000
vt 0.716797 0.500000
vt 0.716797 0.500000
vt 0.716797 0.500000
vt 0.716797 0.500000
vt 0.716797 0.500000
vt 0.716797 0.500000
vt 0.716797 0.500000
vt 0.716797 0.500000
vt 0.716797 0.500000
vt 0.716797 0.500000
vt 0.716797 0.500000
vt 0.716797 0.500000
vt 0.716797 0.500000
vt 0.716797 0.500000
vt 0.779297 0.500000
vt 0.779297 0.500000
vt 0.779297 0.500000
vt 0.779297 0.500000
vt 0.716797 0.500000
vt 0.716797 0.500000
vt 0.716797 0.500000
vt 0.716797 0.500000
vt 0.716797 0.500000
vt 0.716797 0.500000
vt 0.716797 0.500000
vt 0.716797 0.500000
vt 0.716797 0.500000
vt 0.716797 0.500000
vt 0.716797 0.500000
vt 0.716797 0.500000
vt 0.779297 0.500000
vt 0.779297 0.500000
vt 0.779297 0.500000
vt 0.779297 0.500000
vt 0.779297 0.500000
vt 0.716797 0.500000
vt 0.716797 0.500000
vt 0.716797 0.500000
vt 0.716797 0.500000
vt 0.716797 0.500000
vt 0.716797 0.500000
vt 0.716797 0.500000
vt 0.716797 0.500000
vt 0.779297 0.500000
vt 0.779297 0.500000
vt 0.779297 0.500000
vt 0.779297 0.500000
vt 0.779297 0.500000
vt 0.716797 0.500000
vt 0.716797 0.500000
vt 0.716797 0.500000
vt 0.716797 0.500000
vt 0.716797 0.500000
vt 0.716797 0.500000
vt 0.716797 0.500000
vt 0.716797 0.500000
vn -1.0000 0.0000 0.0000
vn 1.0000 0.0000 0.0000
vn 0.0000 -0.0000 1.0000
vn 0.0000 0.0000 -1.0000
vn 0.0000 -1.0000 -0.0000
vn 0.0000 1.0000 0.0000
usemtl palette
s 1
f 1/1/1 2/2/1 3/3/1
f 4/4/1 2/2/1 1/1/1
f 5/5/1 6/6/1 7/7/1
f 8/8/1 6/6/1 5/5/1
f 9/9/1 10/10/1 11/11/1
f 12/12/1 10/10/1 9/9/1
f 13/13/1 14/14/1 15/15/1
f 16/16/1 14/14/1 13/13/1
f 17/17/1 14/14/1 16/16/1
f 18/18/1 14/14/1 17/17/1
f 19/19/2 20/20/2 21/21/2
f 21/21/2 20/20/2 22/22/2
f 23/23/2 24/24/2 25/25/2
f 25/25/2 24/24/2 26/26/2
f 26/26/2 24/24/2 27/27/2
f 27/27/2 24/24/2 28/28/2
f 29/29/2 30/30/2 31/31/2
f 31/31/2 30/30/2 32/32/2
f 33/33/2 34/34/2 35/35/2
f 35/35/2 34/34/2 36/36/2
f 37/37/3 38/38/3 39/39/3
f 40/40/3 38/38/3 37/37/3
f 41/41/3 42/42/3 43/43/3
f 44/44/3 42/42/3 41/41/3
f 45/45/3 46/46/3 47/47/3
f 48/48/3 46/46/3 45/45/3
f 49/49/3 46/46/3 48/48/3
f 50/50/3 46/46/3 49/49/3
f 51/51/3 41/41/3 43/43/3
f 52/52/3 42/42/3 44/44/3
f 53/53/3 54/54/3 51/51/3
f 55/55/3 52/52/3 56/56/3
f 57/57/3 53/53/3 51/51/3
f 57/57/3 55/55/3 53/53/3
f 57/57/3 51/51/3 43/43/3
f 58/58/3 52/52/3 55/55/3
f 58/58/3 55/55/3 57/57/3
f 58/58/3 42/42/3 52/52/3
f 59/59/3 60/60/3 61/61/3
f 62/62/3 60/60/3 59/59/3
f 63/63/3 59/59/3 61/61/3
f 64/64/3 60/60/3 62/62/3
f 65/65/3 63/63/3 61/61/3
f 65/65/3 64/64/3 63/63/3
f 66/66/3 60/60/3 64/64/3
f 66/66/3 64/64/3 65/65/3
f 67/67/4 68/68/4 69/69/4
f 69/69/4 68/68/4 70/70/4
f 71/71/4 72/72/4 73/73/4
f 73/73/4 72/72/4 74/74/4
f 75/75/5 76/76/5 77/77/5
f 78/78/5 76/76/5 75/75/5
f 79/79/5 80/80/5 81/81/5
f 82/82/5 80/80/5 79/79/5
f 83/83/5 84/84/5 85/85/5
f 86/86/5 84/84/5 83/83/5
f 87/87/5 84/84/5 86/86/5
f 88/88/5 89/89/5 90/90/5
f 91/91/5 89/89/5 88/88/5
f 92/92/6 93/93/6 94/94/6
f 94/94/6 93/93/6 95/95/6
f 96/96/6 97/97/6 98/98/6
f 98/98/6 97/97/6 99/99/6
f 99/99/6 97/97/6 100/100/6
f 101/101/6 102/102/6 103/103/6
f 103/103/6 102/102/6 104/104/6
f 105/105/6 106/106/6 107/107/6
f 107/107/6 106/106/6 108/108/6
