# Blender v2.80 (sub 74) OBJ File: ''
# www.blender.org
mtllib door4_4x3.mtl
o door4_4x3
v -1.500000 4.000000 0.062501
v -1.500000 0.000000 -0.187500
v -1.500000 -0.000000 0.062500
v -1.500000 4.000000 -0.187499
v -1.375000 2.000000 0.187500
v -1.375000 1.875000 0.062500
v -1.375000 1.875000 0.187500
v -1.375000 2.000000 0.062500
v -0.125000 1.375000 0.062500
v -0.125000 0.625000 -0.062500
v -0.125000 0.625000 0.062500
v -0.125000 1.375000 -0.062500
v -0.125000 2.500000 0.062500
v -0.125000 1.750000 -0.062500
v -0.125000 1.750000 0.062500
v -0.125000 2.500000 -0.062500
v -0.125000 3.625000 0.062501
v -0.125000 2.875000 -0.062500
v -0.125000 2.875000 0.062500
v -0.125000 3.625000 -0.062499
v 0.875000 1.375000 0.062500
v 0.875000 0.625000 -0.062500
v 0.875000 0.625000 0.062500
v 0.875000 1.375000 -0.062500
v 0.875000 2.500000 0.062500
v 0.875000 1.750000 -0.062500
v 0.875000 1.750000 0.062500
v 0.875000 2.500000 -0.062500
v 0.875000 3.625000 0.062501
v 0.875000 2.875000 -0.062500
v 0.875000 2.875000 0.062500
v 0.875000 3.625000 -0.062499
v -1.000000 1.875000 0.187500
v -1.000000 1.875000 0.062500
v -1.000000 2.000000 0.187500
v -1.000000 2.000000 0.062500
v -0.875000 0.625000 0.062500
v -0.875000 0.625000 -0.062500
v -0.875000 1.375000 0.062500
v -0.875000 1.375000 -0.062500
v -0.875000 1.750000 0.062500
v -0.875000 1.750000 -0.062500
v -0.875000 2.500000 0.062500
v -0.875000 2.500000 -0.062500
v -0.875000 2.875000 0.062500
v -0.875000 2.875000 -0.062500
v -0.875000 3.625000 0.062501
v -0.875000 3.625000 -0.062499
v 0.125000 0.625000 0.062500
v 0.125000 0.625000 -0.062500
v 0.125000 1.375000 0.062500
v 0.125000 1.375000 -0.062500
v 0.125000 1.750000 0.062500
v 0.125000 1.750000 -0.062500
v 0.125000 2.500000 0.062500
v 0.125000 2.500000 -0.062500
v 0.125000 2.875000 0.062500
v 0.125000 2.875000 -0.062500
v 0.125000 3.625000 0.062501
v 0.125000 3.625000 -0.062499
v 1.500000 -0.000000 0.062500
v 1.500000 0.000000 -0.187500
v 1.500000 4.000000 0.062501
v 1.500000 4.000000 -0.187499
v -1.000000 1.875000 0.187500
v -1.375000 2.000000 0.187500
v -1.375000 1.875000 0.187500
v -1.000000 2.000000 0.187500
v -1.375000 1.625000 0.062500
v -1.500000 4.000000 0.062501
v -1.500000 -0.000000 0.062500
v -1.375000 1.875000 0.062500
v -1.375000 2.000000 0.062500
v -1.375000 2.125000 0.062500
v -1.250000 1.625000 0.062500
v -1.250000 1.875000 0.062500
v -1.250000 2.000000 0.062500
v -1.250000 2.125000 0.062500
v -1.000000 1.875000 0.062500
v -1.000000 2.000000 0.062500
v -0.875000 0.625000 0.062500
v -0.875000 1.375000 0.062500
v -0.875000 1.750000 0.062500
v -0.875000 2.500000 0.062500
v -0.875000 2.875000 0.062500
v -0.875000 3.625000 0.062501
v -0.125000 0.625000 0.062500
v -0.125000 1.375000 0.062500
v -0.125000 1.750000 0.062500
v -0.125000 2.500000 0.062500
v -0.125000 2.875000 0.062500
v -0.125000 3.625000 0.062501
v 0.125000 0.625000 0.062500
v 0.125000 1.375000 0.062500
v 0.125000 1.750000 0.062500
v 0.125000 2.500000 0.062500
v 0.125000 2.875000 0.062500
v 0.125000 3.625000 0.062501
v 0.875000 0.625000 0.062500
v 0.875000 1.375000 0.062500
v 0.875000 1.750000 0.062500
v 0.875000 2.500000 0.062500
v 0.875000 2.875000 0.062500
v 0.875000 3.625000 0.062501
v 1.500000 -0.000000 0.062500
v 1.500000 4.000000 0.062501
v -0.125000 0.625000 -0.062500
v -0.875000 1.375000 -0.062500
v -0.875000 0.625000 -0.062500
v -0.125000 1.375000 -0.062500
v -0.125000 1.750000 -0.062500
v -0.875000 2.500000 -0.062500
v -0.875000 1.750000 -0.062500
v -0.125000 2.500000 -0.062500
v -0.125000 2.875000 -0.062500
v -0.875000 3.625000 -0.062499
v -0.875000 2.875000 -0.062500
v -0.125000 3.625000 -0.062499
v 0.875000 0.625000 -0.062500
v 0.125000 1.375000 -0.062500
v 0.125000 0.625000 -0.062500
v 0.875000 1.375000 -0.062500
v 0.875000 1.750000 -0.062500
v 0.125000 2.500000 -0.062500
v 0.125000 1.750000 -0.062500
v 0.875000 2.500000 -0.062500
v 0.875000 2.875000 -0.062500
v 0.125000 3.625000 -0.062499
v 0.125000 2.875000 -0.062500
v 0.875000 3.625000 -0.062499
v -1.500000 0.000000 -0.187500
v -1.500000 4.000000 -0.187499
v -0.875000 0.625000 -0.187500
v -0.875000 3.625000 -0.187499
v 0.875000 0.625000 -0.187500
v 0.875000 3.625000 -0.187499
v 1.500000 0.000000 -0.187500
v 1.500000 4.000000 -0.187499
v -1.500000 0.000000 -0.187500
v 1.500000 -0.000000 0.062500
v -1.500000 -0.000000 0.062500
v 1.500000 0.000000 -0.187500
v -0.875000 1.375000 -0.062500
v -0.125000 1.375000 0.062500
v -0.875000 1.375000 0.062500
v -0.125000 1.375000 -0.062500
v 0.125000 1.375000 -0.062500
v 0.875000 1.375000 0.062500
v 0.125000 1.375000 0.062500
v 0.875000 1.375000 -0.062500
v -1.375000 1.875000 0.062500
v -1.000000 1.875000 0.187500
v -1.375000 1.875000 0.187500
v -1.250000 1.875000 0.062500
v -1.000000 1.875000 0.062500
v -0.875000 2.500000 -0.062500
v -0.125000 2.500000 0.062500
v -0.875000 2.500000 0.062500
v -0.125000 2.500000 -0.062500
v 0.125000 2.500000 -0.062500
v 0.875000 2.500000 0.062500
v 0.125000 2.500000 0.062500
v 0.875000 2.500000 -0.062500
v -0.875000 3.625000 -0.062499
v -0.125000 3.625000 0.062501
v -0.875000 3.625000 0.062501
v -0.125000 3.625000 -0.062499
v 0.125000 3.625000 -0.062499
v 0.875000 3.625000 0.062501
v 0.125000 3.625000 0.062501
v 0.875000 3.625000 -0.062499
v -0.875000 0.625000 0.062500
v -0.125000 0.625000 0.062500
v -0.875000 0.625000 -0.062500
v -0.125000 0.625000 -0.062500
v 0.125000 0.625000 0.062500
v 0.875000 0.625000 0.062500
v 0.125000 0.625000 -0.062500
v 0.875000 0.625000 -0.062500
v -0.875000 1.750000 0.062500
v -0.125000 1.750000 0.062500
v -0.875000 1.750000 -0.062500
v -0.125000 1.750000 -0.062500
v 0.125000 1.750000 0.062500
v 0.875000 1.750000 0.062500
v 0.125000 1.750000 -0.062500
v 0.875000 1.750000 -0.062500
v -1.375000 2.000000 0.187500
v -1.000000 2.000000 0.187500
v -1.375000 2.000000 0.062500
v -1.250000 2.000000 0.062500
v -1.000000 2.000000 0.062500
v -0.875000 2.875000 0.062500
v -0.125000 2.875000 0.062500
v -0.875000 2.875000 -0.062500
v -0.125000 2.875000 -0.062500
v 0.125000 2.875000 0.062500
v 0.875000 2.875000 0.062500
v 0.125000 2.875000 -0.062500
v 0.875000 2.875000 -0.062500
v -1.500000 4.000000 0.062501
v 1.500000 4.000000 0.062501
v -1.500000 4.000000 -0.187499
v 1.500000 4.000000 -0.187499
vt 0.904297 0.500000
vt 0.904297 0.500000
vt 0.904297 0.500000
vt 0.904297 0.500000
vt 0.810547 0.500000
vt 0.810547 0.500000
vt 0.810547 0.500000
vt 0.810547 0.500000
vt 0.904297 0.500000
vt 0.904297 0.500000
vt 0.904297 0.500000
vt 0.904297 0.500000
vt 0.904297 0.500000
vt 0.904297 0.500000
vt 0.904297 0.500000
vt 0.904297 0.500000
vt 0.904297 0.500000
vt 0.904297 0.500000
vt 0.904297 0.500000
vt 0.904297 0.500000
vt 0.904297 0.500000
vt 0.904297 0.500000
vt 0.904297 0.500000
vt 0.904297 0.500000
vt 0.904297 0.500000
vt 0.904297 0.500000
vt 0.904297 0.500000
vt 0.904297 0.500000
vt 0.904297 0.500000
vt 0.904297 0.500000
vt 0.904297 0.500000
vt 0.904297 0.500000
vt 0.810547 0.500000
vt 0.810547 0.500000
vt 0.810547 0.500000
vt 0.810547 0.500000
vt 0.904297 0.500000
vt 0.904297 0.500000
vt 0.904297 0.500000
vt 0.904297 0.500000
vt 0.904297 0.500000
vt 0.904297 0.500000
vt 0.904297 0.500000
vt 0.904297 0.500000
vt 0.904297 0.500000
vt 0.904297 0.500000
vt 0.904297 0.500000
vt 0.904297 0.500000
vt 0.904297 0.500000
vt 0.904297 0.500000
vt 0.904297 0.500000
vt 0.904297 0.500000
vt 0.904297 0.500000
vt 0.904297 0.500000
vt 0.904297 0.500000
vt 0.904297 0.500000
vt 0.904297 0.500000
vt 0.904297 0.500000
vt 0.904297 0.500000
vt 0.904297 0.500000
vt 0.904297 0.500000
vt 0.904297 0.500000
vt 0.904297 0.500000
vt 0.904297 0.500000
vt 0.810547 0.500000
vt 0.810547 0.500000
vt 0.810547 0.500000
vt 0.810547 0.500000
vt 0.904297 0.500000
vt 0.904297 0.500000
vt 0.904297 0.500000
vt 0.904297 0.500000
vt 0.904297 0.500000
vt 0.904297 0.500000
vt 0.904297 0.500000
vt 0.810547 0.500000
vt 0.810547 0.500000
vt 0.810547 0.500000
vt 0.810547 0.500000
vt 0.810547 0.500000
vt 0.810547 0.500000
vt 0.810547 0.500000
vt 0.904297 0.500000
vt 0.810547 0.500000
vt 0.904297 0.500000
vt 0.904297 0.500000
vt 0.904297 0.500000
vt 0.904297 0.500000
vt 0.904297 0.500000
vt 0.904297 0.500000
vt 0.904297 0.500000
vt 0.904297 0.500000
vt 0.904297 0.500000
vt 0.904297 0.500000
vt 0.904297 0.500000
vt 0.904297 0.500000
vt 0.904297 0.500000
vt 0.904297 0.500000
vt 0.904297 0.500000
vt 0.904297 0.500000
vt 0.904297 0.500000
vt 0.904297 0.500000
vt 0.904297 0.500000
vt 0.904297 0.500000
vt 0.904297 0.500000
vt 0.904297 0.500000
vt 0.904297 0.500000
vt 0.904297 0.500000
vt 0.904297 0.500000
vt 0.904297 0.500000
vt 0.904297 0.500000
vt 0.904297 0.500000
vt 0.904297 0.500000
vt 0.904297 0.500000
vt 0.970703 0.500000
vt 0.970703 0.500000
vt 0.970703 0.500000
vt 0.970703 0.500000
vt 0.970703 0.500000
vt 0.970703 0.500000
vt 0.970703 0.500000
vt 0.970703 0.500000
vt 0.970703 0.500000
vt 0.970703 0.500000
vt 0.970703 0.500000
vt 0.970703 0.500000
vt 0.970703 0.500000
vt 0.970703 0.500000
vt 0.970703 0.500000
vt 0.970703 0.500000
vt 0.970703 0.500000
vt 0.970703 0.500000
vt 0.970703 0.500000
vt 0.970703 0.500000
vt 0.970703 0.500000
vt 0.970703 0.500000
vt 0.970703 0.500000
vt 0.970703 0.500000
vt 0.904297 0.500000
vt 0.904297 0.500000
vt 0.904297 0.500000
vt 0.904297 0.500000
vt 0.904297 0.500000
vt 0.970703 0.500000
vt 0.970703 0.500000
vt 0.970703 0.500000
vt 0.904297 0.500000
vt 0.970703 0.500000
vt 0.904297 0.500000
vt 0.904297 0.500000
vt 0.904297 0.500000
vt 0.904297 0.500000
vt 0.904297 0.500000
vt 0.904297 0.500000
vt 0.904297 0.500000
vt 0.904297 0.500000
vt 0.904297 0.500000
vt 0.904297 0.500000
vt 0.904297 0.500000
vt 0.904297 0.500000
vt 0.904297 0.500000
vt 0.904297 0.500000
vt 0.810547 0.500000
vt 0.810547 0.500000
vt 0.810547 0.500000
vt 0.810547 0.500000
vt 0.810547 0.500000
vt 0.904297 0.500000
vt 0.904297 0.500000
vt 0.904297 0.500000
vt 0.904297 0.500000
vt 0.904297 0.500000
vt 0.904297 0.500000
vt 0.904297 0.500000
vt 0.904297 0.500000
vt 0.904297 0.500000
vt 0.904297 0.500000
vt 0.904297 0.500000
vt 0.904297 0.500000
vt 0.904297 0.500000
vt 0.904297 0.500000
vt 0.904297 0.500000
vt 0.904297 0.500000
vt 0.904297 0.500000
vt 0.904297 0.500000
vt 0.904297 0.500000
vt 0.904297 0.500000
vt 0.904297 0.500000
vt 0.904297 0.500000
vt 0.904297 0.500000
vt 0.904297 0.500000
vt 0.904297 0.500000
vt 0.904297 0.500000
vt 0.904297 0.500000
vt 0.904297 0.500000
vt 0.904297 0.500000
vt 0.904297 0.500000
vt 0.904297 0.500000
vt 0.904297 0.500000
vt 0.810547 0.500000
vt 0.810547 0.500000
vt 0.810547 0.500000
vt 0.810547 0.500000
vt 0.810547 0.500000
vt 0.904297 0.500000
vt 0.904297 0.500000
vt 0.904297 0.500000
vt 0.904297 0.500000
vt 0.904297 0.500000
vt 0.904297 0.500000
vt 0.904297 0.500000
vt 0.904297 0.500000
vt 0.904297 0.500000
vt 0.904297 0.500000
vt 0.904297 0.500000
vt 0.904297 0.500000
vn -1.0000 0.0000 0.0000
vn 1.0000 0.0000 0.0000
vn 0.0000 -0.0000 1.0000
vn 0.0000 0.0000 -1.0000
vn 0.0000 -1.0000 -0.0000
vn 0.0000 1.0000 0.0000
usemtl palette
s 1
f 1/1/1 2/2/1 3/3/1
f 4/4/1 2/2/1 1/1/1
f 5/5/1 6/6/1 7/7/1
f 8/8/1 6/6/1 5/5/1
f 9/9/1 10/10/1 11/11/1
f 12/12/1 10/10/1 9/9/1
f 13/13/1 14/14/1 15/15/1
f 16/16/1 14/14/1 13/13/1
f 17/17/1 18/18/1 19/19/1
f 20/20/1 18/18/1 17/17/1
f 21/21/1 22/22/1 23/23/1
f 24/24/1 22/22/1 21/21/1
f 25/25/1 26/26/1 27/27/1
f 28/28/1 26/26/1 25/25/1
f 29/29/1 30/30/1 31/31/1
f 32/32/1 30/30/1 29/29/1
f 33/33/2 34/34/2 35/35/2
f 35/35/2 34/34/2 36/36/2
f 37/37/2 38/38/2 39/39/2
f 39/39/2 38/38/2 40/40/2
f 41/41/2 42/42/2 43/43/2
f 43/43/2 42/42/2 44/44/2
f 45/45/2 46/46/2 47/47/2
f 47/47/2 46/46/2 48/48/2
f 49/49/2 50/50/2 51/51/2
f 51/51/2 50/50/2 52/52/2
f 53/53/2 54/54/2 55/55/2
f 55/55/2 54/54/2 56/56/2
f 57/57/2 58/58/2 59/59/2
f 59/59/2 58/58/2 60/60/2
f 61/61/2 62/62/2 63/63/2
f 63/63/2 62/62/2 64/64/2
f 65/65/3 66/66/3 67/67/3
f 68/68/3 66/66/3 65/65/3
f 69/69/3 70/70/3 71/71/3
f 72/72/3 70/70/3 69/69/3
f 73/73/3 70/70/3 72/72/3
f 74/74/3 70/70/3 73/73/3
f 75/75/3 69/69/3 71/71/3
f 75/76/3 72/77/3 69/78/3
f 76/79/3 72/77/3 75/76/3
f 77/80/3 74/81/3 73/82/3
f 78/83/3 70/70/3 74/74/3
f 78/84/3 74/81/3 77/80/3
f 79/85/3 76/86/3 75/75/3
f 80/87/3 78/83/3 77/88/3
f 81/89/3 75/75/3 71/71/3
f 81/89/3 80/87/3 79/85/3
f 81/89/3 79/85/3 75/75/3
f 82/90/3 80/87/3 81/89/3
f 83/91/3 80/87/3 82/90/3
f 84/92/3 70/70/3 78/83/3
f 84/92/3 80/87/3 83/91/3
f 84/92/3 78/83/3 80/87/3
f 85/93/3 70/70/3 84/92/3
f 86/94/3 70/70/3 85/93/3
f 87/95/3 81/89/3 71/71/3
f 88/96/3 83/91/3 82/90/3
f 89/97/3 83/91/3 88/96/3
f 90/98/3 85/93/3 84/92/3
f 91/99/3 85/93/3 90/98/3
f 92/100/3 70/70/3 86/94/3
f 93/101/3 87/95/3 71/71/3
f 93/101/3 92/100/3 91/99/3
f 93/101/3 91/99/3 90/98/3
f 93/101/3 89/97/3 88/96/3
f 93/101/3 90/98/3 89/97/3
f 93/101/3 88/96/3 87/95/3
f 94/102/3 92/100/3 93/101/3
f 95/103/3 92/100/3 94/102/3
f 96/104/3 92/100/3 95/103/3
f 97/105/3 92/100/3 96/104/3
f 98/106/3 70/70/3 92/100/3
f 98/106/3 92/100/3 97/105/3
f 99/107/3 93/101/3 71/71/3
f 100/108/3 95/103/3 94/102/3
f 101/109/3 95/103/3 100/108/3
f 102/110/3 97/105/3 96/104/3
f 103/111/3 97/105/3 102/110/3
f 104/112/3 70/70/3 98/106/3
f 105/113/3 101/109/3 100/108/3
f 105/113/3 104/112/3 103/111/3
f 105/113/3 103/111/3 102/110/3
f 105/113/3 99/107/3 71/71/3
f 105/113/3 102/110/3 101/109/3
f 105/113/3 100/108/3 99/107/3
f 106/114/3 70/70/3 104/112/3
f 106/114/3 104/112/3 105/113/3
f 107/115/3 108/116/3 109/117/3
f 110/118/3 108/116/3 107/115/3
f 111/119/3 112/120/3 113/121/3
f 114/122/3 112/120/3 111/119/3
f 115/123/3 116/124/3 117/125/3
f 118/126/3 116/124/3 115/123/3
f 119/127/3 120/128/3 121/129/3
f 122/130/3 120/128/3 119/127/3
f 123/131/3 124/132/3 125/133/3
f 126/134/3 124/132/3 123/131/3
f 127/135/3 128/136/3 129/137/3
f 130/138/3 128/136/3 127/135/3
f 131/139/4 132/140/4 133/141/4
f 133/141/4 132/140/4 134/142/4
f 131/139/4 133/141/4 135/143/4
f 133/144/4 134/145/4 135/146/4
f 134/142/4 132/140/4 136/147/4
f 135/146/4 134/145/4 136/148/4
f 131/139/4 135/143/4 137/149/4
f 135/143/4 136/147/4 137/149/4
f 136/147/4 132/140/4 138/150/4
f 137/149/4 136/147/4 138/150/4
f 139/151/5 140/152/5 141/153/5
f 142/154/5 140/152/5 139/151/5
f 143/155/5 144/156/5 145/157/5
f 146/158/5 144/156/5 143/155/5
f 147/159/5 148/160/5 149/161/5
f 150/162/5 148/160/5 147/159/5
f 151/163/5 152/164/5 153/165/5
f 154/166/5 152/164/5 151/163/5
f 155/167/5 152/164/5 154/166/5
f 156/168/5 157/169/5 158/170/5
f 159/171/5 157/169/5 156/168/5
f 160/172/5 161/173/5 162/174/5
f 163/175/5 161/173/5 160/172/5
f 164/176/5 165/177/5 166/178/5
f 167/179/5 165/177/5 164/176/5
f 168/180/5 169/181/5 170/182/5
f 171/183/5 169/181/5 168/180/5
f 172/184/6 173/185/6 174/186/6
f 174/186/6 173/185/6 175/187/6
f 176/188/6 177/189/6 178/190/6
f 178/190/6 177/189/6 179/191/6
f 180/192/6 181/193/6 182/194/6
f 182/194/6 181/193/6 183/195/6
f 184/196/6 185/197/6 186/198/6
f 186/198/6 185/197/6 187/199/6
f 188/200/6 189/201/6 190/202/6
f 190/202/6 189/201/6 191/203/6
f 191/203/6 189/201/6 192/204/6
f 193/205/6 194/206/6 195/207/6
f 195/207/6 194/206/6 196/208/6
f 197/209/6 198/210/6 199/211/6
f 199/211/6 198/210/6 200/212/6
f 201/213/6 202/214/6 203/215/6
f 203/215/6 202/214/6 204/216/6
